<mxfile host="Electron" agent="Mozilla/5.0 (X11; Linux x86_64) AppleWebKit/537.36 (KHTML, like Gecko) draw.io/24.7.17 Chrome/128.0.6613.36 Electron/32.0.1 Safari/537.36" version="24.7.17">
  <diagram name="Page-1" id="FagzN-btbqWrWE1G4MlA">
    <mxGraphModel dx="2074" dy="1427" grid="1" gridSize="10" guides="1" tooltips="1" connect="1" arrows="1" fold="1" page="1" pageScale="1" pageWidth="850" pageHeight="1100" math="0" shadow="0">
      <root>
        <mxCell id="0" />
        <mxCell id="1" parent="0" />
        <mxCell id="1zfgf45CqlNRc9jVLpBi-1" value="" style="shape=image;verticalLabelPosition=bottom;labelBackgroundColor=default;verticalAlign=top;aspect=fixed;imageAspect=0;image=data:image/png,iVBORw0KGgoAAAANSUhEUgAAA2kAAAHKCAIAAAAW/ZSYAAAACXBIWXMAADMmAAAzPAH3xW12AAAgAElEQVR4nOzdeVzMefw48He6rYzM1HTo1KG2WzlWShKl0Wk3UrFyLiKtJTlzLVutc0WOylF0o63cIaGLDiJCh4pSTUrTVPP74/39fn7znZnGh6XC6/nYh8dn3p/38Xq/59P02s/RiNTU1CCEamtrR4wYgUA/IyUldf/+/ebm5r4OBAAAAAAAIYTE+joA8AHNzc3GxsZ9HQUAAAAAAEIIDejrAAAAAAAAwFcDckcAAAAAAEAW5I4AAAAAAIAsyB0BAAAAAABZfZM77t6928bGRk5OzsTE5NixY30Swwd5eXkxmUziZWtrq7S0dFhYGFFy7do1a2vrvggNdXV1ycnJ4e2wsDADA4PXr19/0RHnzp3b0tIivM6VK1emT5/OvfFp8vLyxo0bp6Oj4+fn19nZ+cn9AAAAAOCz64PccdWqVSkpKfv27auqqtq/f39gYOC5c+d6P4wPun79On/ismvXrpcvX/ZJPD05dOjQ1atX5eXlv+goN27cYLPZX3QIrLOzc/78+WvWrCksLGxoaOBO1gEAAADQ53o7d6ysrIyKijpz5oyBgYGkpKSlpeX69eszMzPx3hMnTvz4448qKipz585lMpmXLl1ydXWdNGmSkpKSm5tbWlra6NGjdXR0IiMjEUKXLl2aPn26g4MDnU4fN25cYWFhT514eXn98ssvampqDg4OuNq5c+dMTExUVFRmz57d0tLCX8fX17epqWnixIk85/MWL168YsUK/nmtX79eWVmZTqdPmzbt7du3ODwhwfPHQGb1oqKijIyMDA0N//nnH1yyaNGihoaGadOmbd++/ddff0UItbe3m5mZ5eXl9dRJQkLCyJEjNTU1ly1bhpPj06dPm5mZaWtrL1y4sKWl5cqVK3PnzvXy8tLV1XV2di4qKlq0aFFTU5O9vX1iYuKCBQtWrlzp4eHB31DgcBcuXBg1apS2tva8efPevXt35coV7h743bhxQ0pKatq0aVJSUsuWLUtISCCzMgAAAADoHb2dO2ZkZIwePZr7JNnSpUtDQ0MRQoWFhevWrYuPj3/y5Ambzd68eTNCKD09/a+//nr06NHDhw83b9587dq1PXv2bN26FbdNTU11d3evrq728vKaOXNmV1eXwE6Sk5O9vb2fPXs2fPjwkJCQp0+fLl68OCYm5unTp93d3cHBwfx1jh49OmTIEP7zeatXr37y5ElSUhJ34Z07d06dOpWbm/vs2TNRUdHo6GhcLiR4gTEI9+DBg+Dg4FOnTuXk5OTm5uLC8PDwIUOGXLp0adWqVY8ePbpx48bu3bttbW1HjhwpsJMnT54EBQWdOXPmzp07Dx8+PHnyZFFR0ebNm2NiYoqKijo7O3F4586dmzlzZklJiaam5u7du/Eo6enpFAolLS1NS0vrn3/+EdiQx7Nnz5YvX37ixIni4mIOh7N9+3aEENGDwAjLysr09PTw9ogRI549e8bhcD64OAAAAADoHb2dO9bW1iooKAjclZSU5O3traenJy0tvWHDBpyfmZqampqaUiiU0aNHe3l5DRw4cMqUKdXV1V1dXQghdXX1efPmiYmJLV68uLu7+8GDBwI7GTp0KIPBEBMTYzAYzc3NcXFxLi4uenp6kpKSK1asSE5O5q/TU/xSUlJ79+4NCAjgvhXSyMgoLy9PUVHx3bt3EhISRHMhwQuMQbgLFy54enoaGhpKSUkFBgby7BUXFw8NDV25cmVsbOz69et76iQpKWnGjBlaWlry8vL79+83MDA4d+6cp6enrq4u7hbfPzB06NCpU6eKiYlNnTqVZzUUFRV/++03KpUqsCGPxMTEadOm6erqSkpKLlmyBNchehAY4fv37wcNGoS3Bw0a1NXV9e7duw8uDgAAAAB6R29/rwyNRrt79y53SUNDw7lz53799de6ujriC1RUVVXr6uoQQsQTIaKiojQaDSE0YMD/z3dVVVWJbQ0NjerqaoGdGBsbi4iI4E4QQpWVlWlpaebm5rja0KFD+esIYWtra2VltWnTpmnTpuESNpu9atWq7Ozs4cOHc1+6FRI8fwwcDgcH0JPXr18bGhryT5wwbtw4cXFxOzu7wYMH99TJq1evjIyM8DY+vXfixAmiREVFBV+jNzQ0xMFwrzY2bNgwIh7+hjyqqqoyMjJ++ukn/FJWVpa7B4FkZWWLiorw9rt378TExIhUEgAAAAB9rrdzx0mTJq1bt66uro5Op+OSxMTEEydO/Prrr3Q6vaqqChdWVlaSefijsrKSe1tBQUFgJzwJkLy8PIPB2LdvH0KotbW1rKzszZs3/EmSELt27TI1NVVUVMQv9+zZw2Qy8/LypKSk8FXyD+KPQXjiiBCi0+kVFRV4m5gjt+Tk5EGDBiUmJi5dulRZWVlgJ3JycvgbzBFC+fn51dXV8vLyRG9VVVU43xUSDLFQAhvyDzd16lT8vEtbW1tZWVl9fb3wpVZXVycevS8rK1NVVf3gygAAAACg1/T2NWstLS0PD4+ff/65uLi4s7Pzzp0727dvX7JkCULI2dn5xIkTT58+ZbFYW7ZscXFx+WBvz58/j4qK6u7uPnLkCJvNNjExIdOJi4vLuXPnnj171traGhAQcPDgwZ76Z7FYAsvl5eU3b978559/4pctLS10Ol1SUrK4uPjkyZMdHR0fjJx8DIRp06adPn360aNHHR0dxNCElpaW9evX79+/f/HixUFBQcI7efHixdu3b9euXVtdXc1gME6fPv3s2TMWi7Vjxw7iZCo/nnmRaTht2rTU1NTy8vK2trbVq1dHRER8cJqWlpZv3ry5efNmV1dXeHj4L7/88sEmAAAAAOg1ffA3evbv389gMBYtWoTve9uwYQN+5NbExGTTpk1OTk46OjqioqJkTuCNHj364sWLqqqqR48ejY2NFRcXJ9OJiYnJli1bnJyctLW1m5qadu7cKbDzqVOnjhs3rqe/m+jr60tcQV6yZEl+fr6GhsaaNWsCAwNPnTqVn58vPHKSMXAzNDRcv369h4eHqqoqh8PBl9oJwcHBrq6uurq6v/32W0lJydWrVwV2YmxsvHbtWldXVwsLCy0tLV9fX2Nj43Xr1k2fPt3IyEhUVHTDhg0CG06ZMsXGxob73kcyDY2NjTds2DB9+nQDA4Pm5maBz9PwEBUVPX369Lp160xMTKSkpPz9/T/YBAAAAAC9RgRfwaytrR0xYkRfB/NxLl26tH///pSUlL4O5AuSkpLKzMwk7uAEAAAAAOhbvX2/I+gdZWVl/NfBf/jhhy1btvRJPPz6f4QAAAAA4PcVn3esq6t78uTJ+PHj+zqQLwjOOwIAAACgX/mKzzvS6XTiYW0AAAAAANAL+uBZGQAAAAAA8JWC3BEAAAAAAJAFuSMAAAAAACDrK77f8TtBoVAePHjQ11EAAAAAACAEuWP/Z2Ji0tchAAAAAAD8D8gd+7X29va+DgEAAAAA4P+D+x0BAAAAAABZkDsCAAAAAACyIHcEAAAAAABkQe4IAAAAAADIgtwRAAAAAACQ1XvPWZeWlvbaWAAAAAAA4Evo1b/Ro6CggBCqra3FGwAAAAAA4OsC16wBAAAAAABZffC3weGLUj7Z27dv+zoE8K0pKSnBGz/++GPfRgIAAOCrAOcdAQAAAAAAWZA7AgAAAAAAsiB3BAAAAAAAZEHuCAAAAAAAyILcEQAAAAAAkAW5IwAAAAAAIKsf5Y6xsbGWlpaDBw9WVVX19fWtqqpCCGVlZYmIiISGhgpsInwvmZqxsbHjx4+nUCg//vhjQEBAW1ubkE7c3d1///13hFBJSYmIiMj69evJzu2L8ff3p1KpxcXF+GVWVhaVSg0ODi4tLaVSqdu3b+dvMnv27A0bNnzUKHfv3qVSqQcOHOAuzMrKYjAYGhoa6urqbm5uBQUF/73PnvDH3NbWRqVSqVSqk5MTLomLi8Mle/bs+ahIvpzExERHR0d1dfWffvpp/fr179+/F1KZmKOQ9w4AAADoc/0ldwwODp45c2ZNTY2Hh4eamlpUVJSNjQ2Tyfyig27btm3mzJmVlZW//PKLnJxcWFjYTz/9xGazuet0dnYS2zdu3MjLy0MIycvLb9q0aeLEiV80PDJw5nT58mX88urVqwghZ2dnGo22evVqKysr/ibZ2dn379//j+PW1NTMmDHj6dOnXl5e06ZNy8vLc3V1bWpq+o/d9kRIzAUFBV1dXQgh/Nb0H2FhYfPnz6+urnZxcaHRaP/884+9vb2Qo4uYo5D3DgAAAOhz/SJ3LC8v37p1q6mpaVFRUURExM2bN8PCwsTExDIzM7mr5ebmjh8/XkZGRldXd9++fUR5cXGxsbExjUZbuXIl/mW8b98+dXV1aWlpfX39c+fOCRy0oqJiy5YtI0aMKCwsjIiIuH79+urVqx88eHDgwAF8knLZsmWjRo364YcfZs6c2d7ebmNjU19ff/36dVdX19evX2/atAknavxR4eZ+fn6WlpYyMjJOTk74dObWrVuHDRv2ww8/jBs3Licn57Ms3fjx42VlZYnc8cqVK+rq6sbGxvX19Tt37rxx4wY+vbdz585ffvklPDzcycmpoaEhKyvL29ub+8xfTU0NlUoNCgpCCEVERJiYmCgpKY0dOzY9PV3guHl5eW1tbYsWLdqyZcu+ffs2b96sq6v77NkzhND9+/cdHR1VVVVHjRoVERGB69++fdvW1lZFRcXa2vrGjRvcXXV0dNjZ2WlpaT1//hwhdO/ePVzT3t4e51LcMfOEoaSk1NbW9ujRI4RQfn6+srIysYt/Fni+a9asmTp1qqqq6qxZs/CJQIHzzc7OHjdunJ6eXnh4OJVK3bhxo8DYeJaXGL2qqiokJERbW/vmzZu7d+8+d+7c8uXLi4uLjx49ipusXr160qRJKioq8+fPZ7FY3HMk3juBi9nTLEJDQw0MDIYNG+bg4PCx54ABAAAA8vpF7njjxg02m7148eKBAwfiEj8/v0ePHk2bNo2o8/bt2ylTppSXl2/btk1TU9PPz+/MmTN414kTJ+zt7S0tLf/+++/9+/cXFhb6+flpamr+9ddfra2tvr6+AgfNzMxksVhLliwZPHgwLlm9ejVC6OLFi/jlwYMHJ0yY4OjoGBsbGxoaGhsbKysrO2bMmMOHD5OJ6tixY2ZmZiYmJufPn4+MjLxy5cr69et/+umn0NDQly9f/vLLL59l6cTExBwcHHJycphM5uvXr4uLi52dnfmrHTx48NWrV8OGDTt69OiQIUPMzc3//vtvgR2WlJSsWbNGTU0tODi4ra3Nz89PYDVVVVWEUHh4+Pbt2y9evDh16tSMjIyRI0c2NjZOnz79xYsX69atU1dXX7NmTVJSUn19/YwZM969e7d27dr29nYfHx/uM5RBQUGFhYXHjx/X0NBoamry8PDo6uravHnz27dvZ82axWQyhcSsoaFBo9FycnI6OjqKi4vNzc0/OItTp04ZGRkZGhqmp6efPn1aYM3m5mZPT08mk7lgwYIjR47ghgJj41leYpTbt2+zWKx58+bJyMjgEtzztWvX8Mvjx49bWlra2dklJiYeOHBA4BwFLqbAWdy4cWP79u2jRo3asmVLZWXl3LlzBb5rAAAAwH/XB99JyK+yshIhpKCggF+KiIjgjU2bNk2aNAlvp6SkvH37du/evcuWLfP09JSXlz9+/Di+43DKlCk7d+5ksViysrInTpxwd3ePj483MzN7/fq1qKhofX09i8XiH/TFixcIIXV1daJEVlZ28ODB+OQZ7nbXrl0dHR2ysrJnz54NCgoSFRWVkpKSk5N7/fr1B6OaO3fu3r17i4qKjIyMnj17JisrixCqr6+nUqnJycksFqu7u3vAgM+Quzs5OZ0+ffr69ettbW0cDkdg7jhu3LhTp07hbVFRUUlJSRqNRsyU25AhQyIjI42MjOrr60VFRRsaGgSunpGR0aFDhw4ePPj33393d3eLiIiMHz8+IiLi4sWLjY2Nf/755/z5893d3XV1dU+fPt3a2tra2hoYGOji4mJqapqUlNTQ0ID7SUpKKigoCAwMHD9+PEIoLS2NyWT6+vpOmjTp3bt3mzdvvn37tr29PREzfySjRo3Kzc01NjZmsVgWFhYpKSnCZzFr1qw///zz4cOH48ePf/Hihb29PX9NHMb69evnzp2rp6c3a9asnmLDbyv38mIVFRUIIRUVFe6FlZGRwedWEUITJ07ctGlTR0eHpqZmcnLyypUriTnW19fjOmlpafyLie+45ZnFkCFDEEINDQ1Dhw49efLkZzy6AAAAAB79InfU0tJCCJWWluITjZs2bWIymWFhYdx1cH6JTyzRaDQNDQ386xkhZGpqihCSlJQ0NDR8/vy5vLz8nTt3fHx8lJWVu7u7expUTU0NIfTy5UuipLm5mclkjho1irtbCQkJAwMD4lc+DyFR4f6HDh2KEOru7nZxcZk7d25MTMy1a9fExMSWL18+bty4j14pQaytrQcPHnz58uX379/jC9b8dUaPHk2yNxqNlpubu3jxYkVFRSGrhxCaPn369OnT379/f//+/cOHD587d27Pnj34JC7+ynIqlaqmplZVVfXq1Sv0v2n6mDFjxowZgxDCGVJBQYGIiEhWVhZOifADUitWrCBGKSsrs7e3FxKGhYXFqVOnTE1NFRQUiGvWQmaB8zmc83V3dwusid9WvJLEuUyBseGjhX958Si4CcZkMltaWszMzPBLQ0NDhJCEhISenh5xzPCorq7mX0yBs3B0dJw1a1ZCQsKtW7fExMQWLlxI/h0HAAAAPkq/ODNhZWUlLS29b9++N2/eIIQ2btzIfeMahi8I5ufnI4QaGhpevHhBnNTBd57hq5YqKioZGRkhISERERFPnjzR09MTMqiEhMSBAwdaWlpwyc6dOxFCkydPxi8fPHiAuy0pKSEuR3I4HJJR8Xj79u3KlStfv34dHx9vaGgYGhoq8LTfJ5CQkLC3t798+fK1a9cEnnRECImKivIX4vO7zc3NCCG88giha9eu7d+/f/fu3Tk5OTo6Oj0Nevbs2TFjxsTGxkpLS48dOzYgIAAh1NTUpKSkhBAqLCxECL19+7aiokJZWVleXh4hhO9KzMnJ2bhxI5GLOzk5/frrrzdu3MA3j+Izi8nJyQ0NDTU1NaWlpfPnzxc+/VGjRj19+vTSpUsWFhbEGWuSs+ipJg4DB4znIjw2/uUdO3ashITEkSNH3r17h0vw0982Njb4ZUlJCUKoo6OjtLQULxo/gYspsGZjY+Nvv/325MmTyMhIfX39AwcO9PR/OwAAAMB/1C/OOyorK2/evPmPP/4wNjaeNm3aq1evLl68iM/YEZycnIYMGfLnn3+KiIj8+++/3d3ds2fPxrsyMjLWrVv3+PHjtrY2Hx8f/Fs5LS2tpKTkypUriC/hw9TV1YOCgjZu3GhsbDxlypSnT59evnzZ0NDQz88vNzcXIZSeno67bW1t9fLyQggNGjSovLw8NzdXWlr6g1HxOHHiRGBgYEBAgImJibi4uISEBHEn3H/n7Ox89uxZvPHByj/88MOLFy/u37+voqIiIiKCL7ampaXhvaWlpQihK1eulJaW8jzUws3CwqK6unrt2rXZ2dny8vK4uaOjo4WFBYVC2b17N0Lo8uXL3d3dM2bMGDduXFBQ0J49e9ra2g4fPlxfX//777/j6/7m5uaurq6nTp3avHnzhAkTJk+eLCUltXv37oaGhqioqOzs7Js3b2praxMx45Nw3ExNTcXFxa9cubJp0yaikOQseqo5efJkCQmJ0NDQpqam06dPE4X8sfXUraqq6sqVK//8808rK6uJEyeWl5dnZmbq6+svWLAA/6/OlStXtm3b9vTp07a2tp9//pn7fZGSksKd2Nvb8y+mwOHOnDmzZcuWJUuWGBgYiImJfd6jCwAAAODWL847IoRWrVoVExOjpqYWExNTU1OTlJRkZ2fHXYFGo2VkZKipqa1evfrx48d79uzx9PTEuyZNmnT27Nlr166tXLly6dKl7u7uFAolPj6+uLgYP5LC87w2YcOGDadOnVJQUDh16lRVVdXy5cuzs7MlJSXx3vnz56elpV29enX58uX4QQd/f//29nbuR7yFRMXD399/0aJFp06dmj9//vv372NiYvDZuM/CxsZm0KBBampqAi9Y81i8eDGLxTp8+LCiouK6detYLNbZs2c9PDzw3mnTpg0ePDglJeXRo0cuLi4IoaysLP5ONDQ04uPjjYyMUlNTDx06JCEhcejQIXt7eyqVGh8fr6Kisnnz5rKysh07dkyfPl1RUfHUqVNSUlIbN24cOHDgyZMnuTMbJSUlLy+v4uLi+Ph4ZWXlkydPvnnzZunSpU1NTbGxsdra2twx80ciKSlpZGTE4XAsLCyIQpKz6KmmsrLy4cOHBwwYsHfvXiId7ym2nqxaterQoUPy8vJxcXGvXr1auHBhRkYGcXT5+Phcvnz55s2bCxcuXLBggcA5ClxMgWMtXrz4119/jYuLW7FiRXt7e0REhMB7QwEAAID/TqSmpgYhVFtbO2LEiC86UmlpKX4ahngm5stpaGhob2/v6QLfB2VlZVlaWoaEhOBLsf3H27dve2cUFoulqKjYC2N9OeRnwV8T336gpqZGo9EePHgwceLEjRs39vTI+ce6e/fu1KlTg4ODlyxZ8lk6/I/weXqE0I8//ti3kQAAAPgq9Itr1p8dlUrt6xC+Yjx3C3ylyM+Cv+bz58+nTJkyYcKEnTt3hoeHi4iIfK4HmwAAAICvXX+5Zg1A/2Fubr5ly5Znz55ZWVnl5OSEhYWNHDmyr4MCAAAA+oVv85r1t6p3rlmD7wpcswYAAPBR4LwjAAAAAAAgC3JHAAAAAABAFuSOAAAAAACArG/zOWsAAElwmyMAAICPAucdAQAAAAAAWZA7AgAAAAAAsiB3BAAAAAAAZMH9jl+Tb+MbXwAAAADw9YLzjgAAAAAAgCzIHQEAAAAAAFmQOwIAAAAAALIgdwQAAAAAAGRB7ggAAAAAAMiC3BEAAAAAAJAFuSMAAAAAACALckcAAAAAAEAW5I4AAAAAAIAsyB0BAAAAAABZkDsCAAAAAACyIHcEAAAAAABkifV1AB/AYrFSL1yoflUtpI6ykrIjgyEpKdlrUQEAAAAAfJ/6e+6YeuFCW1ubne0kCUkpgRU6WO25eXmpFy64ubv3cmwAAAAAAN+b/n7NuvpVtfnIkSP09TWHa/L/R6UOHaGvbz5yZPWrahaLxd2wtbVVRERETExMnEtXVxfJcTMyMqZNm8Zf6ODg8MG2Hh4eTCZTYA8fpKGhoays3N3djV+mpKTIysrW1tbil+Xl5TIyMnfu3EEImZqapqSkEA3xfJubm7l7u3v3roWFBXdUQobmrtzTpD4Y//bt21VVVevq6j5YEwAAAABfo/6eOyKEejrjWPTgwbJly5Lj49U1NRFC9fVv+Os0NDSwuYiKin7ZWBFCCF29epXNZn9Cw+zsbA6HM2DAgFu3buESZ2dnBwcHPz8//HLhwoVLliwZM2YMyQ719PQOHDhAMiruyvxITmrv3r05OTl0Op1khAAAAAD4unwFuaNARQ8e/BUS0t7RkZiSwmpvJ98wIyPDw8PD1dVVQUHB1tb2/v37CKHAwEAajUahUKZMmdLQ0IBrtre3e3t702g0MzOznJwcnn6SkpL09PTk5eU9PT1bWlqIch8fn8bGRktLy8bGRhaL5evrq6KiYmtr++DBAyGtsJiYGG9vbw8PjzNnzhCF+/bty8zMPH/+fHR09KtXrzZv3kx+smVlZUuWLOGOqq6urqcYiMr8SySkeUZGhpeX16JFixgMho+PT319vY2NTV1dncAljYmJ0dbWplKpvr6+nZ2dH1wQAAAAAPQ3X2XuSCSOCCE3Z2fKkCEf1TwhIWH27NlVVVVaWlo7d+68fft2dHR0YWFhdXW1qKjo8ePHcbXLly9PmDChtrZ27ty57u7uHR0dRA9lZWXz589PSEiorKzs7u7esGEDsSs6OlpWVvbWrVuysrKXLl1ydXV9+fKlkZHRX3/9JaQVQqirqysuLs7Hx2fmzJnx8fHE5XUqlfrPP//89ttvf/zxR2Rk5Kc9EkRExWQyhcTQ0xIJb37u3DldXd3IyEhcLTs7+9mzZ/xL+ujRo4CAgNTU1IcPHxYVFR07dkz4ggAAAACgH/o6csfk+Hgfb++iBw/Q/00cPX/+2WX6dCENqVQqcbOjiYkJUejs7CwmJubs7NzU1GRiYlJUVKSkpNTS0iIhIUHcMqitre3r6ysmJrZ06VIxMbH8/Hyi29jYWDc3N319fUlJyYCAgISEBIGjKykpMRiMAQMGTJw4sbm5WXira9euaWpqamtrjxw5kkKhXL9+ndjl4uLC4XC0tLSE3I9IEsnIeZZIeHNlZWV/f38ajUZUE7ikZ8+e9fb21tHRodPpx44dMzY2JhkMAAAAAPqP/v6cNULodV3t6bg4hNBfISFuzs6JKSkkE0eEUENDA4VC4Sk0MTERERFBCOHbHzs6Ovz9/bOysrS0tLgvm6qpqRHbmpqadXV1UlL/c+dlRUVFamqqoaEhfjl06FAOh4P75BkIbwwYMOCDrWJiYvLz8+Xk5BBCTCbzzJkztra2eNfOnTvV1dWrqqri4uJ+/vnnDy2YMOQj514i4c1VVFR4mgtc0qqqKlNTU7xtYGCAEDpy5AiZYAAAAADQf3wFuaM8XcHz559Px8W1d3TgJBKRSxx7gjM5QlhYGJPJLC4ulpKSWr9+PVFeUVFBbL98+VJFReXNm/95HIdOpzs5OYWHhyOEWltbHz9+LDDj4RlISKuOjo7ExMRHjx6pq6sjhPLz8ydPnvzPP/+IiYkVFRXt3Lnz3r17z58/9/b2tra2lpeX/7SJf3LkQpq/efOG/wkkgUtKp9NfvXqFt3NyciorK0kGAwAAAID+4+u4Zu0yfbon1/m2/5I48mMymXVrCBIAACAASURBVHQ6XVJSsqioKCoqiriv8cmTJ9HR0d3d3QcPHhQVFSVOIiKE3NzckpOTnz592tra6ufnt3//fp4+ef5g0AdbpaWlqaqq4sQRIWRqaiopKXn58uXOzs45c+asWrVKV1fX3t5+8uTJixcv/uSZslisD0b+WZoLXFI3N7fIyMjy8vKGhgZ/f//Kysr/EgwAAAAA+sTXkTsirvTxoxJHOp0uzeXevXv8dZYvX56Xl6ekpBQQELB+/fro6Ojc3FyEkL29fWxsLJ1Oj4qKSkhI4D4VZ2ZmtmPHDnt7e1VV1aamptDQUO4OGQyGhYVFY2Mjz0BCWsXGxjo7OxMvRUREHB0dz5w5s3379o6OjtWrV+Py3bt3Z2ZmxsTEkJlvZGQkf1TKyspCIhfio5oLXFIzM7Pg4GA7OztdXV0dHZ3ffvtN+DICAAAAoB8SqampQQjV1taOGDHii45UWlqqoKCAEML/krRv314720kj9PXxy4qXL1W5bkP8n54fPrx05fLs2XMGDx78uaIFAAAAAAD8+vv9jspKyrl5eQghnD7yJI7t7e0vystz8/KUlZQhcQQAAAAA+NL6e+7oyGCkXrhw6crlS1cu91RHWUnZkcHozagAAAAAAL5P/T13lJSUdHN3ZzKZLS2Cv0yZRpP7tD+XDQAAAAAAPlZ/zx2xwYMHwyVpAAAAAIA+99U8Zw0AAAAAAPoc5I4AAAAAAIAsyB0BAAAAAABZkDsCAAAAAACyIHcEAAAAAABkQe4IAAAAAADIgtwRAAAAAACQBbkjAAAAAAAgC3JHAAAAAABAFuSOAAAAAACALMgdAQAAAAAAWZA7AgAAAAAAsiB3BAAAAAAAZIn1dQAAgC/i/v37zc3NfR0FAAB8OygUiomJSV9H0fcgdwTg29Tc3Gxtbd3XUQAAwLcjMzOzr0PoF+CaNQAAAAAAIAtyRwAAAAAAQBbkjgAAAAAAgCzIHQEAAAAAAFn9N3csKSlxcHCg0Wh0Ot3V1bW8vLynmh4eHkwmk78kIyNj2rRpnzeqjIwMBwcHMjXv3r1rYWHRU4RkbN++XVVVta6u7mMbCvFpkXDr6uoSFxfnLuGeaT/036f8TXJycnr8+HFfRwEAAODr009zx+7ubkdHRzs7u7KysoqKCnNzc1dX154qX716lc1mCy/pfXp6egcOHPgv8ezduzcnJ4dOp3/GqL7EynDPtB/qDwdDv9Lc3BwVFfXvv//2dSAAAAC+Sv00d6ypqamoqJg/f76srKykpGRgYKCOjs67d+8QQklJSXp6evLy8p6eni0tLT4+Po2NjZaWlsT5OaKksbGRxWL5+vqqqKjY2to+ePCAvzkxYkZGhpOTk62tLYVCsbCwwJURQpGRkVpaWvLy8t7e3jynrwIDA2k0GoVCmTJlSkNDA+7Ey8tr0aJFDAajrKxsyZIl3PFYWlomJyfjtnPmzPn777+5e+MZyMfHp76+3sbGhpgXd+f8E+nq6lq0aJGcnJycnNyGDRtwkw+uVU+z8PDwcHV1VVBQsLW1vX//PkIoIiJCXV1dTU2NJ2yEEDFThFBMTIy2tjaVSvX19e3s7Oypf4FLze8LTfk798cffxw5cmTAgH76sw8AAKC/q6mpqampKSgoeP+FFRQU4LE45BgYGIwfPz4+Pr6pqYkofPLkCZVKLSkpaW9v9/DwWLFiBYfDodFo9fX13G1xSXp6OkLo/PnzXV1dK1asmDVrlsDmGK4cHh7OZrP37ds3fPjwzs7OgoICOp1eUlLS1tbm4eGxbNmy9PR0e3t7DoeTlZWlpKRUXV3d0tLi4ODw119/4U5kZGTCwsLevHmTm5trbm7OHU9oaOj8+fM5HA6bzaZSqc+fPydG5x8It+KeO3fn/BOJi4szNTV9+/bt8+fPBw8e/PjxYzJr1dMsREVFk5KS2Gz2ggULZsyYkZeXR6VSCwoK2tra3N3dxcTEuFebmOnDhw8VFRUfP35cW1trYWFx6NChnvrnX2qBx8CXmPL34/r160L2KigolJaW9lowAADQ36xdu5ZkIUH45+r3o/+ee8jOznZwcAgJCaHT6VZWVrdu3UIIxcbGurm56evrS0pKBgQEJCQkCO9ESUmJwWAMGDBg4sSJzc3NwptraGgsXLhQTExs6dKl3d3dBQUFCQkJc+bM0dfXl5aWDg4O5q5vYmJSVFSkpKTU0tIiISFBfIGHsrKyv78/jUbjD4bBYOALhTdv3lRXV1dXVyd2CRmIG9E5/0RoNFpjY2NxcbGqqmpzc7OOjg6ZteppFlQq1dnZWUxMzNnZuampKSkpac6cOSYmJtLS0ps3b+5ptc+ePevt7a2jo0On048dO2ZsbNxT//xL3VOfn33KAAAAQFBQEPGv8ELAr/9+r8ygQYMCAwMDAwObm5uPHDliY2OD731MTU01NDTEdYYOHcrhcIR0Qnx3EL5CJ7C5iIgIfqmmpkY01NTUrK6urq2tNTU1JfbW1tYSw3V0dPj7+2dlZWlpaXFf+1ZRUekpGB0dHWlp6cLCwqSkJHd3d+5dQgbiRnTOPxErK6t58+bNmTOnsbHRy8srJCSEzFr1NAsTExO8LKKiojg8YiW5U14eVVVVxCwMDAwQQk1NTQL7519qc3NzgX1+9ikDAAAA27ZtIzLFbdu2Ia6UEb8EQvTT3DExMfHo0aOpqakIIQqFEhAQcOHChevXr9PpdCcnp/DwcIRQa2vr48ePicxPIJ6buoQ3r6io4N5WUFBQUFCorKwkSuh0OlE/LCyMyWQWFxdLSUmtX7+eaIiTrZ4wGIzU1NSUlJSLFy9ylwsZiBvROf9Eqqur586dGxQUVFpaOmPGjJSUFDJr1dMseNZNUVHxxYsX/KvEg06nv3r1Cm/n5ORUVlbev39fYP/8S91Tn599ygAAAAD6v+kjd2HfRfTV6KfXrK2srHJyciIiIphMJovFSktLKywstLKycnNzS05Ofvr0aWtrq5+f3/79+3F9FovF0wN/CUKop+ZYeXn5sWPHuru7Dx06xGazzczMXF1dIyMjy8rKWCzWxo0b3dzciMpMJpNOp0tKShYVFUVFRXV0dAifEY6HwWDs3btXRkZGV1eXe6+QgQTin8iZM2c8PDxYLBadTpeQkGhrayOzViRn4ebmFhkZWVxc3NHRsWnTJiFRRUZGlpeXNzQ0+Pv7V1ZW9tQ//1ILn+9nnDIAAACA8WSKkDiS1E9zRxqNlpaWFhcXN2zYsGHDhu3atSs5OVlTU9PMzGzHjh329vaqqqpNTU2hoaEIIQaDYWFhwf0gLS5pbGzk6VZgc8LYsWPT09PpdPrhw4cTEhLExcXNzMy2bt1qb2+vpqYmKiq6fft2ovLy5cvz8vKUlJQCAgLWr18fHR2dm5vb03SICK2srFpbW3kuWOPAehpIIP6JLFy4UFZWVlFRccSIEebm5rNmzSKzViRnYWJisn37dgaDQaFQOByOwLs5cVTBwcF2dna6uro6Ojq//fZbT/3zL7Xw+X7GKQMAAAAEIl+ExJE8kZqaGoRQbW3tiBEjvuhIpaWl+NKkkAuUfSgjI2P37t1paWlfeiA1NbXz588bGRl96YH6rV5b6u9cZmamtbV1X0cBAADfDvhcxfrp/Y7fJDabnZaWNnDgwO85cRSotLR0z549PIU//PBDSEhIn8QDAAAAgJ5A7vg/jI2N16xZ80WHCA8PDw0NjY6O/qKj9H/8Sz1ixIiDBw/2VTwAAAAAIA9yx/+Bn6r+okMsW7Zs2bJlX3SIr0IvLDUAAAAAvpB++qwMAAAAAADohyB3BAAAAAAAZEHuCAAAAAAAyILcEQAAAAAAkAXPygDwbaJQKJmZmX0dBQAAfDsoFEpfh9AvQO4IwLfJxMSkr0MAAADwDYJr1gAAAAAAgCzIHQEAAAAAAFmQOwIAAAAAALIgdwQAAAAAAGRB7ggAAAAAAMiC3BEAAAAAAJAFuSMAAAAAACAL/r4jAN+m+/fvNzc393UUAADw7aBQKPCncxHkjgB8q5qbm62trfs6CgAA+HbAl3VhcM0aAAAAAACQBbkjAAAAAAAgC3JHAAAAAABAFuSOAAAAAACArH6aO7a2toqIiHh4eHAXrl69WkREpKSkpJeD6erqEhcX/7S9PO7evWthYfEJMXh4eDCZzE9oCAC32bNni4uLi4uLi4iIiIqK4u27d+9mZGRMmzaNZCf4x1NMTExcXFxGRsbGxub+/fs85Zi5uXlKSoqsrGxtbS1uW15eLiMjc+fOHZ4+Q0JCxo0bJyMjo6enFxERwb0rNjbW0tKSQqHo6en5+fm1tLQQY+3atYuoduXKlbFjxwqZI3d4YmJiVCrVx8fn/fv3ZAbieWJdSCH39MXFxbu6uj44rnDEh0ZGRoaDgwP3Rj80c+bMP/74g7tk5MiRUVFRPX30fdQnm8CJl5SUODg40Gg0Op3u6upaXl5Ovjcyx3xvfvaGhoaK/F9ZWVncFT5hsp/8S4fQO7/jwNeln+aOWGZmJvcnbFJS0sCBA/swnv9OT0/vwIEDn9Dw6tWrbDb7s8cDvjdRUVFsNpvNZltaWp4+fRpvjx49+hO6amhoYLPZlZWV7u7u1tbWlZWV3OVYbm6us7Ozg4ODn58f3rtw4cIlS5aMGTOGu6sVK1YkJSWFh4fX19cfOnTo999/T0pKwru2bt26bt26jRs3vnr1KiUlpampycLCor29He/dsWPHixcvPmqOOLzOzs5bt27l5+fv37+fzEAfuywEUVFR4eN+0Cd/aPSJmTNnnj17lnhZUVFRXFzs7Ozc0yz+4ydbd3e3o6OjnZ1dWVlZRUWFubm5q6vrJ/cmUG9+9vr5+b37X/fu3TM1NR01ahSx99Mm28vHz9d1uIJP1q9zR2tr67S0NLxdWFgoKysrLy+PXwYGBtJoNAqFMmXKlIaGBoRQRkaGh4eHq6urgoKCra0tPhHCXw0hdOLECQ0NDQ0NjQ0bNmhoaODCpKQkPT09eXl5T09PfL4hIiJCXV1dTU3t77//5o9N4F6eTiZNmhQZGYl3/fnnn56enmVlZUuWLMElMTEx2traVCrV19e3s7NTYAyYj49PY2OjpaWlpaVlcnIyLpwzZ87ff/+dkZHh5ORka2tLoVAsLCwePHjQ03QAEI7FYvn6+qqoqNja2uIDicxRNGTIkKVLl7q6uoaFhfXU8759+zIzM8+fPx8dHf3q1avNmzdz762oqDh27FhiYqKhoaGkpKSVlVVwcPC1a9cQQi9fvty5c2dqaqqdnd0PP/ygo6MTHR1Np9OJsZYuXUr8QH0sPT09a2vriooKMgN9RtzjEsaPHx8XF4cQCg8PFxMTe/fuHULI0dExIiKC+0OjJxkZGY6OjlZWVlQqlcFgpKammpqaqqmpHT16FFfohQ9MzN7enslk3rt3j6g2efLkIUOGELPIyMjw8vJatGgRg8EgPtliY2OJU4DEyUWBwfCoqampqKiYP3++rKyspKRkYGCgjo4OXr3IyEgtLS15eXlvb2984pD/Ixd7/PixiorKrVu3+OdFRPjq1atFixbJycnJyclt2LCBJwyesQSuLUHIvMTFxX/4X6tXrw4PD+c+4Sdksjxhcy8y9/HDU62rq0vIpHrzdxz4+tTU1NTU1BQUFLz/wgoKCvBYHBLwz0NcXNyMGTNwyYYNG3bt2qWurl5cXJyVlaWkpFRdXd3S0uLg4PDXX39xOJz09HRRUdGkpCQ2m71gwYIZM2YIrPbw4UNFRcXS0lImkzlhwgR1dXUOh/PkyRMqlVpSUtLe3u7h4bFixYq8vDwqlVpQUNDW1ubu7i4mJsYdnsC9/J3s37/f3d0dNxkzZkxKSkpubq65uTkRxuPHj2tray0sLA4dOsTfnHtEGo1WX18fGho6f/58DofDZrOpVOrz58/T09MRQuHh4Ww2e9++fcOHD+/s7BTeFfhOXL9+Xche/AubeIkPpPPnz3d1da1YsWLWrFlCjiL849nU1ESUnD592srKir+cEB8fP2zYMDqdfu/ePZ5d4eHhkydPFhhkdHT0hAkT+AttbGzwWO/fvx8+fHhcXByHw7l8+fKYMWOEzJEnvKKiouHDh6enp5MZiGdS5AuFj0vYuHGjn58fh8OZPXu2jIzM1atXu7u7ZWVlnz17RnxopKen29vbc28Q8NuXm5vb2Niorq5uamra2tp64cKFYcOGcTicXvjA5A5m3rx5AQEBeNva2jo6OprD4XDPQkZGJiws7M2bN5z//WRLT09nMBjEXOzt7XuKmWfiHA7HwMBg/Pjx8fHx3CtfUFBAp9NLSkra2to8PDyWLVvG/5GLB3316tXw4cOTkpJ6mheOMC4uztTU9O3bt8+fPx88ePDjx4+FjMW/tkRlgfPid+bMGU9PT/5ygZPlD5t7kYmV568mZFK9/zuuT6xdu5ZkIUH45+r3o1+fd5w6derVq1fxZaOEhAQ3NzdcbmJiUlRUpKSk1NLSIiEhQdx1RKVSnZ2dxcTEnJ2dm5qaBFY7c+aMj4+Prq6ujIzM77//jhvGxsa6ubnp6+tLSkoGBAQkJCQkJSXNmTPHxMREWlqa5zQJQkjgXv5OXFxcLl261NHRUVtb++TJE3t7e6KHs2fPent76+jo0On0Y8eOGRsb8zfnXxAGg/Hvv/8ihG7evKmurq6uro4Q0tDQWLhwoZiY2NKlS7u7uwsKCsh0BQAPJSUlBoMxYMCAiRMnNjc3f9RRJC8v/+rVK7xNpVKJu/2Iu7VcXFw4HI6Wlhb/vVA1NTWKiooCu33x4oWqqipPoZqaGnGbl5SU1MGDB5cvX07+jjQ6nS4tLS0pKWloaGhtbT1lyhQyA5HHPX3u758QOC7B1tYWn/e6c+eOr6/v7du3Hz58SKFQNDU1SY47cuTIkSNHDhkyZOzYsT4+PgMHDnRwcKiqqurq6uqFD0zuSGbOnImz+Tdv3uTk5Dg5OfGEqqys7O/vT6PRhEynp5j5ZWdnOzg4hISE0Ol0KysrvIwJCQlz5szR19eXlpYODg5OSEjg/8hFCDU3Nzs4OIwZM8bFxUX4vGg0WmNjY3FxsaqqanNzs46ODrGLfyz+tf2oeXV3d2/ZsmXdunUkJyswbP5F5q8mZFJ99TuuNwUFBRH/Ci8E/Pr198oMHDjQysoqPT1dX19fXFx8+PDhuLyjo8Pf3z8rK0tLS4v7vLeJiYmIiAhCCN9jJLBadXW1qakp3h42bBjeqKioSE1NNTQ0xC+HDh1aW1tLfO7jFI2bwL38nSgpKenq6t64caO8vNzFxUVCQoLooaqqigjDwMAAIXTkyBGe5hwOB0+HoKOjIy0tXVhYmJSU5O7ujgvV1NSICpqamtXV1fyR8HcFAA/ikB4wYAASdDwLOYpev36tpKSEtxsaGigUCk+FnTt3qqurV1VVxcXF/fzzz9y75OTksrOzuUvq6+uTk5PnzZunpqZ2/fp1nq6qqqpUVFSIl3Z2dhMmTAgKCsK//j+orq4Oh5ebmztlyhRvb+8JEyaQGYgkgdPvaVxi75gxY54+ffrixQtRUVEGgxEWFiYvLz9p0iTy48rJyeENUVFRvI3fR9QrH5jcx8aECRPYbPbdu3dLSkrs7Oz4V0P4qnI4HCEx8xs0aFBgYGBgYGBzc/ORI0dsbGzKyspqa2uJsNXU1Gpra/k/cjMyMm7evLl8+fKjR49WVVUNGzZM4LzwtrW19bx58+bMmdPY2Ojl5RUSEkJ8nvOPxeFweNaWQGZeaWlp8vLyenp6JCcrMGz+ReavZmVlJWRSffI7rjdt27aNyBS3bduGuFJG/BII0a9zR4TQ9OnT4+LiDAwMpk+fThSGhYUxmczi4mIpKan169cT5cRnpZBqCgoKxE39xJkSOp3u5OQUHh6OEGptbX38+HFycjJxDz7PnUkIIUVFRf69/J2IiIi4urpeuHChrKzM39+fuwc6nU6MnpOTU1lZKbA5/4Lgm5lSUlIuXrzIH15FRYWCggLJrgDgxvPj81FH0cWLF83MzHraW1RUtHPnznv37j1//tzb29va2pq4cRkhNHny5NWrV9fW1iooKOCS+Pj4yMjIefPmjR8/fsmSJU+fPtXS0iLqHz9+3M7Ojrv/sLCwH3/8kUheSTI3N584ceKDBw8mTJhAcqDPgntcolBcXPynn37avXv3mDFjRo8enZOTQ6VSHR0dP8uIvfCByX1sDBgwwMPD4+zZs0+ePPH09OSPhyedwrq7u/EGvte2p5h5JCYmHj16NDU1FSFEoVACAgIuXLhw/fp17rArKirodDr/R+4PP/wwceLE3bt3t7a2BgUFRUVFCZlXVVXV3Llzg4KCSktLZ8yYkZKSQvwvEP9YIiIiPGsrfJF5REVFCVy3nibLH/abN2/4F5m/WnV1dU+T6sPfcb2JO33kLuy7iL4a/fqaNULI0dHx8uXLMTExxGk2hBCTyaTT6ZKSkkVFRVFRUR0dHQLbCqzm6uoaHR1dXl7e1ta2e/dufOy6ubklJyc/ffq0tbXVz89v//79bm5ukZGRxcXFHR0dmzZt4ulZ4F7+ThBCLi4uiYmJxcXFNjY2/D2Ul5c3NDT4+/tXVlYKbM6NxWIhhBgMxt69e2VkZHR1dXF5eXn5sWPHuru7Dx06xGazzczMPtgVAB9E8ih69+5deHh4YmLiypUrBVbo7OycM2fOqlWrdHV17e3tJ0+evHjxYu4K2tranp6eLi4uRUVFnZ2dt2/fDg4Oxs9la2hoBAQEMBiMzMxMFov14sWLefPmVVZWrlq1irsHOp2+bdu2rVu3fuwc5eTk8M2IJAf6XIhxudna2h49enTs2LGDBg1SUVFJTk7m+dD4ZL3wgcnT1cyZM2NjY2/dukXmj+CwWCwZGZns7Oy6urp3797FxsaSj9nKyionJyciIoLJZLJYrLS0tMLCQisrK1dX18jIyLKyMhaLtXHjRjc3N/6PXIQQ/sMdW7ZsSU5Ozs/P72leLBbrzJkzHh4eLBaLTqdLSEi0tbURMfCP9V/eCzabnZaWxnNLg/DJkvxR5a8mZFJ98juuT/BkipA4ktWfn5XB266urvr6+ngbPytTXl5ubm6uoKBgZ2d3+PBhBQWFnJwc7tuo8bbAahwO5+DBg8rKyvr6+lu3bjU1NcVNjh07Nnz48KFDh7q5ub19+5bD4Rw+fFhNTU1KSurnn39WUFDgiVDgXv5OOByOrq7u0qVL8TZxHzGHwzl69KimpiaVSv311187Ojp6ao7NmTNHSUmptra2o6NDRkZmw4YNxEzHjh37888/02g0MzOzvLw8IZGA78rHPitDPKxw4cIFvN3TUYR/PCUlJaWkpGRkZCZMmJCfn8/p4WGRzZs3GxgY4COcw+G8fv2aSqWePn2au053d/e2bdssLCwGDRqkr68fERHBvffkyZNjx44dPHjwiBEjli1bxmQyOf/3IwL3MHbs2I96VobD4YSEhBCfAMIHwpPFjh8/TrJQSkrq7t27HxwXy8/PRwgVFxdzOBw/Pz8jIyNcTvJZGaLEy8vr5MmTeBsh1NnZ2TsfmDyGDx/u6upKvOSfBYY/2aqrq5csWaKkpIRPp/UUjMBnZXJzc+3s7GRkZGg02oQJE27cuIHLjxw5oqmpSafTvby8mpubOXwfudzH/NatW/HDUvzzwhE+ffrUyckJ/62PxYsXs9ls7hh4xuJfW6JmT4tMyMrKUlZW5l9P4ZPlCZt7UO5fOjzVmEymkEn18u+4vrV27Vrhj8gQ4FkZTKSmpgYhVFtbO2LEiC+apJaWluJrUsSVqT5x7969M2fO7NixQ0JCIigo6O3btwcPHuzDeD6Bmpra+fPnjYyMEEIZGRm7d+8m/pIRAITMzExra+u+jgJ83b6BD0wAPiP4XMX6+zXrzw7f/2tjY2NsbFxcXMz/DHV/xmazz507N3DgQJw4AgDAF/VVf2ACAL6Q/v6szGcnISERGhra11F8ovDw8NDQ0OjoaKLE2Nh4zZo1fRgSAOAb9lV/YAIAvpDvLnf8qi1btmzZsmXcJQoKCn17DwAAAAAAvivf3TVrAAAAAADwySB3BAAAAAAAZEHuCAAAAAAAyILcEQAAAAAAkAXPygDwbaJQKJmZmX0dBQAAfDsEflv9dwhyRwC+Tfgv8wEAAACfF1yzBgAAAAAAZEHuCAAAAAAAyILcEQAAAAAAkAW5IwAAAAAAIAtyRwAAAAAAQBbkjgAAAAAAgCzIHQEAAAAAAFnw9x0B+Dbdv3+/ubm5r6MAAIBvB4VCgT+diyB3BOBb1dzcbG1t3ddRAADAtwO+rAuDa9YAAAAAAIAsyB0BAAAAAABZkDsCAAAAAACyIHcEAAAAAABk9d/csaSkxMHBgUaj0el0V1fX8vLy/9Lb3bt3LSws8Pb27dtVVVXr6uqE1Pfw8GAymRkZGdOmTfuogUJCQsaNGycjI6OnpxcREcGzV0NDQ1lZubu7G79sbW0VERERExMTFxeXkJDQ19c/d+7cRw0nMELuyeKJkOkK1+Ru+6WRj41fRkaGg4PD543nO3Hv3j0jIyM6nT5v3rzOzk6EUHx8fHR0NE81fHDu2rWLKLly5crYsWP/4+hf9RHL4xOG7urqEhcX/0LxAABA7+inuWN3d7ejo6OdnV1ZWVlFRYW5ubmrq+t/6VBPT+/AgQN4e+/evTk5OXQ6XUj9q1evstnsjx1lxYoVSUlJ4eHh9fX1hw4d+v3335OSkoi92dnZHA5nwIABt27d4m7V0NDAZrMbGhp8fHxmzpz59u3bjx2XB/dkyU8E1+Ru+6V92iKD/6Kzs9PT03PTpk0vXryor6/fvn07QsjV1fX48eMdHR389Xfs2PHixYsvHdXXcsTy6MOhAQCgD/XT3LGmpqaiomL+/PmysrKSkpKBgYE6Ojrv3r3LyMhwcnKytbWlUCgWFhYPHjzA9ZOSkvT09OTl5T09PVtaWhBCMTEx2traVCrVEIumqgAAIABJREFU19e3s7OzrKxsyZIlCCEfH5/6+nobGxtLS8vk5GTcfM6cOX///Tcxuo+PT2Njo6WlZWNjI4vF8vX1VVFRsbW1xcPxj4VVVFQcO3YsMTHR0NBQUlLSysoqODj42rVrRIWYmBhvb28PD48zZ87wT1lGRsbf35/NZj958oS7PDAwkEajUSiUKVOmNDQ0IIQyMjK8vLwWLVrEYDAQQu3t7d7e3jQazczMLCcnByHEPVk8kdjYWO4m/H0SNe/evYvbIoQiIyO1tLTk5eW9vb3xWVgPDw9XV1cFBQVbW9v79+8TQQp8X3ji5OmNGLGuro5nF//bx9/8Ew4qgBC6evWqtLS0m5ubtLT077//HhsbixASFRV1dHQ8evQof/2lS5cSxwM3IW/H13LEcvfP/0N98uTJ4cOHq6iorFu3TklJCf3fM6b4tDcR9gd7i4iIUFdXV1NT4/6cAQCAr1VNTU1NTU1BQcH7L6ygoACPxSHHwMBg/Pjx8fHxTU1NRGF6ejpCKDw8nM1m79u3b/jw4Z2dnU+ePKFSqSUlJe3t7R4eHitWrHj48KGiouLjx49ra2stLCwOHTqUm5trbm6OO6HRaE1NTaGhofPnz+dwOGw2m0qlPn/+nHt0Go1WX1+Phzt//nxXV9eKFStmzZrFPxbRJDw8fPLkyT1Np7OzU0FB4cmTJ7m5ufLy8p2dnRwO5927dwghPMHW1taQkBApKak3b94QrbKyspSUlKqrq1taWhwcHP766y+8CDIyMmFhYW/evMERHjlyBC+IiooKi8XimSyeCNFEYJ9ETaJtQUEBnU4vKSlpa2vz8PBYtmxZenq6qKhoUlISm81esGDBjBkzhL8v3IPy90aMyL+L/+0TGIy9vT3JY+n7dP36df7CPXv2eHh44O23b9+Kiop2d3dzOJzbt29PnDiRuyY+ON+/fz98+PC4uDgOh3P58uUxY8ZwBB0bRKuv6Igl+uf/oS4pKaHRaPn5+W1tbe7u7mJiYrgJg8Egmtvb2xNDC+8tLy+PSqUWFBRw9wYA6HNr164lWUgQ+Ln6Heqn5x0RQtnZ2Q4ODiEhIXQ63crKirjOq6GhsXDhQjExsaVLl3Z3dxcUFMTGxrq5uenr60tKSgYEBCQkJJw9e9bb21tHR4dOpx87dszY2Ji/fwaD8e+//yKEbt68qa6urq6uLjAMJSUlBoMxYMCAiRMnNjc3849F1KypqVFUVOxpOteuXdPU1NTW1h45ciSFQrl+/Tqxi06nS0tLUyiU/fv3R0dH02g0YpeJiUlRUZGSklJLS4uEhATxNSHKysr+/v64pra2tq+vL14QMTGx/Px8gQEQTXrqk0dCQsKcOXP09fWlpaWDg4PxTKlUqrOzs5iYmLOzc1NTE3d9/veFe1CBvfU0EP/bJ6Q5+Cjv37+XkZHB2zIyMl1dXfjEmI6Ozr179/jrS0lJHTx4cPny5dwnF4W8HV/REUv0z/9DHRcXN3v2bFNTU2lp6U2bNpFZWCG9JSUlzZkzx8TERFpaevPmzWR6AwB8aUFBQcS/wgsBv/77vTKDBg0KDAwMDAxsbm4+cuSIjY1NWVkZQkhNTY2oo6mpWV1dXVFRkZqaamhoiAuHDh1aVVVlamqKXxoYGCCE8vLyePrX0dGRlpYuLCxMSkpyd3fvKQzi24cGDBiAEOIfi8PhiIiIIITk5OSys7O529bX1ycnJ8+bNw8hFBMTk5+fLycnhxBiMplnzpyxtbXF1erq6igUisDROzo6/P39s7KytLS0uK+Pq6ioENs8C1JXVzds2DD+rogmPfXJo7a2llhDNTW12tpaDodjYmKCJysqKspTn/99kZKSIgYV2FtPu/jfviNHjvTUHHyUoUOH4hOKCKGWlhYxMTGcSlKpVBERkffv30tLS/M0sbOzmzBhQlBQkIuLCy4R+G7iA+MrOmKJ/gV+gBA/+NyRE/gPPyG91dbWEr319P+oAIBetm3bNiJT3LZtG+JKGfFLIEQ/Pe+YmJjo6OiItykUSkBAgKWlJT5XV1FRQVSrqKhQUFCg0+lOTk5FRUVFRUV37tw5duwYnU5/9eoVrpOTk5OYmChwFAaDkZqampKS4ubm1lMkOGUk8I+FfzMhhCZPnpyVlVVbW0tUjo+PP3LkCEKoo6MjMTHx0aNHb968efPmTXZ2dmJiIr6NT7iwsDAmk1lcXJyenj5x4kSinPsXIfeCvHz5UuCvOu4mPfXJQ0FBobKykhiCTqeLiIjwrAY3/veFe1CBvfW0i//tE9IcfBRNTc3Hjx/j7dLSUnV1dbyS79+/7+jokJKSEtgqLCwsJiaGODEp5O34io5Yon/+H2o5OTniCSF8RyZG/IUE4k5rMr0pKioSvXHPHQDQt4gcMSgoCBLHj9JPc0crK6ucnJyIiAgmk8lisdLS0goLC62srBBC5eXlx44d6+7uPnToEJvNNjMzc3NzS05Ofvr0aWtrq5+f3/79+93c3CIjI8vLyxsaGvz9/YnfKDwYDMbevXtlZGR0dXX597JYLP5C/rGIXdra2p6eni4uLkVFRZ2dnbdv3w4ODvbz80MIpaWlqaqqEqccTE1NJSUlL1++/MF1YDKZdDpdUlKyqKgoKipK4JOwT548iY6O7u7uPnjwoKioKP/XtPNMREif3DVdXV0jIyPLyspYLNbGjRuFpNcY//vCvben3lgsFv8u/rfvY4MBPZkwYcLr16+vXbvW1dW1Z88eLy8vXP706VMdHZ2eMnI6nb5t27atW7fil0Lejq/oiCXw/1A7OTkdP368uLi4o6MjPDwcV5ORkcnOzq6rq3v37h1+xohkb/h4xr2RvAIOAOgdPJkiJI4k9dPckUajpaWlxcXFDRs2bNiwYbt27UpOTtbU1EQIjR07Nj09nU6nHz58OCEhQVxc3MzMbMeOHfb29qqqqvghGDMzs+DgYDs7O11dXR0dnd9++03gKFZWVq2trQIvWDMYDAsLi8bGRp5y/rG49x46dMjJycnX11dWVnb+/PnBwcGenp4IodjYWGdnZ6KaiIiIo6OjwKeteSxfvjwvL09JSSkgIGD9+vXR0dG5ubk8dezt7WNjY+l0elRUVEJCAs+JFv6J9NQnrkn8hSAzM7OtW7fa29urqamJioriP+YiBP/7wrNu/L3hEZWVlXl28b99HxsM6ImoqGhKSkpAQICmpqa0tHRgYCAuLywsFP73MhcsWEDcNyzk7fiKjlgC/w/1mDFjNmzYYG9vr62tPWrUKFxt9OjRnp6eZmZmw4YNI244IdObiYnJ9u3bGQwGhULhcDjcNzQDAPockS9C4kieSE1NDUKotrZ2xIgRX3Sk0tJSfB0T//tpMjIydu/enZaW9rmiUlNTO3/+vJGR0efq8Pv02d8X8N9lZmZaW1uTrOzg4HD8+PH/8rP5rerq6pKSkoI/RAoAQB/5ufoN67/PynxpbDY7LS1t4MCBkDiC71x+fr6JiQkkjgAAAMj4ynJHY2PjNWvWfJauwsPDQ0ND+b+KDXyCz/i+gN43ePBg4uI14PH/2rv3uCauvH/gJ9xBIGICQe4X5eKKAoVaVwSUpcqSogQtlQrLaml9WrVSrC2rVWu9bLdq1Wqr1aWIbcEqt6oFtt5RUVFQgZaLpRpAQEAgghIuye+P+e08eTIhjoolwuf9h6/k5Mw53zkz0E9nkqClpfXdd98NdhUAABrkObtnDQAs4d4KAMDAwu9VioZ+VgYAAAAANBCyIwAAAACwhewIAAAAAGwhOwIAAAAAW8/Z56wBgCUul3vmzJnBrgIAYOjgcrmDXYJGQHYEGJqYf+sPAADg6eGeNQAAAACwhewIAAAAAGwhOwIAAAAAW8iOAAAAAMAWsiMAAAAAsIXsCAAAAABsITsCAAAAAFv4fkeAoenatWvt7e2DXQUAwNDB5XLx1bkE2RFgqGpvbw8ICBjsKgAAhg78sS4K7lkDAAAAAFvIjgAAAADAFrIjAAAAALCF7AgAAAAAbGludiwrKwsJCeHz+QKBIDw8vLq6+mlGu3Tpkq+vL/V448aNdnZ2jY2NA9KZpcjISIlEojgyU15eXkhIiFLLK6+8oqY8alg1Mz5d1fAIfX19urq6g13F47l8+fKECRMEAsEbb7zR29tLCDl8+HBKSopSt87OTg6Ho6Ojo6urq6enN27cuB9//JHlFE92tivOaGBg4O3tnZ+fT4b3CT80dup5/DEBADU0NDvKZLLQ0NDg4OCqqiqxWOzj4xMeHv40A7q7u+/atYt6vGPHjsLCQoFAMCCdWTp58mRPT4/iyE9McRBqWDUzPuVcMMT09vZGRUWtXbv21q1bzc3NGzduJISEh4d/88033d3dzP4tLS09PT0tLS0xMTHz5s27d+8em1me5mynZmxoaJg3b15kZKRcLh/OJ/yQ3CkAeN5paHasr68Xi8VxcXFmZmb6+vqJiYkuLi4dHR15eXlhYWFBQUFcLtfX1/f69etU/8zMTHd3dwsLi6ioqPv37xNCUlNTx44dy+PxFi5c2NvbW1VV9c477xBCYmJimpubp02b5ufnl5WVRW0eGxv7+eef07MzO9PXHfsrIDExkc/nc7ncGTNmtLS0UD3nz5+/aNEioVAYExPT2trq5+d36dIlamSVm6jU1dUVHR3N5/O9vb0LCwuVyqOGvXPnzqJFi8zNzc3NzVevXq34UlpaGl2GyoVSWXloaKi/vz+PxxMKhceOHfPy8rK3t//3v/9NCOnr61OaS5H6dVBZAE3pkBFCkpOTx4wZY2FhER0dLZFI1Bem8tCon525Lyr3jlnz3r17HRwc7O3tFU+b58LJkycNDQ1FIpGhoeHy5cvT0tIIIdra2qGhodQyqmRiYhIfH9/T01NZWUme5dlOGzlyZFxcXGNj48OHD4fkCZ+XlxcZGRkeHm5paRkUFHTt2jXCOOHpnVK874EfEwAYfPX19fX19cXFxQ+fseLiYmouOTvjx4+fOnXq4cOH29ra6Mbc3FxCyO7du3t6er744gtnZ+fe3t7Kykoej1dWVtbV1RUZGbls2bJffvll9OjRFRUVDQ0Nvr6+e/bsuXLlio+PDzUIn89va2vbsmVLXFycXC7v6enh8Xi///47PQuzs/oCzp8/b2VlVVdXd//+/ZCQkM8++4zqaWJisnXr1qamJmqc5uZmeuT+Npk5c6biIlDT7du3j5rO1tZWKpUqldfc3Hzo0CEvL6979+79/vvvpqamFRUV9EuKZTAXqr8yCCFXrlxpbW11cHDw8vLq7Ow8evSojY2NXC5XORflkevALIDelnnIiouLBQJBWVnZgwcPIiMjlyxZor4wlYdG/ezMfWG2MLe6evUqj8crLi5+8OBBRESEjo4Oy1P6D3b69Glm4/bt26mLeXK5/N69e9ra2jKZTC6XX7hwYfr06Yo9Ozo6CCHUyd/Z2bl582YDA4OmpqZnd7Yrztjc3Lxp0yaqw5A84XNzc7W1tTMzM3t6et58883XXnuNecLTO0VvhR8TgAH0j3/8g2UjTeXv1WFIQ687EkIKCgpCQkI2b94sEAj8/f3PnTtHtTs6Or711ls6OjqLFy+WyWTFxcVpaWkikWjcuHH6+voJCQnp6ek//PBDdHS0i4uLQCBISkqaOHEic3yhUPjTTz8RQvLz8x0cHBwcHFgWxizA09OzpKTEysrq/v37enp69B/zsLa2jo+P5/P5zEH624Rp7NixCxcupKbT0dEpKipi9uHz+a2traWlpXZ2du3t7S4uLoqv0mUwF6q/Ml544YUXXnhh5MiRkydPjomJMTIyCgkJqa2t7evrUzPXI9eBWQC9LfOQpaenx8bGjhs3ztDQcN26dVRnNYWpPDTqZ2fuC7OFuVVmZmZsbKynp6ehoeHHH3/M6qTRGA8fPjQxMaEem5iY9PX1UZeIXFxcLl++zOwvEAgMDQ25XO7OnTtTUlL4fP4zPdsJITweT1dXVyAQrFq1asWKFSr7DIETntrTWbNm6ejozJo1q62tTeUJrwQ/JgADZeXKlfS/6huBSXP/royxsXFiYmJiYmJ7e/u+ffumTZtWVVVFCLG3t6f7ODk51dXVicXiY8eOeXh4UI2jRo2qra318vKino4fP54QcvXqVaXxXVxcDA0Nb9y4kZmZGRERwb4wZgFjxoyJj48/f/78mDFjFG9L2dra9jdId3e3yk0eOV1jY6ONjY1Sn4CAgDfeeCM2Nra1tXX+/PmbN2/W09NjlsFcKKlUqrIMc3Nz6oG2tjb1WEtL65Fz9bdTagqQy+UcDocQwjxk+/bto1vs7e0bGhrkcrmawphrVVdXZ2BgoGZ2f39/pX1h7h1zq4aGBvpvUrH/Xw4NMWrUKOryHiHk/v37Ojo6VJTk8XgcDufhw4eGhoaK/RsbG7lcrmLLI48yE/uznRDS0tLC5XLlcvnZs2fDwsIuXLjA7DMETnhCiKenJ/VYW1ubENLQ0MA84ZV2HD8mAANlw4YNdFLcsGEDUYiM1FNQQ0OvO2ZkZISGhlKPuVxuQkKCn5/f6dOnCSFisZjuJhaLLS0tBQJBWFhYSUlJSUnJxYsXk5KSBALBnTt3qD6FhYUZGRkqZ6HeDJSdnS0SidjXxixg69atEomktLQ0Nzd3+vTp9KvUfxJU6m8T9dPdvn1b5X+ha2trFyxY8Ntvv124cOHs2bPZ2dmKr9JlMBfq888/Z1kGm7keuQ7MAuj/jjIPmaWlZU1NDb0IAoGA7twf5qFRP3tdXZ3SvjD3jrnV6NGjb926xZzxueDk5FRRUUE9Li8vd3BwoFb14cOH3d3dBgYGjxzhmZ7tNA6HExAQMGnSJOqj1kqGwAlP/m+eI4SwOeHxYwIwgOiMuHLlSgTHx6Kh2dHf37+wsHDv3r0SiUQqlebk5Ny4ccPf358QUl1dnZSUJJPJ9uzZ09PT4+3tLRKJsrKybt682dnZuXTp0p07d4pEouTk5Orq6paWlvj4ePp3qxKhULhjxw4TExNXV1f2tTELkEgkAoFAX1+/pKRk//79Kj+vSgiRSqX0Y5abEEIqKytTUlJkMtlXX32lra3N/CvsUqn04MGDkZGRUqlUIBDo6ek9ePCAOSMhhLlQ7Mug9TcXm51iFqD4ktIhCw8PT05Orqqqkkqla9asYZPvmYdG/ezMfWG29Hd2lZaWdnd3r1279pFVaZTAwMC7d++eOnWqr69v+/bt8+fPp9pv3rzp4uLyyNhBWJ+6T3a2KyovLy8sLKQvZSmOPAROeKb+TnjFncKPCcDAUkqKCI5saexnZa5cuRIcHGxiYsLn8wMDA8+ePSuXy3NzcydPnjx37lzqc8dXr16lOiclJTk7O48aNUokEt27d08ul//73/92cnLi8Xh///vfu7u7VX78pbu728TEZPXq1cyp1XxWhllAdXW1j4+PpaVlcHDw119/bWlpWVhYqPRRgNjYWCsrq//85z/UyGw2kf/38wTU91xOmjSptLRUqTxq2Js3b4aFhZmZmVlYWPzP//xPT08P/VJqaqrimEoL9cgy5s+f/+2331KPCSG9vb0SiYQ5F4XNTjGPFE3pkMnl8n379jk5OQkEgvnz57e3t6svTOWhUT87c19U7h2z5q+//tre3t7AwGDu3LmWlpZyjdTfe7qvXLni5eVlZ2cXGxsrlUqpxm+//XbFihWK3RQ/uaLo2Z3t1Iz6+voGBgb6+vqjR4+mPn0yJE94xW70Y6UTnt4p6k40BT8mAAPuH//4h/qPyNDwWRkKp76+nhDS0NDg5ub2TENqeXk5dXOE+vfJ5OXlbdu2LScnZ6Cqsre3P3LkyIQJEwarABgoODRKzpw5ExAQwLJzSEjIN9988zQ/m/BcwI8JwNN4rN+rQ5jmflbmWevp6cnJyTEyMmIfHAGGpKKiIk9PTwRHAABgQ3v58uWEkI6ODpVfrjGAmpubjY2NCSHUv0/G2NjY3d19QD619+WXX65evTopKUnxU4d/ZAEwsHBolNy+fZvlanR2ds6cOVNfX/8ZVwSDDz8mAE+D/e/Voe05u2cNACzh3goAwMDC71WKhn7OGgAAAAA0ELIjAAAAALCF7AgAAAAAbCE7AgAAAABbw/c7egCGNi6Xe+bMmcGuAgBg6OByuYNdgkZAdgQYmph/vhIAAODp4Z41AAAAALCF7AgAAAAAbCE7AgAAAABbyI4AAAAAwBayIwAAAACwhewIAAAAAGwhOwIAAAAAW/h+R4Ch6dq1a+3t7YNdBQDA0MHlcvHVuQTZEWCoam9vDwgIGOwqAACGDvyxLgruWQMAAAAAW8iOAAAAAMAWsiMAAAAAsIXsCAAAAABsaW52LCsrCwkJ4fP5AoEgPDy8urr6aUa7dOmSr68v9Xjjxo12dnaNjY1q+kdGRkokkry8vFdeeYXlFJ2dnRwOR0dHR/e/fHx8CCFeXl7Z2dn9vUoISUtL8/Pz43K57u7uS5cuvX//fn9T9PX16erqsqzniXcEhoOwsLCKigr66c2bN6dPnz5y5MjJkyc/5c8aAAAMbRqaHWUyWWhoaHBwcFVVlVgs9vHxCQ8Pf5oB3d3dd+3aRT3esWNHYWGhQCBQ0//kyZM9PT1PMFFLS0vPf125cuWRr65fv37VqlVr1qy5c+dOdnZ2W1ubr69vV1fXE0yt0hPvCAxV7e3t+/fv/+mnn+gWuVweFRX19ttvNzU1hYeHv/fee4NYHgAAaDgNzY719fVisTguLs7MzExfXz8xMdHFxaWjoyMvLy8sLCwoKIjL5fr6+l6/fp3qn5mZ6e7ubmFhERUVRV23S01NHTt2LI/HW7hwYW9vb1VV1TvvvEMIiYmJaW5unjZtmp+fX1ZWFrV5bGzs559/Ts8eExPT2trq5+fX2toqlUoXLlxoa2sbFBRETcec64ndvn37008/PXbsWHBw8IgRI1xcXFJSUgQCwdatWxW77d2718HBwd7eXrFIpTJUroz6HYHhacWKFfv27dPS+t+f/fz8fA6HM2fOHF1d3RUrVtA/FwAAAEwamh2tra3/9Kc/hYaGpqent7e3a2lpHTp0yNjYmBBy5MiRV199taWl5W9/+1tERERfX19VVVVcXFx6enpNTY1MJlu9evWvv/6akJBw7NixX375paSkJCkpiR45JSXFzMysoKBAJBJRl156e3uPHj2qeF2T6nPu3DkzM7Off/45PDz89u3bEyZM+Oyzz5hzPc1unj171sfHx9XVVbHxjTfeOH78OP20qKgoMTExKyurvLz84sWLVKPKMpgro2ZHnqZseK7t2bMnPz+fx+PRLSUlJRYWFq+//rqTk9OsWbNu3749iOUBAPwxVq5cybIRlGhodiSEFBQUhISEbN68WSAQ+Pv7nzt3jmp3dHR86623dHR0Fi9eLJPJiouL09LSRCLRuHHj9PX1ExIS0tPTf/jhh+joaBcXF4FAkJSUNHHiROb4QqGQyo75+fkODg4ODg4qy7CyshIKhVpaWtOnT29vb2fOpdSfx+PR72g8f/68+ldv3bplZ2en1Mfe3l7xDWeZmZmxsbGenp6GhoYff/wx1aiyDObKqNkRdUsPw0xHR8fRo0dFItH169ddXFzmzZs32BUBADxbVEZUSooqG4FJc/+ujLGxcWJiYmJiYnt7+759+6ZNm1ZVVUUIsbe3p/s4OTnV1dWJxeJjx455eHhQjaNGjaqtrfXy8qKejh8/nhBy9epVpfFdXFwMDQ1v3LiRmZkZERHRXxn0Xx+i7vEx55LL5RwOh+7f0tLC5XL7G03p1d9+++306dNKfWpra21tbemnDQ0NdA10wFVZBnNl6I/jMHcEgMblcr29vamfgvj4+C1btrS1tY0cOXKw6wIAeFY2bNhAJ8UNGzYQhchIPQU1NDRGZGRkhIaGUo+5XG5CQoKfnx8Vs8RiMd1NLBZbWloKBIKwsLCSkpKSkpKLFy8mJSUJBII7d+5QfQoLCzMyMlTOIhQKjx07lp2dLRKJ+qtEKWkx51IMjo9r6tSply9fvnnzpmLjN998ExwcTD8dPXr0rVu3qMf0vqssg7kyanYEgObs7CyTyajHWlpaWlpa2trag1sSAMCzRmfElStXIjg+Fg3NE/7+/oWFhXv37pVIJFKpNCcn58aNG/7+/oSQ6urqpKQkmUy2Z8+enp4eb29vkUiUlZV18+bNzs7OpUuX7ty5UyQSJScnV1dXt7S0xMfH19TUqJxFKBTu2LHDxMRE6R2HFKlUymxkzvU0u+no6JiQkCAUCs+cOSOVSm/duvXGG2/U1NS8//77ijMmJyeXlpZ2d3evXbtWTRnMlVGzIwC0wMDA+vr6vLw8mUy2bdu2qVOnmpiYDHZRAADPnFJSRHBkSUOzI5/Pz8nJOXTokI2NjY2Nzb/+9a+srCwnJydCyOTJk3NzcwUCwddff52enq6rq+vt7b1p06aZM2fa2dm1tbVt2bLF29t73bp1wcHBrq6uLi4ub7/9tspZ/P39Ozs7Vd6wFgqFvr6+ra2tSu3MuZ5yT9euXfvRRx8lJiZaWFiEhIQYGRkVFhYaGhrSHTw9PTdu3CgUCrlcrlwu5/P5/ZXBXBk1OwJA09XVPXLkyEcffWRpaVlSUnLgwIHBrggA4A9C50UER/Y49fX1hJCGhgY3N7dnOlN5eTl1F1XpXupjycvL27ZtW05OzkBVZW9vf+TIkQkTJgzUgINlwFcGnndnzpwJCAgY7CoAAIYO/F6laO5nZZ61np6enJwcIyOjIRAcAQAAAP4Yz1l2nDhx4ocffjggQ+3evXvLli0pKSkDMtqgG8CVAQAAAOjPc5YdLS0tn+aWt6IlS5YsWbJkQIbSBAO4MgAAAAD90dDPygAAAACABkJ2BAAAAAC2kB0BAAAAgC1kRwAAAABg6zn7rAwAsMTlcs+cOTPYVQAADB1cLnewS9AIyI4AQ5Onp+dglwAAAEMQ7lkDAAAAAFvIjgAAAADAFrIjAAA/Npl9AAAgAElEQVQAALCF7AgAAAAAbCE7AgAAAABbyI4AAAAAwBayIwAAAACwhewIAAAAAGwhOwIAAAAAW8iOAAAAAMAWsiMAAAAAsIXsCAAAAABsITsCAAAAAFvIjgAAAADAFrIjAAAAALCF7AgAAAAAbCE7AgAAAABbyI4AAAAAwBayIwAAAACwhewIAAAAAGxpdHY8c+aMv7//yJEjuVxucHBwYWHh049ZVlbG4XA++ugjQsj27dstLS1fffVV9ZucP3+ew+Fs2bLl6WenRERELF++/MlG7uzs5DA0NjZS7dOmTVPThxohLS1t6tSpXC73T3/6U0JCwoMHDx456VOugMrN+/r6OBzOvHnznmYWxaM5UIU9I/RBfyTmygAAAGgOncEuoF91dXWhoaHGxsYLFy5sbW09fPjwX/7yl1u3bpmZmdF9ent7dXQebxcsLCzWrl3r7+9PCNmyZYuent6KFSsGuPRHOXv27L17955mBAcHh9jYWPqpsbExyz4bNmxYtWqVvb39q6++WlVVtXXr1hMnThQWFurq6j5NPYNF8Wiy9wSnzdN7+oMOAACgCTT3uuOlS5c6OzuXLVu2ZcuWpKSkzz77bNy4cZWVldS1oiVLlrz44osjRoyYN29eV1cXIeTChQu+vr7GxsZ//vOfr1y5Qg1y9uxZqtHT0/PEiROEkLt3765du/bkyZONjY0dHR02NjYODg7BwcFaWloNDQ2EkL1793I4nGPHjinVc/v2bT8/P2Nj4+joaJlMRgi5cuXK1KlTTUxMXF1dv/jiC0LI1KlTR44cKZfLz549y+Fw5s+fTwh58803ORzOnTt3qHGmTZvW3Nx8+vTp8PDw/kZWuS+KHBwc1igYMWIEmz5isfiTTz5xc3O7cePG3r17T58+/cEHH1y/fn3Xrl2KG65fv97GxmbEiBFTpkxRvNbLZgUUr+TV1dVxOJz4+HjFwc+fPz9hwgRzc/NPPvlE5XEvLS2dOHEin89/7733ent71a8GfTSpeRcsWDBx4kRq8E2bNgkEAnt7+59++okujHna0JizPHJMNVstXbrUz8/PxMQkLCzswYMHSgdd5R49cmUAAAA0Qn19fX19fXFx8cNnrLi4mJpLzk5RUREhRCAQrFq16ujRo/SG586dI4Roa2u///771H+J169ff+/ePS6X6+np+eWXX7q4uFhZWbW1td29e9fY2NjV1XXr1q2urq6mpqb37t0rLS0lhKxatcrNzY1agcDAwC+//JIQcuDAAblcPm/evBEjRjx8+JCuhJrR2Nh46dKlEyZMIIQcOXKkpaVl1KhRVlZW27dvnzlzJiEkLS1tzZo1hJDy8vKtW7cSQtzc3ORyube3N/WA0tDQYGZm9tJLL929e1flyCr3hd68o6ODEOLo6Lj+v3Jzc+n2wMBANX1SUlIIIV988QU9GnUlLCQkhG45fvw4IWTu3LlfffWVtbW1g4PDY60A1XPz5s1yuby2tpYQsmzZMrqxra1t5MiRo0eP3rBhg6urKyHktddeU1pnbW3tFStWzJo1ixDy+eefq18N+mhS25qZmS1fvtzOzo5a/OXLl+vq6rq7u/d32tCFqZzlkWOq2WrEiBFLlizx8/MjhOzatUvxoKvcSv3KAAAAaA7NzY5yufy7777z8fHR0tIihHA4nKCgoMbGRuq/zX/961/lcrlUKjUyMpowYcI333xDCNm7d29tbe2nn35KCPnxxx/37dtHCDl48KBcLs/Pz1+8eHFFRQWdNuRyOZ/Pp8LWnTt3OBxOdHS0XC63tLSMiIhQLIOaccmSJXK5PCcnhxCydevWpKQkQsiOHTvkcnlTUxOHw5kxY8bZs2cJISkpKa+//rqHh4eWllZzc7Oent4777yjOCA9r8qRVe4LvS2VCxUtXrxYrio7MvusW7eOin2KxZiamrq4uNBPv//+e0LItGnTfvjhh8LCwnPnzvX19bFfAfXZcf/+/VSWksvl1JVdZnakjmxXV5ehoaG3t7f61VDKju+9955cLl+9ejUh5KeffpLL5X/+85+pK8EqTxu6MJWzPHJMNVtRa3Xjxg16BPqgq9xK/coAAABoDs19vyMhJCoqKioq6sGDB1evXt2xY8fhw4c//fRTkUhECPHy8iKE6OnpjR8//vfffxeLxYSQuLg4etvy8nLqUyBOTk6EED8/P+oiUFlZGXOi0aNHT548+T//+U9ZWVlDQ8Ps2bOZfezt7Qkh1LstZTJZTU0NIcTHx4cQwufzHR0dxWLxSy+9NGLEiMuXL1+5cmXx4sXLli07cOBAd3d3UFCQmt1UGlnlvrzyyiuKmwQGBp46dUr96jH7UBPdvn2bbmlvb5dIJC+++CLdMnv27AULFqSmpp46dUpHR+fdd9+dMmUK+xVQX9KtW7cIId7e3oQQX19flX2oI6uvr+/h4dHfkVVaDZqVlRUhRE9PT+mx0uD0aUO3q5zlz3/+s/ox1WxFrdWoUaOotVKsQeVWDx8+fOTKAAAAaALNfb/jt99+6+7uvn//fiMjo6lTp65atYoQ0traSr16/fp1Qkh3d3dZWZmNjY2FhQUh5MSJE3K5XCqVNjQ0LF682NLSkhBCXZoqKCh4//33f/vtt/6mE4lEjY2N27dv19HRCQ0NfWR5NjY2hBDqxnpLS8utW7dsbW11dXWnTp164sSJysrKwMBANze3r7/+WktLKzAwUGlzuVze38gq9+WR9bDh7++vp6e3a9eu+/fvUy3Uda+XX36Z7nPv3r333nvv7t27hw8f9vDw2LJlS3+LpnIFOBwOIaStrY0QcvfuXaVNzM3NCSHXrl0j/z0uTNSr3d3dpaWltra2A7saSqcN3f5kszzuVtRBV7kVm5UBAADQBJp73XHy5Mk1NTXLli3Lz8+3tLTMzs4mhNBXBHNzc1etWlVRUdHZ2Tl//vzQ0FBDQ8N//vOfzc3NX3/99dmzZ2/cuCEUCg0NDT/99NPOzs4vvvji7t27H330EXW1jEkkEi1fvvybb77x9/dX/Ch3f8LCwkaOHPnPf/6Tw+H89NNPMpnsb3/7GyEkKCjo/fffHzFihLu7+wsvvJCSkuLj46M0oLGxcXV1tcoPwRBCVO4L/e7Mp+Hg4LBy5co1a9ZMnDhxxowZN2/ePH78uIeHx9KlS+k+Bw4cSExMTEhI8PT01NXV1dPTMzExoT5FxGYF7O3tORwOdTubOmSKZsyYoa2tvWHDho6OjgMHDqgsMi8vjzqyDx48iImJGdjVUDpt6HaVszxytMfaij7oKrdiszIAAACaQHOvOzo7O+fl5Xl7e2dmZm7fvl1fX/+7774LCwujXo2Li8vJyTl58uS77767dOlSW1vbrKysxsbGv//9762trceOHXNzc7O2ts7OzjYwMFixYsWIESOys7NNTU37m87R0dHT07O3t5f6lMYj8fn8vLw8e3v7Dz74oKKiYvv27VFRUYQQ6va0t7e3trY2dT+XecM6Pj6+q6uL+mAyk8p9YVMSG6tXr/7uu+8sLS2/++672trad999t6CgQF9fX7G2RYsWfffdd3FxcQ8fPkxNTaWukzGpXAFra+uNGzd2dXUdOHAgJiZGaRMnJ6dNmzbV1tZu2rRJKBSqHPYvf/nLDz/8cOrUqffee2/x4sUDuxpKpw3d/mSzPNZW9EFXuRWblQEAANAEnPr6ekJIQ0PDAAYUlcrLy6mbyNS/T+z8+fN+fn6bN29OSEgYoNL+v/j4+G3btt26dYt6sxo8I3V1dVwuV+V3Uj47z+60GUCDsjIAAACPRXPvWf/Bfvzxx+zsbF9fXwTHZ83a2nqwS9BQWBkAANB8mnvP+g82f/58bW3tP+bP0wEAAAA8p56/645TpkxR8yHlJyaRSAZ8TNAcz+i0AQAAGG5w3REAAAAA2NLc647Ud90BAAAAgObQ3Ozo6ek52CUAAAAAwP+Be9YAAAAAwBayIwAAAACwhewIAAAAAGwhOwIAAAAAW8iOAAAAAMAWsiMAAAAAsIXsCAAAAABsITsCAAAAAFvIjgAAAADAFrIjAAAAALCF7AgAAAAAbCE7AgAAAABbyI4AAAAAwBayIwAAAACwhewIAAAAAGwhOwIAAAAAW8iOAAAAAMAWsiMAAAAAsIXsCAAAAABsITsCAAAAAFs6g13AIJNIJHV1dRKJhBBiampqbW1tamo62EUBAAAAaKjhmx0lEsnFgoKKygo7G1sej0cIqSwvP378Z1cX15cmT0aCBAAAAGAaptmxqakpMyPd2ck5Lu5NAwMDur2rq+t8fn7q99+LIiLMzc0HsUIAAAAADTQc3+8okUgyM9InvTgpKDhYMTgSQgwMDIKCg1+aNCkzI526ka2os7OTw+Ho6Ojo6uoaGBh4e3vn5+cTQvLy8kJCQljOnpeX98orr6h8SXF8HR0dHo8XExPz8OFDxT6Ojo7W1tYymUxxk8jISMU+H3zwAYfDKSsrY1kSAAAAAEvDMTteLChwdnKe6OXVX4eJXl7OTs4XCwpUvtrS0tLT09PQ0DBv3rzIyEi5XD6w5VHj9/b2njt3rqioaOfOnfRLBQUFcrlcS0vr3LlzipucOXNGMWJmZmYaGRkNbFUAAAAAZBhmR4lEUlFZMWXqVPXdpkydWlFZwbz0SBs5cmRcXFxjY6PSdcHk5OQxY8ZYWFhER0dTm6empo4dO5bH4y1cuLC3t5fuWVFRYWtrq5QCFbm7uwcEBIjFYrolNTU1Ojo6MjLy4MGDij0DAgJycnKoxzdu3DAzM7OwsFC/gwAAAABPYNhlx7q6OjsbW6Vb1UwGBgZ2NrZ1dXX9dWhpadm9e/fLL7+seIXv2rVrH3744Y8//nj79u2enp5Vq1b9+uuvCQkJx44d++WXX0pKSpKSkqie9fX1oaGhX3zxhZ+fX39TlJaW5uXlCYVC6mlfX9+hQ4diYmLmzZt3+PDhvr4+uufcuXMPHTpEPU5PT58zZ86jlgEAAADgSQy7z8pIJBLqU9WPxOPxJO3tKts5HA51q/rnn39WfCk9PT02NnbcuHGEkHXr1k2bNo3H40VHR7u4uBBCkpKSOjs729ra2tvbQ0JCXnrppdmzZzPHFwgEHA5HJpN1d3cvWLBgxowZVPupU6ecnJzGjh1LCOFyuadPnw4KCqJe+utf//rOO+90dXUZGBikp6dnZ2d/+eWX7NcEAAAAgKVhd92RPNbbEzkcZhv1fsSenp4TJ07Mnj1b8SMpDQ0NdnZ21GN7e/uGhoba2lp7e3uqZfz48ZMmTSKE5OfnBwYGZmdn19bWMsen7oNLpdLCwsKsrKzTp09T7ampqUVFRebm5ubm5rdv31a8bW1kZOTv75+bm1tZWamrq+vs7PwY+wgAAADA2rDLjqZcbktLC5ueLS0tar7lkcPhBAQETJo0ifqoNcXS0rKmpoZ6LBaLBQKBQCC4c+cO1VJYWJiRkUEImT59+rZt21577bWVK1eqKcDHx2f69OnXr18nhHR3d2dkZPz6669NTU1NTU0FBQUZGRmK756cM2fOoUOHcMMaAAAAnqlhlx2tra3FtTVdXV3qu3V1dYlra6ytrdX0KS8vLyws9PDwoFvCw8OTk5OrqqqkUumaNWtEIpFIJEpOTq6urm5paYmPj6eSJfUWyU8++SQrK6uoqEjNFObm5h0dHYSQnJwcOzs7BwcHqt3Ly0tfX//48eN0z9DQ0OPHj6empkZERKjfNQAAAIAnNuyyo6mpqauL63mFi4Uqnc/Pd3VxVXndUSAQGBoaGhgYTJ8+feXKlVOmTKFf8vb2Xr9+/cyZM+3t7bW1tTdu3Ojt7b1u3brg4GBXV1cXF5e3336b7mxpablixYqEhAQ1ZTg7O6enpxNC0tLSZs2aRbdzOJzQ0FDF29bGxsZTpkzp6+tzc3N71BoAAAAAPCFOfX09IaShoeFZZ47y8nJLS0tCCPXvIJJIJGmp3096cVJ/X/F4vbj44qVL86Ki8JcJAQAAABQNu+uOhBBTU9NwUcTFS5dO/Pyz0s3rrq6uEz//fOnyJVFEBIIjAAAAgJLheN2RIpFILhYUVFRW2NnYUt/a09LSIq6tcXVxfWnyZARHAAAAAKbhmx0pEomkrq5OIpEQudyUy7W2tkZqBAAAAOjPsPtucCWmpqYIiwAAAAAsDcf3OwIAAADAk0F2BAAAAAC2kB0BAAAAgC1kRwAAAABgC9kRAAAAANhCdgQAAAAAtpAdAQAAAIAtZEcAAAAAYAvZEQAAAADYQnYEAAAAALaQHQEAAACALWRHAAAAAGAL2REAAAAA2NIZ7AIGmUQiqaurk7S3Ew7H1NTU2tra1NR0sIsCAAAA0FDDNztKJJKLBQUVlRV2NrY8Ho8QUllefvz4z64uri9NnowECQAAAMA0TLNjU1NTZka6s5NzXNybBgYGdHtXV9f5/PzU778XRUSYm5sPYoUAAAAAGmg4vt9RIpFkpKdPenFSUHCwYnAkhBgYGAQFB780aVJmRrpEIlHasLOzk8Ph6Ojo6OrqmpiYTJs27dq1a4SQS5cu+fr69jddZGSk0lB0/7y8vFdeeYVNzcxBmPr6+nR1dfsrWEdHh8fjxcTEPHz4ULGPo6OjtbW1TCZT3CQyMlKxzwcffMDhcMrKytiUCgAAAEPYcMyOFwsKxjg7T/Tyop5mHT68af367Vu2ZB0+TLVM9PJydnK+WFCgcvOWlpaenp6ampqIiIiAgICamhp3d/ddu3b1N93Jkyd7enoUW9T3ZzkIe1TBvb29586dKyoq2rlzJ/1SQUGBXC7X0tI6d+6c4iZnzpxRjJiZmZlGRkZPNjsAAAAMJcMuO0okkorKiilTp1JPN61f//2hQ8UlJecvX/7+0KFN69dT7VOmTq2orFBzqW/kyJGLFy8ODw/funVrVVXVO++8Qwjp6+tbtGiRubm5ubn56tWrCSExMTGtra1+fn5paWnz589ftGiRUCik+xNCurq6oqOj+Xy+t7d3YWEh+b8XI/Py8kJCQuhBGhsbMzMz3d3dLSwsoqKi7t+/TwjZu3evg4ODvb39559/rn7f3d3dAwICxGIx3ZKamhodHR0ZGXnw4EHFngEBATk5OdTjGzdumJmZWVhYsFxhAAAAGMKGXXasq6uzs7GlblVnHT5cXFKi+GpxSQl19dHAwMDOxraurk79aDNmzCgqKqKfZmZmXr58ubKysrCwcPv27ZWVlSkpKWZmZufOnTMzM/vxxx9dXV2Tk5MVRzh+/HhgYGBDQ8OCBQsiIiK6u7uZs9CDSCSSuLi49PT0mpoamUy2evXqoqKixMTErKys8vLyixcvqq+2tLQ0Ly9PKBRST/v6+g4dOhQTEzNv3rzDhw/39fXRPefOnXvo0CHqcXp6+pw5c9SPDAAAAMPEsMuOEomE+lQ1IaSpqYnZ4dfycuoBj8eTtLerH83CwuLOnTv0Uz6f39raWlpaamdn197e7uLiotjZ2to6Pj6ez+crNo4dO3bhwoU6OjqLFy/W0dFRTKJMaWlpIpFo3Lhx+vr6CQkJ6enpmZmZsbGxnp6ehoaGH3/8scqtBAKBoaGhvr6+h4dHQEDAjBkzqPZTp045OTmNHTv2hRde4HK5p0+fpjf561//evLkya6uLkJIenq6SCRSvw4AAAAwTAy77PhIRoaG//uEw1Hf+e7du1ZWVvTTgICAN954IzY2ls/nL126VOkioq2tLXMEe3t7+rGTk1NjY6Piq3K5XPGpWCw+evSoh4eHh4fHggULRo0a1dDQ4OjoSL3q4OCgssjGxsaHDx9KpdLCwsKsrCw6I6amphYVFVF32G/fvq1429rIyMjf3z83N7eyslJXV9fZ2Vn9OgAAAMAwMeyyo6mpaUtLC/VY5bfw0GGupaXlkd/y+J///Mfb25t+Wltbu2DBgt9+++3ChQtnz57Nzs5W7Kytrc0cQfHdh7dv36byJf2p5+vXryt2FggEYWFhJSUlJSUlFy9eTEpKGj169K1bt5hDqeTj4zN9+nRqzO7u7oyMjF9//bWpqampqamgoCAjI6O3t5fuPGfOnEOHDuGGNQAAACgadtnR2tpaXFtD3Y2dPWeOl4eH4qteHh6z58whhHR1dYlra6ytrfsbp6OjY/fu3RkZGe+99x7dePDgwcjISKlUKhAI9PT0Hjx4QLVLpdL+xqHeEymTyb766ittbW1PT08TE5OCgoLGxsaOjo60tDS6p1QqFYlEWVlZN2/e7OzsXLp06c6dO0UiUXJycmlpaXd399q1ax+5++bm5h0dHYSQnJwcOzs7+lKll5eXvr7+8ePH6Z6hoaHHjx9PTU2NiIh45LAAAAAwTAy77Ghqaurq4no+P596mrhqVdTcucGBgcGBgVFz5yauWkW1n8/Pd3VxVXndkXr7oJWV1cGDB0+fPq14J/qtt94yMzMbPXq0m5ubj4/P66+/TggRCoW+vr6tra0q65k5c2ZaWppAINi/f396erqWltakSZOioqK8vb1tbGyCgoKobtQg1tbWmzZtmjlzpp2dXVtb25YtWzw9PTdu3CgUCrlcrlwuV3ozJZOzs3N6ejohJC0tbdasWXQ7h8MJDQ1VvG1tbGw8ZcqUvr4+Nze3Ry0qAAAADBec+vp6QkhDQ8Ozjgjl5eWWlpaEEOrfQSSRSNJSv5/04iT6Kx6VXC8uvnT50mvzovCXCQEAAAAUDbvrjoQQU1PTcFHExUuXTvz8M3XzmtbV1XXi558vXb4ULopAcAQAAABQMhyvO1IkEsnFgoKKygo7G1vqW3taWlrEtTWuLq4vTZ6M4AgAAADANHyzI0UikdTV1VF/P8bU1NTa2hqpEQAAAKA/OoNdwCAzNTVFWAQAAABgaTi+3xEAAAAAngyyIwAAAACwhewIAAAAAGwhOwIAAAAAW8iOAAAAAMAWsiMAAAAAsIXsCAAAAABsITsCAAAAAFvIjgAAAADAFrIjAAAAALCF7AgAAAAAbCE7AgAAAABbyI4AAAAAwBayIwAAAACwhewIAAAAAGwhOwIAAAAAW8iOAAAAAMAWsiMAAAAAsIXsCAAAAABsITsCAAAAAFvIjgAAAADAFrIjAAAAALCF7AgAAAAAbCE7AgAAAABbyI4AAAAAwBayIwAAAACwhewIAAAAAGwhOwIAAAAAWzqDXQAAPBPXrl1rb28f7CoAAIYOLpfr6ek52FUMPmRHgKGpvb09ICBgsKsAABg6zpw5M9glaATcswYAAAAAtpAdAQAAAIAtZEcAAAAAYAvZEQAAAADY0tzsWFZWFhISwufzBQJBeHh4dXX104x26dIlX19f6vHGjRvt7OwaGxvV9I+MjJRIJHl5ea+88srTzPtYBnw6lXu6efPmKVOmmJiYuLu77927l546JCRkYOvs6+vT1dV93Jr7o3gE/0gDOy91Xg3UaE8mKytr7NixpqamAQEBZWVlg1sMAAA8dzQ0O8pkstDQ0ODg4KqqKrFY7OPjEx4e/jQDuru779q1i3q8Y8eOwsJCgUCgpv/Jkyd7enqeZkZNwNzTZcuWZWZm7t69u7m5ec+ePcuXL8/MzBzECtlTPILP77yDfl7dvXs3NjZ27969d+7cefHFF+fMmTOIxQAAwPNIQ7NjfX29WCyOi4szMzPT19dPTEx0cXHp6OjIy8sLCwsLCgricrm+vr7Xr1+n+mdmZrq7u1tYWERFRd2/f58QkpqaOnbsWB6Pt3Dhwt7e3qqqqnfeeYcQEhMT09zcPG3aND8/v6ysLGrz2NjYzz//nJ49JiamtbXVz8+vtbVVKpUuXLjQ1tY2KCiImo45FyUvLy8yMjI8PNzS0jIoKOjatWuK1+eoC3t5eXmhoaH+/v48Hk8oFB47dszLy8ve3v7f//431a2rqys6OprP53t7excWFqrcu7y8vPnz5y9atEgoFCouWnJy8pgxYywsLKKjoyUSCb2n9HVHsViclJSUkZHh4eGhr6/v7++/bt26U6dOKS2+0jjMxaR7VlRU2Nranjt3TnHzvXv3Ojg42NvbKy6p0piPXIfExEQ+n8/lcmfMmNHS0kIIoY8gc50VZ1cqVWmtlMro6+tbtGiRubm5ubn56tWrCSHMFvXzHjhwwNHR0dHRcfXq1Y6OjoqVMIeiz6vGxkbmDvY3mtLRZw77WAoLC93c3AIDA42NjVetWlVRUdHW1va4gwAAwLBWX19fX19fXFz88BkrLi6m5pKzM378+KlTpx4+fLitrY1uzM3NJYTs3r27p6fniy++cHZ27u3trays5PF4ZWVlXV1dkZGRy5Yt++WXX0aPHl1RUdHQ0ODr67tnz54rV674+PhQg/D5/La2ti1btsTFxcnl8p6eHh6P9/vvvyvOzufzm5ubqemOHDnS19e3bNmy119/nTmXYm3a2tqZmZk9PT1vvvnma6+9lpubKxQK6VdnzpxJDXjlypXW1lYHBwcvL6/Ozs6jR4/a2NjQe7dv3z5q72xtbaVSKXPG3NxcExOTrVu3NjU10bMXFxcLBIKysrIHDx5ERkYuWbKE3lO6z+7du19++WWVq02Vp3Ic5mJS+3Xnzh1nZ+fMzEzFca5evcrj8YqLix88eBAREaGjo6NyTPXrcP78eSsrq7q6uvv374eEhHz22WdyuZw+gsx1pmdXWSq9VswyDh065OXlde/evd9//93U1LSiooLZomZearry8nKJRBIYGOjg4KC4FMyh6PNK5Q6qHI159FUOq9Lp06eZjR0dHS0tLdTjkydPOjk59bc5AMDQ9o9//INlI03l79VhSEOvOxJCCgoKQkJCNm/eLBAI/P396Ytbjo6Ob731lo6OzuLFi2UyWXFxcVpamkgkGjdunL6+fkJCQnp6+g8//BAdHe3i4iIQCJKSkiZOnMgcXygU/vTTT4SQ/Px8BwcHBwcHlWVYWVkJhUItLa3p06e3t7cz51LszOPxZs2apaOjM2vWrP4u57zwwgsvvPDCyJEjJ0+eHAUxlTwAAAhjSURBVBMTY2RkFBISUltb29fXRwgZO3bswoULqb3T0dEpKipSOaO1tXV8fDyfz6eHTU9Pj42NHTdunKGh4bp165QKo9TX148ePVr9sjPHUbmY7e3tISEhL7300uzZsxU3z8zMjI2N9fT0NDQ0/Pjjj9XUpmYdPD09S0pKrKys7t+/r6enx/zjKP2ts8pS6bVilsHn81tbW0tLS+3s7Nrb211cXJgtauY9ePBgTEyMq6uriYnJ8uXLlYpUM5TKHVQ5GvPoq6/wkUaMGDFq1ChCSHZ2dlRU1ObNmx9rcwCAoWHlypX0v+obgUlzs6OxsXFiYmJBQUFjY+OsWbOmTZt269YtQoi9vT3dx8nJqa6uTiwWHz161MPDw8PDY8GCBaNGjaqtraW7jR8/ftKkSczxXVxcDA0Nb9y4kZmZGRER0V8Z9F8f0tLSIoQw55LL5YqdORwOIURbW1tpHLqbubk59UBbW5t6TI1MUdq7xsZGlTPa2toqjd/Q0GBnZ0cP0tDQoFgYPXV9fb1iS3Nz8759+9SPo3Ix8/PzAwMDs7Oza2trlTanb7bScVxlbWrWobu7Oz4+fsyYMX//+9+bmpoIQ3/rrLJUeq2YZfj7+7/xxhuxsbF8Pn/p0qXd3d0BAQFKLWrmraurowe0sbFRKlLNUCp3UOVozKPPrJm5Puq1trbOnTv3ww8/PHz48FO+jRgA4Dm1YcMG6gGdFOkH9EvQHw3NjhkZGaGhodRjLpebkJDg5+d3+vRpQohYLKa7icViS0tLgUAQFhZWUlJSUlJy8eLFpKQkgUBw584dqk9hYWFGRobKWah32mVnZ4tEov4qUQx2hBDmXFSYUNmZECKTyagH9Fsz1VPcu9u3b9va2qqckZlNLS0ta2pq6EEEAoFiYZSXX375/PnzDQ0NdMvhw4eVsiNzHJWLOX369G3btr322mtK/382evRoKuIr7gub2hRt3bpVIpGUlpbm5uZOnz6d2YG5zhSVpdJrxSyjrq5uwYIFv/3224ULF86ePUtFYaUWNfMqDkjPS1MzlModVDka8+gza+5/IVXo6emZOXOmpaXljRs3pkyZ8ljbAgAMJYrxEcHxsWhodvT39y8sLNy7d69EIpFKpTk5OTdu3PD39yeEVFdXJyUlyWSyPXv29PT0eHt7i0SirKysmzdvdnZ2Ll26dOfOnSKRKDk5ubq6uqWlJT4+nv5PshKhULhjxw4TExNXV1fmq1KplNnInEvNXpiYmFDXTTs6OtLS0tjseGVlZUpKikwm++qrr7S1tT09PVnOGB4enpycXFVVJZVK16xZozINjx07Nioqavbs2SUlJb29vRcuXFi3bt3SpUvVj6NyMY2MjAghn3zySVZWVlFRkeL6JCcnl5aWdnd3r127ln1tiiQSiUAg0NfXLykp2b9/P/tLa+qPO7OMgwcPRkZGSqVSgUCgp6f34MEDZoua6cLDw1NSUqqrqx88eLBt2zalQNzfUFKpVOUOqhyNefQfq0Km7OxsmUy2efNmmUwmlUpVnuQAAMOEUlJEcGRJQ7Mjn8/Pyck5dOiQjY2NjY3Nv/71r6ysLCcnJ0LI5MmTc3NzBQLB119/nZ6erqur6+3tvWnTppkzZ9rZ2VEfgvH29l63bl1wcLCrq6uLi8vbb7+tchZ/f//Ozk6VN6yFQqGvr29ra6tSO3MuNXsxadKkqKgob29vGxuboKAgNjs+c+bMtLQ0gUCwf//+9PR0LS0tljN6e3uvX79+5syZ9vb22traGzduVNltz549YWFhCxcuNDMzi4uLW7duXVRUlPpx1CympaXlihUrEhIS6BZPT8+NGzcKhUIulyuXy6l3ZLKsjfbuu+9evXrVysoqISHho48+SklJuXLlCpvVU3/cmWW89dZbZmZmo0ePdnNz8/Hxef3115kt6qf76KOP/P39fX19/f39R44cqfiqyqGo8+r1119n7qDK0ZhH/7EqZLp69eqVK1cMFDDfTgoAMHzQeRHBkT0O9Qa4hoYGNze3ZzpTeXm5paUlIYT698nk5eVt27YtJydnoKqyt7c/cuTIhAkTBmpAGD4uX7588ODBTZs26enprVy58t69e1999ZWGjEYIOXPmTEBAwNOMAAAAivB7laKh1x3/AD09PT/++KORkRGCIzwZ6nNU06ZNmzhxYmlpKf25ck0YDQAA4BnRGewCHs/EiRM//PDDARlq9+7dW7ZsSUlJGZDRYBjS09NT/6aFQRwNAADgGXnOsqOlpeXT3PJWtGTJkiVLlgzIUAAAAADDxPC9Zw0AAAAAjwvZEQAAAADYQnYEAAAAALaQHQEAAACArefsszIAwBKXyz1z5sxgVwEAMHRwudzBLkEjIDsCDE3UF0YCAAAMLNyzBgAAAAC2kB0BAAAAgC1kRwAAAABgC9kRAAAAANhCdgQAAAAAtpAdAQAAAIAtZEcAAAAAYAvZEQAAAADYQnYEAAAAALaQHQEAAACALWRHAAAAAGAL2REAAAAA2EJ2BAAAAAC2kB0BAAAAgC1kRwAAAABgC9kRAAAAANhCdgQAAAAAtpAdAQAAAIAtZEcAAAAAYAvZEQAAAADYQnYEAAAAALaQHQEAAACALWRHAAAAAGAL2REAAAAA2EJ2BAAAAAC2kB0BAAAAgC1kRwAAAABgC9kRAAAAANhCdgQAAAAAtpAdAQAAAIAtZEcAAAAAYAvZEQAAAADYQnYEAAAAALaQHQEAAACALWRHAAAAAGAL2REAAAAA2EJ2BAAAAAC2kB0BAAAAgC1kRwAAAABgC9kRAAAAANhCdgQAAAAAtpAdAQAAAIAtZEcAAAAAYAvZEQAAAADYQnYEAAAAALaQHQEAAACALWRHAAAAAGDr/wEXjXf3dLX6mAAAAABJRU5ErkJggg==;" vertex="1" parent="1">
          <mxGeometry x="270" y="240" width="873" height="458" as="geometry" />
        </mxCell>
        <mxCell id="1zfgf45CqlNRc9jVLpBi-2" value="" style="shape=image;verticalLabelPosition=bottom;labelBackgroundColor=default;verticalAlign=top;aspect=fixed;imageAspect=0;image=data:image/png,iVBORw0KGgoAAAANSUhEUgAABN4AAALsCAIAAACz8e3tAAAACXBIWXMAADMZAAAzIAHknoVTAAAgAElEQVR4nOzde1xN2f8/8HV0R5MuOtE91yglmRQq0SRd6EJTg3Gdcc2lIX2I3IWIGDPTyKWJSCqfaaoZoTBJ9KnUSOFDl1Ep6aZ7/f7Yj+/+nN85+5wOMlt5Pf/wOGe39lrvtfbea5/32ftsnMbGRgIAAAAAAADAnj5sBwAAAAAAAACfOqSmAAAAAAAAwDKkpgAAAAAAAMAySbYD+ETJysqyHQIAAAAAAMDHAqkpa7KysmpqatiOAgAAAAAAgE0KCgrGxsZITVlTU1NjZGTEdhQAAAAAAABsys7OJvitKQAAAAAAALAOqSkAAAAAAACwDKkpAAAAAAAAsAypKQAAAAAAALCsm1PT4ODgKVOmDBw40NjYOCwsrHsr7y5z586tra2l3zY0NMjJyR06dIhecv36dSsrKzZCI+3t7QMHDqReHzp0yMDAoKKi4oO2uGjRorq6OtFlkpOT3d3deV+8m/v370+cOHH48OHe3t5tbW3vXA8AAAAAAPQy3ZmabtiwIS4uLiQkpKSk5NixY35+fleuXOnG+rvLjRs3BPOi/fv3P3/+nJV4hPnxxx+vXbumqqr6QVtJTU1tbW39oE1Q2trali5dumnTppycnKqqKt7vAgAAAAAA4BPXbalpcXHxmTNnLly4YGBgICMjM2nSJH9//5SUFOqv4eHho0eP1tTUXLRoUW1t7R9//OHi4jJt2rTBgwe7uromJCSYmZkNHz789OnThJA//vjD3d3d3t6ey+VOnDgxJydHWCVz586dM2eOtra2vb09VezKlSvGxsaamppff/11XV2dYJnFixe/fv3axsaG72rk8uXL165dK9gvf39/dXV1Lpfr5OT06tUrKjwRwQvGIM7onTlzZsyYMYaGht9//z21ZNmyZVVVVU5OTnv27Fm4cCEhpKmpycTE5P79+8IqiY6OHjdunJ6e3urVq6nc+9y5cyYmJsOGDfv222/r6uqSk5MXLVo0d+7cESNGzJw588GDB8uWLXv9+vX06dMvX778zTffrF+/3sPDQ3BFxuZ+/fXXzz//fNiwYUuWLKmvr09OTuatQVBqaqqsrKyTk5OsrOzq1aujo6PFGRkAAAAAAPgUdFtqmpSUZGZmxnuJb9WqVUFBQYSQnJycLVu2XLp0qaCgoLW1dfv27YSQxMTEAwcOPHz48K+//tq+ffv169ePHDmya9cuat34+Hg3N7fS0tK5c+d6enq2t7czVhIbGztv3rwnT54MGTLk4MGDjx8/Xr58+fnz5x8/ftzR0bFjxw7BMidPnhwwYIDg1UhfX9+CgoKYmBjehXfu3ImIiLh3796TJ08kJCTOnj1LLRcRPGMMomVnZ+/YsSMiIiIjI+PevXvUwh9++GHAgAF//PHHhg0bHj58mJqaGhwcPHXq1HHjxjFWUlBQsHnz5gsXLty5c+evv/765ZdfHjx4sH379vPnzz948KCtrY0K78qVK56ennl5eXp6esHBwVQriYmJCgoKCQkJQ4cO/f777xlX5PPkyZM1a9aEh4fn5uZ2dnbu2bOHEELXwBhhYWGhvr4+9XrkyJFPnjzp7OzscnAAAAAAAOBT0G2paVlZmZqaGuOfYmJi5s2bp6+vLycnt3XrVir9Gzt27NixYxUUFMzMzObOndu3b187O7vS0tL29nZCiI6OzpIlSyQlJZcvX97R0ZGdnc1YiZKSkqOjo6SkpKOjY01NTVRU1KxZs/T19WVkZNauXRsbGytYRlj8srKyR48e9fHx4f0Z6pgxY+7fvz9o0KD6+nppaWl6dRHBM8Yg2q+//url5WVoaCgrK+vn58f3VykpqaCgoPXr10dGRvr7+wurJCYm5ssvvxw6dKiqquqxY8cMDAyuXLni5eU1YsQIqlrq5molJaUZM2ZISkrOmDGDbzQGDRq0YsUKZWVlxhX5XL582cnJacSIETIyMitXrqTK0DUwRtjY2Ni/f3/qdf/+/dvb2+vr67scHAAAAAAA+BRIdldFKioq6enpvEuqqqquXLmycOHC8vJyIyMjaqGWllZ5eTkhhH7Yj4SEhIqKCiGkT5//5claWlr0a11d3dLSUsZKjIyMOBwOVQkhpLi4OCEhwdTUlCqmpKQkWEaEqVOnWlpaBgQEODk5UUtaW1s3bNiQlpY2ZMgQ3vtaRQQvGENnZycVgDAVFRWGhoaCHadNnDhRSkrK1tb2s88+E1bJ33//PWbMGOo1dXEyPDycXqKpqUndwGxoaEgFwzvaFA0NDToewRX5lJSUJCUlWVhYUG8VFRV5a2CkqKj44MED6nV9fb2kpCSdqQIAAAAAwCeu21LTadOmbdmypby8nMvlUksuX74cHh6+cOFCLpdbUlJCLSwuLhbnuT7FxcW8r9XU1Bgr4cuvVFVVHR0dQ0JCCCENDQ2FhYUvX74UzMFE2L9//9ixYwcNGkS9PXLkSG1t7f3792VlZalbiLskGIPovJQQwuVyi4qKqNd0H3nFxsb279//8uXLq1atUldXZ6xk4MCBL168oF5nZmaWlpaqqqrStZWUlFDptIhg6IFiXFGwuRkzZlCPMnrz5k1hYWFlZaXoodbR0aEf2lxYWKilpdXlyAAAAAAAwCei227oHTp0qIeHx+zZs3Nzc9va2u7cubNnz56VK1cSQmbOnBkeHv748ePm5uadO3fOmjWry9r++9//njlzpqOj4+eff25tbTU2NhanklmzZl25cuXJkycNDQ0+Pj4nTpwQVn9zczPjclVV1e3bt+/bt496W1dXx+VyZWRkcnNzf/nll5aWli4jFz8GmpOT07lz5x4+fNjS0kI3Taurq/P39z927Njy5cs3b94supJnz569evXqX//6V2lpqaOj47lz5548edLc3Lx37176UrAgvn6Js6KTk1N8fPzTp0/fvHnj6+sbGhraZTcnTZr08uXLmzdvtre3//DDD3PmzOlyFQAAAAAA+ER0538ec+zYMUdHx2XLllG/Ody6dSv1sFZjY+OAgABnZ+fhw4dLSEiIc/nRzMzs999/19LSOnnyZGRkpJSUlDiVGBsb79y509nZediwYa9fvw4MDGSsfMaMGRMnThT2/4UuXryYvr125cqVmZmZurq6mzZt8vPzi4iIyMzMFB25mDHwMjQ09Pf39/Dw0NLS6uzspO5Dpu3YscPFxWXEiBErVqzIy8u7du0aYyVGRkb/+te/XFxcxo8fP3To0MWLFxsZGW3ZssXd3X3MmDESEhJbt25lXNHOzm7KlCm8vzsVZ0UjI6OtW7e6u7sbGBjU1NQwPiqJj4SExLlz57Zs2WJsbCwrK7tu3bouVwEAAAAAgE8Ep7Gxke0Y+P3xxx/Hjh2Li4tjO5APSFZWNiUlhf71LAAAAAAAwKcpOzvbysqq235rCv+MwsJCwZuE+/Xrt3PnTlbiEfTxRwgAAAAAAB+bj/GqaXl5eUFBweTJk9kO5APCVVMAAAAAAADyMV815XK59GN+AQAAAAAAoNfrzscgAQAAAAAAALwDpKYAAAAAAADAMqSmAAAAAAAAwLKP8bemnwgFBYXs7Gy2owAAAAAAAGCTgoIC+Tif0PspkJWVZTsEAAAAAACAjwWumrKjqamJ7RAAAAAAAAA+FvitKQAAAAAAALAMqSkAAAAAAACwDKkpAAAAAAAAsAypKQAAAAAAALAMqSkAAAAAAACwrBue0Jufn//+lQAAAAAAAMAnq3v+8xg1NTVCSFlZGfUCAAAAAAAAQHy4oRcAAAAAAABY1j1XTSlaWlrdWNsnIi8vjxAyefJktgOBXuvVq1dshwAAAAAAIFRLSwvBVVMAAAAAAABgHVJTAAAAAAAAYBlSUwAAAAAAAGAZUlMAAAAAAABgGVJTAAAAAAAAYBlSUwAAAAAAAGDZP5GaXr58ecaMGdra2mPGjPH29v77778JIenp6crKysePH2dcRfRfxSl5+fJlBwcHHR0dCwsLf3//xsZGEZV8/fXXW7duJYTk5+crKyvv2bNH3L59MN988w2Hw8nOzqbe3rhxg8PhbNq0KS8vj8Ph+Pv7C67i5ub23XffvVUrt2/f5nA4QUFBvAtTUlIsLS0HDBigoKBga2ubkZHx/nUKIxhzQ0MDh8PhcDhTpkyhlkRERFBLAgMD3yqSDycyMnLy5MkKCgqjR4/28fF58+aNiMJ0H0VsOwAAAACAT9wHT00PHDiwdOnS8vJyFxcXTU3NyMhIZ2fnurq6D9rooUOHli5dWlpaOmvWLBUVle+//3769Omtra28Zdra2ujXaWlpWVlZhBAVFRVfX19LS8sPGp443N3dCSG//fYb9TYpKYkQMnv2bFVV1YCAABsbG8FVUlNT79+//57tlpaWOjg4FBQULF682M3NLT09fdq0adXV1e9ZrTAiYs7IyGhvbyeEpKenf6DW383u3bs9PT2Li4vnzJkzcODAQ4cOWVhYiNi76D6K2HYAAAAAAJ+4D5uaPnv2LCgoaMyYMbdu3QoODo6Pj9+1a5ekpOTt27d5i2VlZTk4OGhpaX3++eehoaH08ocPH1paWg4bNmzLli3UZ/3Q0FBjY+PBgwebm5snJiYyNlpSUnLw4MFhw4bdvHkzODj4ypUra9asyc3NPXnyJHWJ1dfXd9q0aZqamkuXLm1ubnZ2dq6qqrp9+/a8efMqKysDAwNTU1MZo6JW37Rp04wZM7S0tL766ivqYmxQUJCBgYGGhoa9vf1//vOfbhk6GxsbJSWlhIQE6m1iYqKent64ceMqKioCAgKuXbtGXZwMCAiwt7cPDg6eMmVKZWXljRs3XFxceK9blpaWcjicdevWEUJCQkJ0dHTk5ORGjRp15coVxnbT09MbGhrWrl0bFBQUFhZ24MCBUaNGFRQUEELu3bs3efJkeXn5ESNGhISEUOVTU1PHjx/fv39/Y2Pj5ORk3qpaWlrMzMyUlZUfP35MCPnzzz+pkhYWFvfu3SOE8MbMF4aGhkZDQ0Nubi4h5O7du5qamvSfBHtB9dfb23vSpEny8vLOzs7UZUzG/t68edPAwGDQoEHBwcEcDmfDhg2MsfENL916UVHRzp07R44cmZOTExoaeuPGDV9f3+zs7OPHj1OrrF69+vPPP+/Xr5+np2dTUxNvH+ltxziYwnqxa9cuDQ2Nfv36TZw48W2vYAMAAAAA9BQfNjVNS0trbW1duHChnJwcteSbb765c+fO9OnT6TLV1dXu7u7Pnj3bsmWLjo7Opk2bYmJiqD9dvHhx6tSpZmZmJ06c+Pnnn/Py8jZt2qStrb1jx443b954e3szNvrnn382NzcvWbJEXl6eWkKVvH79OvX21KlTkyZNsrW1vXz58vHjx0+ePDlgwABTU9PDhw+LE1VERMSYMWMMDQ0TExPPnTuXmpq6Z8+ezz//fOfOncXFxYsWLeqWoZOUlJw5c2ZaWlpNTU1ZWVl2dvbs2bMFix0+fLikpERLSysyMlJRUXHChAk//fQTY4U5OTne3t56enoHDhxoaGhYvHgxYzFdXV1CSHBwsL+/f3x8PBWDmZnZq1ev7Ozsnj59unv3bj09PW9v7wsXLrx8+dLBwaGurm7nzp1NTU2urq6811fXrl2bmZkZFRU1dOjQ6urqGTNmtLW1HThwoKqqaubMmTU1NSJiHjJkiKqqalpaWktLS1ZW1oQJE7rsRVhYmImJibGx8b///e/Tp08zlnz9+rWTk1NNTc3q1avpm8AZY+MbXrqVlJSU5ubmlStXfvbZZ9QSX19fQsjvv/9OvT1x4oS1tbWDg0NkZGRQUBBjHxkHk7EXycnJ/v7+FhYWQUFBz58/nzNnDuNWAwAAAADo6SQ/aO2lpaWEEFVVVeqtsrIy9cLX19fKyop6nZCQUF1dvW/fvqVLl7q5uY0YMeLcuXPUb/NsbGy2bdvW3Nysp6d34cIFJyen06dPjxkzprKyUkJCoqqqqrm5WbDRoqIiQgjvdbYBAwbIy8v/97//pd7a2NgEBAS0tLTo6enFxsauX79eQkJCRkZGRUWlsrKyy6i++uqrffv2/fXXX5MnT3727NmAAQMIIVVVVUpKSr/88ktzc3NHR0efPt2Q87u7u586deqPP/5oaGjo7OxkTE2tra3j4uKo1xISErKysgMHDqQucvJRVFS8dOmSiYlJRUWFhIREZWUl4+iNHTs2IiLi8OHDe/bs6ejo4HA4NjY2586di4+Pf/Xq1dGjR1evXu3l5aWqqnrq1Kn6+vr6+vodO3bMmTNn/PjxVLJK1XPhwoWMjIwdO3ZQ96/GxcXV1NSsXLnS3t6+rq7O19c3NTXVycmJjpkvDA6HY2FhcefOHRMTk+bmZnNz86ioKNG9WLRo0dGjRx88eDBmzJgnT544OTkJlqTC2Lt37/Llyw0NDZ2dnYXFpqSkxDe8lGfPnhFCdHR0eAf2s88+e/LkCfXWzs5u//79LS0tioqKFy9e3Lx5M93HiooKqkxcXJzgYFK/QeXrhaKiIiGksrJSWVk5Nja2G/cuAAAAAICPyof9jEtdgissLKTe+vr6rlixgq8Mlb4aGxsTQpSVlbW1tUtKSqg/GRoaEkJkZGRGjRr1999/q6io3Lt3b+LEicuWLevo6BDWKJWU0pUQQmpra+vq6jQ0NHirlZaW1tfXLy8vZ6xERFRU/VTO0NHR4eDg8NVXX927d2/RokV2dnbx8fHdlTlMmzZNQUEhISGBvptXsMzEiRPFrE1VVfXOnTsGBgbz5s0TMXqEEC8vr4yMjLq6utTUVDc3t+Tk5MDAwOLiYkKIqakpIURFRUVXV7eoqIgaEz09PULIpEmTQkJChg8fTlWSkZHB4XBSUlKot9T3BUuXLtXQ0KAuM+bn54sO2Nzc/M6dO3fv3h08eDD9RYOIXmhraxNCqJSyo6ODseTz588JISYmJoQQ+kqsiNgEh5dqhaqHUlNTU1tbS19ZHTt2LCFEWlrawMDgxYsXjF1jHEzGXsyaNWvRokV37tyZM2eOubl5TEwM8lIAAAAA6JU+7MdcCwsLWVnZ0NBQ6mrkxo0bBw0axFdm8ODBhJCcnBxCyKtXr4qKitTV1ak/UT81bGlpefjw4eDBg69fv37s2LHg4OCMjAw6BRJkbm4uLS39888/19fXU0uOHDlCCKGf+JqXl0dVm5+fT7UuSERUfKqrq1esWFFQUHD69OlRo0YdP36cvjz7nqSlpZ2dnRMSEn7//XfGS6aEEAkJCd63nZ2dhBAOh0MIef36NSGEvlKXlJR08ODB0NDQgoICfX19YY3+8ssv+vr6Z86c6du37+TJk7ds2UL1kUrsMzMzCSFVVVXPnj3T1NRUU1Mj/7eZ0tLSNmzYQF88dHd3X7ZsWXJyMvUAJ+rKeXJycmdnZ3Nzc1lZ2apVq3hjFmRhYfHo0aPffvvN3Nyc6pH4vRBWkgqDCpjqi+jY+IaXEGJpaSktLX38+HH6UV7Uc4O/+OIL6i31UOWWlpa8vDz62xC+PjIOJmMvXr16tX79+oqKikuXLhkaGgYFBdEjDAAAAADQm3zYG3oHDRq0adOmgIAAS0vL6dOnl5WVXb9+nbreSJs+fbqCggL1pJmrV692dHR8+eWX1J+uXbu2e/fux48fNzY2fvnll9S1rOTk5Pz8fOpJRYy0tLTWr1+/b98+S0tLGxubp0+fpqSkjBo16ptvvqEew5ucnExV++bNGyrl69ev37Nnz7KysmRlZbuMis+FCxd27ty5cuVKAwMDSUlJaWlp+jeu78/d3T08PJwQIiw15dW/f/+nT5/eu3dPW1ubw+GEhYURQuj7UamEPCEhIS8vj3peEWNOaG5uXlxcvHbt2ps3b6qpqVGrz5o1y8LCYsCAAfv27eNwOL/99ltHR8fXX39tZWUlJycXGBjY0NAQEhJSUVHh7+9fVlZGCJkwYYKHh0dYWJivr6+tra2Dg4OcnNy+ffsqKyt/+umn1NTUnJyckSNH0jFTlxB5mZqaSklJJSYm7t+/n14oZi+ElXRwcJCWlt61a1d1dfWpU6eokoyxCRtkHR2dzZs3b9u2zcjIyM7O7vHjx1evXjU0NPT29qaen5SYmLhly5ZHjx41NDTMnTuXd7vQv7h2dnYWHEzG5sLDw/38/Hx8fIyNjaWkpLp37wIAAAAA+Hh88JsDV69eHRoaqqmpGR0dXVZWdvbsWWtra94CysrKly5d0tTU3L59e2Fh4d69e6n/N4UQYmVlFRsbe+vWrRUrVixZssTJyemzzz6Li4t7+PDhrFmzCCF8T/qlbdiw4ccff1RVVY2Kivr777+//fbbpKQkGRkZ6q/z58+/evXqzZs3v/3222+++YYQsnz58ubmZt4H1YiIis/y5csXLlwYFRW1du3apqam0NBQFRWV9x21/2NnZycvL6+rq8t4Ny+fdevWNTU1hYSEqKur79mzp6mpKTw8fP78+dRf3dzcFBQULl26lJubSz1Nh77blteQIUOSkpJMTExiYmKOHDkiIyMTERHh7OysoqKSlJSkra3t6+v76NGjI0eOeHl5qaurx8XFycrKbty4sV+/fnFxcfTDgQghGhoaS5Ysyc7OjoiI0NTUjI2NLS8vX7hwYXV1dXx8/MiRI3ljFoxEVlbWxMSks7PT3NycXihmL4SV1NTUPHfuXJ8+fQIDA+lsX1hswmzdujUiIkJNTS0iIqKkpGTNmjVpaWn03rV06dKEhIRr166tWbOGev6WYB8ZB5OxrXXr1i1btiwiImLp0qWNjY3nz5+nf7kNAAAAANCbcKj//uR95OfnUzd2SktLd0dIorx69aq5uVnwrmAxpaenz5gxY8eOHStXruzewN4ZdXFv8uTJ/0BbVVVVTU1Nwu5M7inE74VgycrKyidPnujq6qqqqt6/f9/U1DQwMHDjxo3dEtjt27cnTZp08OBBHx+fbqmwu7x69YrtEAAAAAAAhGppaSEf+obebkc9HgbeDf2E5B5N/F4Ilnz8+LG5ubmtrW1ISMiRI0c4HA79pGgAAAAAAGARnvYJn5AJEyYEBQUVFBQYGRmlpaX9+OOPZmZmbAcFAAAAAAA97Ybe3uefvKEXPk24oRcAAAAAPmbUDb24agoAAAAAAAAsQ2oKAAAAAAAALENqCgAAAAAAACzrYU/o7X1Gjx7NdggAAAAAAAAsw1VTAAAAAAAAYBlSUwAAAAAAAGAZUlMAAAAAAABgWXf+1lRJSakbawOAboEDEwAAAAA+ZmVlZQRXTQEAAAAAAIB1SE0BAAAAAACAZUhNAQAAAAAAgGVITQEAAAAAAIBlSE0BAAAAAACAZUhNAQAAAAAAgGVITQEAAAAAAIBlSE0BAAAAAACAZUhNAQAAAAAAgGVITQEAAAAAAIBlSE0BAAAAAACAZUhNAQAAAAAAgGVITQEAAAAAAIBlSE0BAAAAAACAZUhNAQAAAAAAgGVITQEAAAAAAIBlSE0BAAAAAACAZUhNAQAAAAAAgGVITQEAAAAAAIBlSE0BAAAAAACAZUhNAQAAAAAAgGVITQEAAAAAAIBlSE0BAAAAAACAZUhNAQAAAAAAgGVITQEAAAAAAIBlSE0BAAAAAACAZUhNAQAAAAAAgGVITQEAAAAAAIBlSE0BAAAAAACAZUhNAQAAAAAAgGVITQEAAAAAAIBlSE0BAAAAAACAZZKstJqVlcVKuwDvz9jY+N1WxG4PPRF2eAAaDgcAAEHvPDcK4jQ2Nr5nFfn5+WpqaoQQ6l8AAAAAAAAAMZWVlRHc0AsAAAAAAACsQ2oKAAAAAAAALENqCgAAAAAAACxDagoAAAAAAAAsQ2oKAAAAAAAALENqCgAAAAAAACxDagoAAAAAAAAsQ2oKAAAAAAAALENqCgAAAAAAACxDagoAAAAAAAAsQ2oKAAAAAAAALJNkO4ButmrVKrZDgJ7h2LFjbIfQbbDbQ5ewwwPQcDgAkN51IECv0dtSU4IjDcTQ+87l2O1BBOzwADQcDgCkNx4I0Dvghl4AAAAAAABgGVJTAAAAAAAAYBlSUwAAAAAAAGAZUlMAAAAAAABgGVJTAAAAAAAAYBlSU0IIaWho4HA4+/fvp5ckJyebm5u/c4Wenp4bN27kXTJu3LgzZ86kp6ePHz9esLyHh0dtba2YlSclJdnb2/MtzMvLs7e3V1FR4XK5Li4uT58+Fb82JyenLovxRUiNmIeHB28ZX19fDoeTl5cnZtPArm7f7akKJSUlpaSkJCUllZWV58+f39jY2B3B/s+ePXu0tLQSEhIYD6V3xnggMB5rfN7nWGhvb5eSkhIWT5dNw1vh3T/l5eWnTJmSlZXFWFL04Hc5XWP+h4/fP3Y44LxAw3kBQBxITf9n7969z54965aqPD09L168SL8tKirKzc2dOXOmvr7+8ePHBctfu3attbX1nZvr6OhwcHCwtbUtLCwsKioyNTV1cXF559oYMUaYkpLCe4KJiYnp27dv97YLH1o37vaUqqqq1tbWtra2W7duZWZmdvv/anD06NGMjIyJEycyHkpswbHQU1D7Z3FxsZubm5WVVXFx8dvW0OV0jfkfeop/4HDgbQjnBRwjAF1Cavo/q1atWrlypeDymJgYfX19VVVVLy+vurq6yZMnR0VFEUJ++OEHSUnJ+vp6QoiDg0NoaCi9yvTp02tra+/evUvX8MUXXwwYMKCwsJBqIikpae7cucuWLXN0dJw/f351dfWkSZMiIyPp7+fo78b8/PxUVFQUFBTs7OyqqqoYI3/x4kVRUdHSpUsVFRVlZGT8/PyGDx9OBXb69OmhQ4eqqqrOmzeP+mrz/Pnzw4YNU1ZWXrx4cVtbG13Jo0ePNDU1b926JdhlOsLy8nLedq2srBISEqjXOTk5ioqKqqqq1FvBsJOSkjw8PFxcXNTU1KZOnUp9QcvYu/DwcF1dXV1d3a1bt+rq6jJuBd4BFG/zArNu3O356OvrW1lZFRUVMVZImHZFvt1VcJ+ZP39+ZWXllClT0tPT6ZV+tKIAACAASURBVLAFdxjer7qpQ4lvh2Hc8ZqamubNm6eiomJiYpKRkSF6QPj+KuJYEDwGQ0NDdXR0tLW1Dx8+TAcpeOyL2TS8gwEDBqxatcrFxeXQoUNE5AiLmAyFrYX5H/N/z/JBDwc+OC9Qb3FeABAGqen/bN68+dGjR5cuXeJdWFhYuHTp0ujo6OLi4o6Ojq1bt06dOpU6f9+5c6dv374ZGRmdnZ1paWlTp06l15KWlnZzc6O/OI+JiZkzZw5fc1euXBkxYsTp06fPnj2rqKh469YtRUVFvjJ//vnn2bNnc3JySktLJSQkTp06xRi5urr66NGjHRwcoqOja2pq+vTpExUV1b9//6ysrE2bNl25cuX58+etra1btmx5+PChj49PfHz8X3/99eDBg7CwMKqGFy9eODg4hISETJo0SbDLdIRcLpe33dmzZ1PpCiEkOjra3d1ddNjR0dFff/11SUnJ0KFDAwMDGYs9fPjQ19c3MTExJyfn5s2bwrYC7wCK3qwgWjfu9nxyc3OTkpKoU75ghYK7ouDuSgT2GWpXTEtLU1JSolph3GEY0TuMsP3z6tWr1tbWZWVlixYtcnNza2lpETEgfJULOxYEO5WZmenn5xcbG5ufn3/nzp0uN1CXTcM7s7Ozy8zMFDHCIibD2tpaYWth/sf83xN9oMOBD84LBOcFAJGQmv6PrKzsiRMn1qxZw/vDicjISFdX11GjRsnIyPj4+ERHR/N+Rl+8ePGff/75119/KSgo6Onp8dbm6ekZFRXV2dn58uXLjIwMZ2dnvubU1dXXrVunoqIiIiRjY+MHDx4MHjy4rq5OWlq6pqZGWMm0tDR7e/uDBw9yuVxLS0sqwujo6AULFowaNUpOTm7Hjh3R0dEXL16cN2/e8OHDuVxuWFiYkZERIaSmpsbe3n7ChAmzZs1i7LKwRmfMmHHt2rWmpiaqLVdXV9FhKysrz5w5U1JScubMma9fv2YsduHChfnz548YMUJeXv67774TthXEHEDoUvfu9oQQLpcrJycnIyNjaGhoZWVlZ2fHWKHgrii4uxKBfUYwfsYdhhG9wwjbP4cNG7Z48WJJSclVq1ZJSkpmZmaKGBC+yoUdC4KdiomJWbBggbGxsZyc3Pbt27vcQOIfj/C2VFVV//77bxEj/G5/Ipj/Mf/3QB/ucCA4L+C8ACA2SbYD+LjY2tpaW1tv3ryZOkkTQoqKiuLj4w0NDam3SkpKZmZmjx8/fvbsmYSEhKOj46FDh1RVVadNm8ZXlbW1dWtra3p6el5enq2trYKCAl8BTU1NEZF0dnYSQlpaWtatW3f79u2hQ4eKvmGjf//+fn5+fn5+NTU1P//885QpUwoLC8vKysaOHUsV0NbWLisrKykpoZcYGBgQQpKSkm7evLlmzZqTJ0+WlJRoaGgIdpkKRlDfvn0tLS0TExNHjRolJSU1ZMgQarmwsI2NjTkcDiFEQkJCWLHS0lI6Qg0NDeoFY0iiBxDE1427PSGkvLyc2tvv3btnZ2c3b948a2trwQoFd8Wff/6Zb3ft7Ozk22cEMe4wvOi9l95hhO2f2tra9Gs9Pb3y8nJZWVlhA9LZ2UkFRhF2LAgeg2VlZcbGxtQSHR0dEQGL2TS8s4qKisGDB4uY8d72T/R2wfyP+b/H+XCHA8F5AecFALEhNeV36NCh0aNHDx48mHrL5XKdnZ1/+OEHQkhDQ8OjR4+kpaUtLCyCg4MnTJhgZmaWkZGhrKzs4ODAV0+fPn08PDwuXrxYUFDg5eUl2BDjlNrR0UG9yM7OpoKpra3Nzc2VlZX19/cXFvPly5dPnjwZHx9PCFFQUPDx8fn1119v3LihpqZGP9WgqKiIy+Vyudy///6bWpKRkVFcXNyvXz8bG5vg4OCGhobNmzefOXNGsMsi5jt3d/eoqCgDAwP6ThURYffp8/9dpWcsxhszHapgSC9fvhR2ToJ30F27PS9TU1MbG5vs7Gxra2vBCi9fvsy3KwrurhwOh2+fEcS4wxCBQ4nwHHHC9k/650+EkOfPn2tqar58+VLYgAgeFIzHgmCnBg0aRD93irdFwYDFbxreze+//25iYtKvXz/B6YUqIGLwRW8XzP+Y/3ucD3c48MJ5geC8ACASbujlx+Vyd+/evWvXLuqtq6trbGzs48ePGxoavL29qcfKTZ069eTJk+bm5v3799fU1IyNjZ0yZYpgVZ6enpGRkbdu3RLn6fzNzc3y8vJpaWnl5eX19fWRkZGEkNraWi6XKyMj8+DBgzNnzvD+yIGXpaVlRkZGaGhobW1tc3NzQkJCTk6OpaWli4vL6dOnCwsLm5ubt23b5urq6urqevr06adPn1ZVVa1bt46aHKlHxu3cuTM2NjYzM5Oxy1SEgk07ODhcvXr1/Pnzbm5u9EIxw2Ys5uLicvbs2adPn7558yY4OJiabYWFBN2lG3d7XgMHDqQexyJYoeCuKLi7ihM54w4jeCjxErZ/FhQUnD17tqOj48SJExISEvR32MIGhA/jsSDsGMzNzW1paQkICKCKiQgYO/+HUF9f/8MPP1y+fHn9+vUiRljEZNjldsH8j/m/p/gHDgdeOC/gvAAgSuN7+89//vPixYsXL150fgRWrlz5DmtRsyT9tqOjw9zcfMKECdTbsLCwIUOGKCkpubq6vnr1qrOzk/qxQW5ubmdnp7e395gxY4TVPGTIEBcXF/rtvXv3TE1NOzs7ExMTp0+fTi9fsGDB4MGDS0tLV65cOXjwYOqb7+nTpz99+tTU1FRNTc3W1vann35SU1PLyMjgW5eu2dbWVl5eXkVFxdraOjU1lVr+888/6+npcbncuXPn1tTUdHZ2njx5Uk9PT1lZeeHChS0tLYmJiY6OjlThXbt2WVtbM3aZipC6l4ZvxFxcXEaNGkW91tHRyc3N7TJs6jVjsc7OzhMnTqirq48aNWrXrl1jx45l3AqMgyC+d9tPPlofyW5PVfj69Wt6ycGDB4VtwU6BXbFTYHcV3Gc6OztVVFRev35NH0qdTDtMW1sb36HEW5WI/ZP6zyHNzMyobvKuJRi/4DAKHguCners7Pzpp5+0tbVlZWVnz56tpqbWZcDCmhYfdvjO/9tSMjIysrKy8vLy1tbWmZmZ1J9ETC8iJsMutwvmf8z//4CP/HDAeQHnBQAxUekk5/3/4+P8/Hw1NTVCCPUvu1atWoVvj3q0u3fvXrhwYe/evdLS0ps3b3716tWJEye6vZVetp/0su68lX9mh+npetke0su6AzTM/++gl3WnW+C8IA7sOfCxKSsrI7ihFz421N0yU6ZMMTIyys3NFedRdfApww4D0GvgcIZugR0JoOfCY5Dg4yItLR0UFMR2FNBjYIcB6DVwOEO3wI4E0HPhqikAAAAAAACwDKkpAAAAAAAAsAypKQAAAAAAALAMqSkAAAAAAACwDKkpAAAAAAAAsKwXPqF31apVbIcA8E/Dbg+fFOzwADQcDgDQa3AaGxvfs4r8/Hw1NTVCCPUvAAAAAAAAgJjKysoIbugFAAAAAAAA1iE1BQAAAAAAAJYhNQUAAAAAAACWITUFAAAAAAAAliE1BQAAAAAAAJYhNQUAAAAAAACWITUFAAAAAAAAliE1BQAAAAAAAJYhNQUAAAAAAACWITUFAAAAAAAAliE1BQAAAAAAAJYhNQUAAAAAAACWITUFAAAAAAAAliE1BQAAAAAAAJYhNQUAAAAAAACWITUFAAAAAAAAliE1BQAAAAAAAJYhNQUAAAAAAACWITUFAAAAAAAAliE1BQAAAAAAAJYhNQUAAAAAAACWITUFAAAAAAAAliE1BQAAAAAAAJYhNQUAAAAAAACWITUFAAAAAAAAliE1BQAAAAAAAJYhNQUAAAAAAACWITUFAAAAAAAAliE1BQAAAAAAAJYhNQUAAAAAAACWITUFAAAAAAAAliE1BQAAAAAAAJYhNQUAAAAAAACWITUFAAAAAAAAliE1BQAAAAAAAJYhNQUAAAAAAACWITUFAAAAAAAAliE1BQAAAAAAAJaxkJp+8803HA4nOzubenvjxg0Oh7Np06a8vDwOh+Pv7y+4ipub23ffffdWrdy+fZvD4QQFBfEuTElJsbS0HDBggIKCgq2tbUZGxvvXKYxgzA0NDRwOh8PhTJkyhVoSERFBLQkMDHyrSD6cyMjIyZMnKygojB492sfH582bNyIK030Use0A4IOiJxaKpKTk2LFj79+//+FaPHLkiJqa2pw5cz7Qgc8404o5/b7nNNve3s7hcDw9PcUPTBjMpQAAAG+LhdTU3d2dEPLbb79Rb5OSkgghs2fPVlVVDQgIsLGxEVwlNTX1/T9plZaWOjg4FBQULF682M3NLT09fdq0adXV1e9ZrTAiYs7IyGhvbyeEpKenf6DW383u3bs9PT2Li4vnzJkzcODAQ4cOWVhYtLa28pZpa2ujX9N9FLHtAOAfoKOjExAQsG3bttmzZ2dlZX377bcfrq2goCBpaemNGzd+zAc+u9Ms5lIAAIB3wEJqamNjo6SklJCQQL1NTEzU09MbN25cRUVFQEDAtWvXqG+mAwIC7O3tg4ODp0yZUllZeePGDRcXF94vrUtLSzkczrp16wghISEhOjo6cnJyo0aNunLlCmO76enpDQ0Na9euDQoKCgsLO3DgwKhRowoKCggh9+7dmzx5sry8/IgRI0JCQqjyqamp48eP79+/v7GxcXJyMm9VLS0tZmZmysrKjx8/JoT8+eefVEkLC4t79+4RQnhj5gtDQ0OjoaEhNzeXEHL37l1NTU36T4K9oPrr7e09adIkeXl5Z2dn6qt3xv7evHnTwMBg0KBBwcHBHA5nw4YNjLHxDS/delFR0c6dO0eOHJmTkxMaGnrjxg1fX9/s7Ozjx49Tq6xevfrzzz/v16+fp6dnU1MTbx/pbcc4mMJ6sWvXLg0NjX79+k2cOPFtr2ADAC8dHZ1t27YFBAScP39+6NChT58+pZYLzgBEyOQm5pFbXl5eX1+voaGho6PDe+ALzj+M07Xg/CNs9s7NzTUyMlJRUVm/fj1vFiesU7xETLOMs/3t27fHjBkzcODAnTt30ksYzzXixIC5FAAA4N2wkJpKSkrOnDkzLS2tpqamrKwsOzt79uzZgsUOHz5cUlKipaUVGRmpqKg4YcKEn376ibHCnJwcb29vPT29AwcONDQ0LF68mLGYrq4uISQ4ONjf3z8+Pp6KwczM7NWrV3Z2dk+fPt29e7eenp63t/eFCxdevnzp4OBQV1e3c+fOpqYmV1dX3uura9euzczMjIqKGjp0aHV19YwZM9ra2g4cOFBVVTVz5syamhoRMQ8ZMkRVVTUtLa2lpSUrK2vChAld9iIsLMzExMTY2Pjf//736dOnGUu+fv3aycmppqZm9erVx48fp1ZkjI1veOlWUlJSmpubV65c+dlnn1FLfH19CSG///479fbEiRPW1tYODg6RkZFBQUGMfWQcTMZeJCcn+/v7W1hYBAUFPX/+fM6cOYxbDQDeSkFBQUVFBTWxMM4AjJOb+EeutbV1dXV1Wloa77zNOP+IQM8/Iua98PDw6dOnT5o06fDhw8eOHaOXi5jWaMKmWcZu1tTUODo6VlZWrlu3LjIyUpxBFh0D5lIAAIB3I8lKq+7u7qdOnfrjjz8aGho6OzsZU1Nra+u4uDjqtYSEhKys7MCBA6mLnHwUFRUvXbpkYmJSUVEhISFRWVnZ3NwsWGzs2LERERGHDx/es2dPR0cHh8OxsbE5d+5cfHz8q1evjh49unr1ai8vL1VV1VOnTtXX19fX1+/YsWPOnDnjx4+nklWqngsXLmRkZOzYsYO65youLq6mpmblypX29vZ1dXW+vr6pqalOTk50zHxhcDgcCwuLO3fumJiYNDc3m5ubR0VFie7FokWLjh49+uDBgzFjxjx58sTJyUmwJBXG3r17ly9fbmho6OzsLCw2JSUlvuGlPHv2jBCio6PDO7CfffbZkydPqLd2dnb79+9vaWlRVFS8ePHi5s2b6T5WVFRQZeLi4gQHk/rdFF8vFBUVCSGVlZXKysqxsbHNzc0dHR19+uC5XADvgvrRPvV6+PDhp06dIkJmgIqKCsHJ7fbt22IeuQ8fPhw4cKCBgcH169fz8vKoFhnnHxHo+ae4uFjYvGdnZxcYGNjc3KyoqBgeHj5+/HjetgSnXN76hU2zjBNUc3Pz69evd+/evWLFCmNjYwcHhy5HW3QMmEsBAADeDTup6bRp0xQUFBISEt68eUPdzStYZuLEiWLWpqqqeufOnfnz56urq3d0dIgo6eXl5eXl9ebNm/v37x89evTSpUuBgYEKCgqEEFNTU0KIioqKrq5uUVFRSUkJIURPT48QMmnSpEmTJhFCqOw0IyODw+GkpKRQnxKKiooIIUuXLqVbyc/P5/ucxMfc3DwsLMzU1HTw4MH0nWYieqGtrU0IoVLKjo4OxpLPnz8nhJiYmBBC6EsEjLFZWFgQpuGlWqHqodTU1NTW1n7++efU27FjxxJCpKWlDQwM/vvf/zJ2rbi4WHAwGXsxa9asRYsWnT9//vr165KSkmvWrBF/iwMAHx0dnQULFnR0dFy7du3WrVvR0dErVqxgnAGoW0D5JjfqaqE4Ry5j64zzjwj0wS5i3qMmHBkZGUNDQ94JR8wpl3GaZZygqEySCp5OgEUTHQPmUgAAgHfDzher0tLSzs7OCQkJv//+O+MlU0KIhIQE79vOzk5CCHVZ4PXr14QQ+tvlpKSkgwcPhoaGFhQU6OvrC2v0l19+0dfXP3PmTN++fSdPnrxlyxZCSHV1tYaGBiEkMzOTEFJVVfXs2TNNTU01NTVCCPVTpbS0tA0bNtBfeLu7uy9btiw5OZl6gJOqqiohJDk5ubOzs7m5uaysbNWqVbwxC7KwsHj06NFvv/1mbm5OX+gQsxfCSlJhUAFTfREdG9/wEkIsLS2lpaWPHz9eV1dHLaEeaPnFF19Qb6mHKre0tOTl5VGDJthHxsFk7MWrV6/Wr19fUVFx6dIlQ0PDoKAgeoQB4G1RvzXdvn372bNnCSHXr18nQmYAxslN/COXEeP8wzhdU+j5R8S8l5WVRQhpaWnJzc3lDUbEtMaLcZpl7CZ1bwvVHNUF0cF3GQPmUgAAgHfDzlVTQoi7u3t4eDghRFhqyqt///5Pnz69d++etrY2h8MJCwsjhND3o1I3lSUkJOTl5VGP9GDMCc3NzYuLi9euXXvz5k01NTVq9VmzZllYWAwYMGDfvn0cDue3337r6Oj4+uuvrays5OTkAgMDGxoaQkJCKioq/P39y8rKCCETJkzw8PAICwvz9fW1tbV1cHCQk5Pbt29fZWXlTz/9lJqampOTM3LkSDpm6mtvXqamplJSUomJifv376cXitkLYSUdHBykpaV37dpVXV1N3ctHCGGMTdgg6+jobN68edu2bUZGRnZ2do8fP7569aqhoaG3tzf1kI/ExMQtW7Y8evSooaFh7ty5vNtFTk6OqsTZ2VlwMBmbCw8P9/Pz8/HxMTY2lpKSkpaWlpeXFxYbAIipf//+hJD6+noiZAZwdHQUnNzEP3IZMc4/jNM1HxHzXlJSEjXhvHnzZv78+bxtMU65fDUzTrOM3ZwwYYKEhMTu3bvr6+ups1KXwYuOAXMpAADAu2Ht5yh2dnby8vK6urqMd/PyWbduXVNTU0hIiLq6+p49e5qamsLDw+kPK25ubgoKCpcuXcrNzaWeAJGSkiJYyZAhQ5KSkkxMTGJiYo4cOSIjIxMREeHs7KyiopKUlKStre3r6/vo0aMjR454eXmpq6vHxcXJyspu3LixX79+cXFx9AMtCCEaGhpLlizJzs6OiIjQ1NSMjY0tLy9fuHBhdXV1fHw89QGFjlkwEllZWRMTk87OTnNzc3qhmL0QVlJTU/PcuXN9+vQJDAyks31hsQmzdevWiIgINTW1iIiIkpKSNWvWpKWlycjIUH9dunRpQkLCtWvX1qxZ4+3tzdhHxsFkbGvdunXLli2LiIhYunRpY2Pj+fPnqQsRAPA+FBQU+vXr9+effzY0NDDOAIyTm/hHLiPG+YdxuuYjYt6bNm3axYsXr1+/vn79et5rkmJOa4zTLGM39fT09u7dW1JSsnfvXkdHR3GC7zIGzKUAAADvgNPY2PieVeTn51N3iFH/sqKqqqqpqUldXZ2tALqF+L0QLFlZWfnkyRNdXV1VVdX79++bmpoGBgZu3LixWwK7ffv2pEmTDh486OPj0y0VAkBv8j7zz0cye5eWliooKFDXnD8czKUAAACMqLtTWbuht3spKyuzHUI3EL8XgiUfP35sbm5ua2sbEhJy5MgRDodjZWXV3QECADB4n/nnI5m9Wc+NAQAAAM+X7yUmTJgQFBRUUFBgZGSUlpb2448/mpmZsR0UAHwSMP8AAADA++slN/QCAAAAAABAT0Td0IurpgAAAAAAAMAyFn5rSv33cQAAQDM2Nn63FTGjAgAAALve+WMMHxZS0+4KHQAAMKMCAABA74AbegEAAAAAAIBlSE0BAAAAAACAZUhNAQAAAAAAgGVITQEAAAAAAIBlSE0BAAAAAACAZSw8oRfgY5CVlVVTU8N2FCCUgoICnj0L8PHDXAqswDkCoFdCagqfqJqaGisrK7ajAKFSUlLYDgEAuoa5FFiBcwRAr4QbegEAAAAAAIBlSE0BAAAAAACAZUhNAQAAAAAAgGVITQEAAAAAAIBlPTg19fT03LhxI++ScePGnTlzJj09ffz48YLlPTw8amtrxaw8KSnJ3t6eb2FeXp69vb2KigqXy3VxcXn69Kn4tTk5OXVZjC/ChoYGDofj4eHBW8bX15fD4eTl5YnZ9IfwViP5Vvbs2aOlpZWQkMC4Bf8BwnYqIsbWv3v37pgxY7hc7pIlS9ra2v65oAG6AzXhSEpKSklJSUpKKisrz58/v7GxsXtb+UDHOOMcyziN83mfaba9vV1KSkpYPF02TXr1XNpdhA2RmGdVAADoWXp2anrx4kX6bVFRUW5u7syZM/X19Y8fPy5Y/tq1a62tre/cXEdHh4ODg62tbWFhYVFRkampqYuLyzvXxogxwpSUFN5PhzExMX379u3edt/We46kCEePHs3IyJg4cSLjFvwHCNuputz6bW1tXl5eAQEBz549q6ys3LNnzz8eO0A3qKqqam1tbWtru3XrVmZm5rFjx7q3ftaPcUZsTbO9eC7tLh9uiAAA4CPUg1PT6dOn19bW3r17l3obExPzxRdfDBgwoLCwcOXKlYSQpKSkuXPnLlu2zNHRcf78+dXV1ZMmTYqMjKS/aqW/2Pbz81NRUVFQULCzs6uqqmJs7sWLF0VFRUuXLlVUVJSRkfHz8xs+fHh9fT0h5PTp00OHDlVVVZ03bx71/e758+eHDRumrKy8ePFi3gtojx490tTUvHXrFhWwvr6+qqqql5dXXV0dHWF5eTlvu1ZWVgkJCdTrnJwcRUVFVVVV6q1g2ElJSR4eHi4uLmpqalOnTs3KyhLWu/DwcF1dXV1d3a1bt+rq6tJjyBsS7wDS8fDGKdhxmuAI8BUWDHX+/PmVlZVTpkxJT0+ntiBjnLxfllNbkC9Ovl6IsSv9j7CdSsTWp1y7dk1OTs7V1VVOTu67776LjIx8q3YBPjb6+vpWVlZFRUXUW8HDisVjnHFOa2pqmjdvnoqKiomJSUZGBl93RE8LIqZZwVkuNDRUR0dHW1v78OHDdJCCp5Uum+7dcylvVUlJSQ4ODpaWlsrKyo6OjvHx8WPHjtXW1j558iTvKu3t7cuWLRs4cODAgQO3bt3KO0SMJ27RWxwAAHqiHpyaSktLu7m50de4YmJi5syZw1fmypUrI0aMOH369NmzZxUVFW/duqWoqMhX5s8//zx79mxOTk5paamEhMSpU6cYm1NXVx89erSDg0N0dHRNTU2fPn2ioqL69++flZW1adOmK1euPH/+vLW1dcuWLQ8fPvTx8YmPj//rr78ePHgQFhZG1fDixQsHB4eQkJBJkyYVFhYuXbo0Ojq6uLi4o6Nj69atdIRcLpe33dmzZ0dFRVGvo6Oj3d3dRYcdHR399ddfl5SUDB06NDAwkLHYw4cPfX19ExMTc3Jybt68Sa0oGBLvANLx0HG+ePGCr+N0GcEREBwlwVCpmtPS0pSUlOh6BONkRMfJ2AvxCduphG19esX8/PzRo0dTr0ePHl1QUNDZ2flWTfdumzdvFnMhfCRyc3OTkpKoFEXwsGLxGBc29V29etXa2rqsrGzRokVubm4tLS30ul1OC8KmWcFOZWZm+vn5xcbG5ufn37lzp8thFNF0755Lyf9/+vjtt98OHz785MmTvLw8f3//27dvf//99wEBAbzlY2Ji7t69W1BQkJGRceTIkYKCAhEnbiJyi0OPg3MEAFB6cGpKCPH09IyKiurs7Hz58mVGRoazszNfAXV19XXr1qmoqIioxNjY+MGDB4MHD66rq5OWlq6pqRFWMi0tzd7e/uDBg1wu19LSkrr4GR0dvWDBglGjRsnJye3YsSM6OvrixYvz5s0bPnw4l8sNCwszMjIihNTU1Njb20+YMGHWrFmEkMjISFdX11GjRsnIyPj4+ERHRwtrdMaMGdeuXWtqaqLacnV1FR22srLyzJkzJSUlZ86c+fr1a8ZiFy5cmD9//ogRI+Tl5b/77jtqRcaQRAygYMfpPwmOAGNhvlAFm2CMkxEdp/gDK4ywnYpx69MaGxvl5eWp1/Ly8u3t7W97kaEXoz5e8H3IYFwIrONyuXJycjIyMoaGhlZWVnZ2doRpcmDxGBc29Q0bNmzx4sWSkpKrVq2SlJTMzMyk1+1yWhA2zQp2KiYmZsGCBcbGxnJyctu3b+9yPMWZkXrrXMp7+hg3bty4ceMGDBhgbm4+f/78vn372tvbl5SUtLe30+VVVFSqq6tzc3O1tLRqamqGDx8uun4RWxx61wbvOwAAIABJREFUFpwjAIDWs1NTa2vr1tbW9PT0K1eu2NraKigo8BXQ1NQUsTp1XaulpWXdunVDhw5duHDhy5cvRZTv37+/n59fWlpaeXn5zJkzp0yZ8uzZs7KyMi0tLaqAtrZ2WVlZSUmJtrY2tcTAwMDMzIwQcvPmTWtr67i4uJKSEkJIUVHRr7/+amhoaGhouGjRIiUlJWEX2fr27WtpaZmYmFhQUCAlJTVkyBBqubCwjY2NORwOIURCQkJYsdLSUjpmDQ0N6gVjSCIGULDjdBcER4CxMF+oghjj5EW3SMcp/sAKI2ynYtz69FpKSkr0/b11dXWSkpJ0pgq7d++mXtAfMugX9J/gI1FeXt7Y2Njc3JyRkREbG3vjxg3CdFixeIwLm/roeAghenp6vL+M6HJaEDbNCnaqrKyM/gWEjo6OiIDFbJqxld4xl/KePgYOHEi9kJCQoF736cP/8cPKymrJkiULFixQUVHx9vYWdhWUDkPEFoeeBecIAKBJsh3Ae+nTp4+Hh8fFixcLCgq8vLwECzCepzs6OqgX2dnZhJBDhw7V1tbm5ubKysr6+/sLa+vy5csnT56Mj48nhCgoKPj4+Pz66683btxQU1MrLi6myhQVFXG5XC6X+/fff1NLMjIyiouL+/XrZ2NjExwc3NDQsHnz5jNnznC5XGdn5x9++IEQ0tDQ8OjRI+qDBSN3d/eoqCgDAwP6NjMRYfOd7xmL8cZMhyoY0suXL4V90OGrhOo43QXBEWAsLPjRREQTdIVEYAsSng39VgPLiHGnErb1FyxYQBXQ09M7ceIE9To/P19HR+dt2+3ddu/eLfgVOD5zfMxMTU1tbGyys7Otra0FD6vLly+zdYwLm/ron8USQp4/f66pqUknruJMC4zTrGCnBg0aRH8nxduiYMDiN91b51IRpw9GJSUlixYt2rx5c35+/pdffhkXFzd79mwRoQpu8bdqDj4qOEcAAKVnXzUlhHh6ekZGRt66dUuc58g3NzfLy8tTF77q6+upZ9XU1tZyuVwZGZkHDx6cOXNG2De1lpaWGRkZoaGhtbW1zc3NCQkJOTk5lpaWLi4u1M9ympubt23b5urq6urqevr06adPn1ZVVa1bt476QEA973Hnzp2xsbGZmZmurq6xsbGPHz9uaGjw9vamH4PZ3Nws2LSDg8PVq1fPnz/v5uZGLxQzbMZiLi4uZ8+effr06Zs3b4KDg6kPHMJCEjaSgh2n/yo4AiIKi8AYp+AW5PVWvRBGcKcStvXpVaytrSsqKq5fv97e3n7kyJG5c+e+Q7u9G9+HDHzm+PgNHDiQuhdA8LBi8RgXNvVRP03s6Og4ceKEhISEsbExvYo40wLjNCtses/NzW1paaF/Kiki4C6b7t1z6Vu5cOGCh4dHc3Mzl8uVlpZ+8+YNtZzxxE1EbnHoiXCOAADSC1LTzz//vG/fvjY2Nl3eP+no6Dh+/HgdHR0vLy8TExMNDY2pU6cSQtasWXP//v3Bgwf7+Pj4+/ufPXv23r17gqurqKgkJCRERUVpaGhoaGjs378/NjZWT0/PxMRk165d06dP19bWlpCQ2LNnj4mJyY4dO2xtbUeMGDF8+PAVK1bQlaipqW3cuNHHx8fExGTv3r3Tp0/X0tJ6/fp1UFAQHaHgXUn9+/efOHFie3v7yJEj6YVihs1YzMTExN/f39LScvz48ZaWlgMGDCCEMIYkYiTV1dX5Ok4XEBwBwVESvbHoegTjNDMz49uCfKuI2QsRBHcqYVufXkVCQiIuLs7Hx0dPT09OTs7Pz+8d2u316I8a+MzRIwwZMoT6haHgYcXiMS5s6ps+fXpkZCSXyz1z5kx0dDTvhURxpgXGaVawU8bGxnv27HF0dFRQUOjs7KR+SCkiYNFN9/q59K18++23ioqKgwYNGjlypKmp6VdffUWEn7iJyC0OPRTOEQDAef//UT0/P19NTY0QQv0LH7+7d+9euHBh79690tLSmzdvfvXqFX0z6kflg8aZkpJiZWXVXbVBt8MG+hT0lLmop8NcCr0PdjyAXqasrIz0gqum8A6oG5+mTJliZGSUm5srznMmWdFT4gSAd4Nj/J+BcQYAgB6hZz8GCd6NtLT0P3B31vvrKXECwLvBMf7PwDgDAECPgKumAAAAAAAAwDKkpgAAAAAAAMAypKYAAAAAAADAMqSmAAAAAAAAwDKkpgAAAAAAAMAyPKEXPlEKCgopKSlsRwFCKSgosB0CAHQNcymwAucIgF4JqSl8oqj/6A8AAN4H5lIAAOguuKEXAAAAAAAAWIbUFAAAAAAAAFiG1BQAAAAAAABYhtQUAAAAAAAAWIbUFAAAAAAAAFiG1BQAAAAAAABYhtQUAAAAAAAAWIb/1xQ+UVlZWTU1NWxHAUIpKCjg/0sE+PhhLgVW4BwB0CshNYVPVE1NjZWVFdtRgFApKSlshwAAXcNcCqzAOQKgV8INvQAAAAAAAMAypKYAAAAAAADAMqSmAAAAAAAAwDKkpgAAAAAAAMCyHpyaenp6bty4kXfJuHHjzpw5k56ePn78eMHyHh4etbW1YlaelJRkb2/PtzAvL8/e3l5FRYXL5bq4uDx9+lT82pycnLosxhdhQ0MDh8PZv38/vSQ5Odnc3FzMRkFMwnYk8pZb/O7du2PGjOFyuUuWLGlra/uwQfd8r2vr8x4+SruTce16atqdjL8ePmpqamI7qE8aNeFISkpKSUlJSkoqKyvPnz+/sbGxe1vZs2ePlpZWQkIC4yz9zhjnWMZpnA/Vaw8PD96Fvr6+HA4nLy9P9Lrt7e1SUlLC4hGzaczwogk7cYt5VoWeC+cIgE9Tz05NL168SL8tKirKzc2dOXOmvr7+8ePHBctfu3attbX1nZvr6OhwcHCwtbUtLCwsKioyNTV1cXF559oYMUa4d+/eZ8+edW9DwEvYjvRWW7ytre3/sXfvYU1c+f/ATyAQoWBEAuEOAnKzVERYdcsSLrVgSVFApEVB6mV1txaX0m1lUdq6XrattWrtqrUq0u2KYgQtVNN2rawoKorcVC7KKheFKsUEUAICvz/m2/mlmSREQSLwfj0+PpOTM+d8JnOc+MmcmYmNjf3ggw9u3rx57969DRs2DEnsw9XtprvlZSXNzT/LOjt0WL2yzo6fm5vOnLt8r+UXzRuZMmXK0aNH5RMqY2PjwMDAkpISVavg54N+tbS0dHd3P3r0qKCgoLi4ePv27YPb/rZt24qKil588UWlR2ltyc/Pl0/Cs7OzDQ0Nh6ZrHOHVG+AXNwxT+I4AGLWGcWoaGhoqlUovXLhAvczOzn755ZfHjRtXU1Pz5ptvEkLEYvGCBQuWL18uFArj4+NbW1v9/PwyMzPpn1rpH7ZTUlJ4PB6Xyw0JCWlpaVHa3Z07d+rq6pYuXWpiYsLhcFJSUlxcXNrb2wkh6enpzs7O5ubmcXFx1O+7Bw4cmDhxoqmp6eLFi+WPblVVVba2tgUFBVTA7u7u5ubmsbGxbW1tdITNzc3y/a5YsYLaHAXMmMVicVhYmL+/v6mpqVAozMvLmzJlir29/Z49e+iPSL7HgXz4I4mqgaRmjzOdPHnSwMAgMjLSwMDgnXfeyczMHMItGGYk0vYb16tMxpu98LwHYelShSam5s+7O5VVVD/Z7+JUQlVfXx8VFSUQCOrr65l18PPBY3F3dxcIBHV1ddRL5tGDeZRTOBKKxeKYmJiIiAgLC4vg4OCSkpL4+Ph79+4FBgaeP3+ePqx9/fXXEyZMmDBhQlpa2oQJE8hvT4hRR2n5gzlRccTu7OyMi4vj8Xje3t5FRUUKm6P+6CcQCI4fP04tl5WVmZiYmJubUy+Zh/fdu3c7ODjY29t/9tlndJDMrxUNux5JR3j53dRvtEw9PT3Lly83MzMzMzNLS0sjhKj/4la/x2H4wncEwGg2jFNTfX39qKgo+nxXdnb2vHnzFOocO3bM1dU1PT09IyPDxMSkoKDAxMREoc7Zs2czMjLKysoaGxt1dXX37duntDtra+tJkyaFhYWJRCKJRKKjo5OVlWVkZFRSUrJq1apjx47dunWru7t79erV165dS05OzsvLu3r1anl5+d69e6kW7ty5ExYW9vnnn/v5+dXU1CxdulQkEtXX1/f29qalpdER8vl8+X5TU1OrqqoOHz6sSczffffdZ599duPGjStXrqxZs+bMmTP//Oc/P/jgA0IIs8cn+MxHJFUDSdUeV9pIZWXlpEmTqOVJkyZVV1f39fUNTfzDTkNDY8+jR4+6Ow0Mn3NxcWGxdEzNLCd7urd1dOr0yWr/d+uJWx43btyKFSsiIiI2b95M/VJ+6dIl+l38fPBYKioqxGIxlQoyjx7MoxzzSEgIEYlECxcubGhocHZ2/uijj6ijXGFh4fjx46lerl279t577504caKsrOz06dNq4qEP5qqOfj/++GNAQEBTU9OiRYuioqK6urrodfs9+kVHR2dlZVHLIpFo7ty51DJzo4qLi1NSUnJyciorK8+dO9fvx9hv1yPsCE/vJvXRKpWdnX3hwoXq6uqioqKtW7dWV1er+eImavc4DGv4jgAYzYZxakoIef3117Oysvr6+u7evVtUVBQeHq5QwdraOikpicfjqWnEy8urvLzcysqqra1NX19fIpGoqllYWDhr1qxNmzbx+Xx/f3/q5KdIJEpISPDw8DAwMFi7dq1IJDp06FBcXJyLiwufz9+7d+/kyZMJIRKJZNasWdOnT58zZw4hJDMzMzIy0sPDg8PhJCcni0QiVZ2OGTNmx44dK1eulL/eRlXMU6dOnTp16rhx42bMmBEfH29oaDhr1qyGhoaenh7NexyFVA0kpXtcqYcPHxobG1PLxsbGPT09OC+tSuv9+4SQ+62tVVVVZmambh7Pe05yvV5b11BXS0hfa+v9AbYfEhJSXFxsYGBw6tQpV1dXuhw/H2iCz+cbGBhwOBxPT0+BQBASEkKUHa+YRznmkZAQYmpqOnv2bDabPXv27Pv3lezZgwcPxsfHu7q6Ghsbv/POO2oCow/mqo5+EydOXLx4MZvNXrFiBZvNLi4uptft9+j3yiuvnDx5kjobIxKJIiMjqXLmRmVnZyckJHh5eRkYGHz44Yf9fp79dj3CjvDy37lqolW6Lo/Ha21traiosLOzk0gkLi4u6vtSs8dhWMN3BMBoxtZ2AAMSEBDQ3d19/vz5K1euzJw5k8vlKlSwtbVVszp10Onq6kpKSjpz5oyzs7P6dMLIyCglJSUlJUUikXz11VeBgYE1NTVNTU1TpkyhKtjb2zc1NTU0NNAlzz//PCFELBafPn165cqVe/bsaWhosLGxqaury8vL8/T0pKqNHz9ezRFw5syZAQEBqampVFqrJmYzMzNqQVdXl1rW0fm/Xx+U9shisdRs7+ihaiAp3eMODg7MFsaPH0/P9W1ra2Oz2XSmCgp6fp3iLpW01jfccXSwvdtyv6Huf1ThwC/vMTc3v337to6OjkAgkC9X+vPB2LFjB9jdCNPc3EyN/4sXL4aEhMTFxQUEBDCPHsyj3FdffaVwJOzr6/Py8qIOMrq6ukq7a2xspNeysbFhVqAPjPTBXNXRz97enl52dHRsbm4eM2YM9bLfo5+hoaG/v/+JEyc8PDz09PScnJyocubhvampycvLiypReihQOJJrcuAdSUd4+e9cNdEqJRAIlixZkpCQ0NraumDBgk2bNunr6zOr0Z8wc48PPH54FuA7AmA0G96pqY6OTkxMzKFDh6qrq2NjY5kVlP5/qLe3l1ooLS0lhGzevFkqlVZUVIwZM2bNmjWq+jpy5MiePXvy8vIIIVwuNzk5OTc399SpUxYWFvRFC3V1dXw+n8/n3759myopKiqqr69/7rnngoKCtmzZ0tHRkZqaun//fj6fHx4evnPnTkJIR0dHVVWV+v9DbN68edKkSVZWVvRLTWKW97g9jipKB5KqPZ6QkMBswdHRcceOHdRyZWWlg4MDPl5V9PTYXbJuQoi5hY2jg+2t+tvWlnwn54nXr19nkV5d9kAPSj///DP9L0Uefj54LD4+PkFBQaWlpQEBAcyjx5EjRxSOcswjIYvFUp+KEELk16IbJIyjNJE7mKs6+tGXxRJCbt26ZWtre/fuXeqlJke/uXPnZmVlPf/88/RsXoXwqI2ytLSk71ok3yMzYM27JiPoCK/qNwhNNDQ0LFq0KDU1tbKy8rXXXjt69Gh0dDT9LvMTZu7xJ+4anin4jgAYzYb3hF5CyOuvv56ZmVlQUKDJfeRlMpmxsXFhYWFzc3N7ezt1IYFUKuXz+RwOp7y8fP/+/aquV/H39y8qKtq9e7dUKpXJZMePHy8rK/P394+IiEhPT6+pqZHJZO+//35kZGRkZGR6enptbW1LS0tSUhL1Pxvqfo9///vfc3JyiouLIyMjc3Jyrl+/3tHRkZiYSN8GUyaTKe2dz+evX79+3bp11EsNY5anqkegMAeSqj2udPWAgICff/75p59+6unp2bp164IFC4Yw9mFm3DgTQgjf0tbd1bmyuvZ/N6qvXqs0NTV1mejcS3RNxo0bYPvff/+9t7c3s9zR0bGqqopaxs8HmjAzM6P+o8Y8ejCPcswjoSZdREREZGRk1NbWPnjwYMuWLdQeYR6l5ak6+lGXJvb29u7YsUNXV5c+t6k0fmYkYWFhP/7444EDB6KiouTDU3p4r6io6Orqoi+bVBOwhgdeHOEJIQcPHoyJiZHJZHw+X19f/8GDB1S50i9uonaPw7CG7wiA0WzYp6a/+93vDA0Ng4KC+v1xSygU+vr6Ojg4xMbGent729jYBAcHE0JWrlx56dIlKyur5OTkNWvWZGRkXLx4kbk6j8c7fvx4VlaWjY2NjY3Nxx9/nJOT4+jo6O3tvW7dutDQUHt7e11d3Q0bNnh7e69du3bmzJmurq4uLi5//vOf6UYsLCzefffd5ORkb2/vjRs3hoaG2tnZ3b9//9NPP6UjVDUr6Y9//CN12armMctT2iPQmANJ1R5Xurquru7Ro0eTk5MdHR0NDAxSUlKGMPZhxsraSpfN7ul+eK3qetPtOkLILy13b/6vtuOhTI/NsrGxfuKW29vbd+7ceeTIkbfffru3t/fMmTPyd1TGzwePy8nJibpkkXn0YB7lmEdCTbrw9vZes2aNv7+/r6+vv7//uHHjCCHTpk1TOErLU3X0Cw0NzczM5PP5+/fvF4lE8idsNTn6GRkZvfjiiz09PW5ubvIrKmyUl5fXhg0bhEIhl8vt6+ujLqpUE7DmB14c4ZctW2ZiYmJpaenm5ubj4zN//nyi+oubqN3jMKzhOwJgNGMN/InqlZWVFhYWhBDqb4BhIT8/X+E6Exgyt5vu3rhe1fPbS4Z02WwnZ1cri/+7Pq3fHTRlypQPPvjgpZdeMjIy4nA4LBZLT09v6tSpmzdvnjJlSkdHh5GR0cWLF6dOnUqvcunSpaVLl7a0tAQFBe3atUvplWwwlC5cuHDw4MGNGzfq6+unpqb+8ssv9MR4GC5wLIVBh+8IgFGoqamJDPdrTQGGWGVl5datWxUKn3vuuU2bNmklnmHKysLsOUODxsbbEonk4cOHBgYGY7ljra2tx41V/mwepS5fvkwtKL2F2HPPPccsnzp1Km7j+Uzx8vI6ePBgYGBge3u7g4PD7t27tR0RPHU4ikK/8B0BMGohNQV4DG5ubjirMyi4Y424Y/t5OASMePr6+sNx6ikMBI6ioAl8RwCMTrg2AwAAAAAAALQMqSkAAAAAAABoGVJTAAAAAAAA0DKkpgAAAAAAAKBluA0SjFJcLjc/P1/bUYBKXC5X2yEAQP9wLAWtwHcEwIiE1BRGKS8vL22HAAAw7OFYCgAAgwUTegEAAAAAAEDLkJoCAAAAAACAliE1BQAAAAAAAC1DagoAAAAAAABahtQUAAAAAAAAtAypKQAAAAAAAGgZUlMAAAAAAADQMjzXFAAAAJ5QSUmJRCLRdhQw6nC5XDxTF2DkQWoKAAAAT0gikQgEAm1HAaNOfn6+tkMAgMGHCb0AAAAAAACgZUhNAQAAAAAAQMuQmgIAAAAAAICWITUFAAAAAAAALRs5qalMJmtsbFD6RyqVajs6eNZh/ABcuXJl1qxZPB6Pz+dHRETU1tYSQsRi8auvvtrvujExMQr/Unp6evT09AY3QmYv8Gzq6OhgsVgff/wxXfKf//xnxowZquor7FlqdTabraenx2azTU1N4+PjHz58OJCQzp8/7+vr+1irPI0xDAAAaoyEO/TKZLK83NzG241q6lhbWYcJhRwOZ8iiguEC4weAENLb2xsWFpaYmPjvf//b0NBw06ZNERERpaWlGq5+8uTJ7u7upxrhkPUCg2Xjxo3z5s1zcHDot6bSPdvS0sLlcgkh165di46O3r59+1//+tcnDsbd3f2LL7544tUBAGAIjISzpnm5uQ8ePJgZ/NJbbyUq/TMz+KUHDx7k5eZqO1J4FmH8ABBC7ty5U1dXt3TpUhMTEw6Hk5KS4uLi0t7eTgiRyWSLFy+2tbUNDg4uLS2VP48qFotnzZoVHx/f2trq5+fX3Ny8e/duBwcHe3v7zz77jG48PT3d2dnZ3Nw8Li5OKpX+4Q9/yMrKIoTs3LmTzWZTvYSFhe3evVssFsfExERERFhYWAQHB5eUlNCN0L34+fnl5ORQhQkJCZ999plYLA4PDw8ODuZyub6+vnRGnZ2d7e7ubm5uHhsb29bWNiQfJPx/K1asePPNN5nlCuNBfvwobcfd3V0gENTV1VEvmbv1X//6l5OTk62t7erVq62srMhvz/ZTo7SmpoYKRiwWL1iwYPny5UKhUGlrSscwAAAMgZGQmjbebvSZOtXNw0NVBTcPD5+pUxtvN8pkMvlyasqQ/LPCt27dGhER8WRhKJ0LR/qbgfbE89M2bdr04osvGhsbu7u77969myrUcOrdk6G+3Z9S41r0jIwfomKfakiTgaRqD2IsASHE2tp60qRJYWFhIpFIIpHo6OhkZWUZGRkRQn744YeIiIhbt2698MILn3zyCXPdjIwMExOTgoKCxsbGlJSUnJycysrKc+fOUe+WlJSsWrXq2LFjt27d6u7uXr16dXBwcEFBASHk3LlzhoaGRUVFfX19hYWFwcHBhBCRSLRw4cKGhgZnZ+ePPvqI2UtkZOR3331HCHn06FFubi71j+7bb7+dN29eS0vLwoULo6Kienp6ampqli5dKhKJ6uvre3t709LSnv6nCL+RmppaVVV1+PBh+ULmeKD3LJ/PV9pORUWFWCymMknmbr169WpSUtLhw4erq6srKyvv3r3bb2DHjh1zdXVNT09ntlZcXMwcw/C0paamalgIACPbSEhNCSH6nDHqK1CJx717/X9jPRlqLtzMmTNramrq6up8fHzoFEX9DLQnm5/2l7/8JTs7e+fOnffu3du1a9c777yTnZ395NGPelofP2TA+/SJJzpiLAGtsLBw1qxZmzZt4vP5/v7+VPZICLGyshIKhTo6OkFBQfK/xTBlZ2cnJCR4eXkZGBh8+OGHVKFIJEpISPDw8DAwMFi7dq1IJJJPTRcvXnz27NmrV69yuVxHR0dCiKmp6ezZs9ls9uzZs+/fv8/sRSgUUqnp6dOnHRwcqPmiEyZMWLZsGZvNXrFiRW9v7+XLlzMzMyMjIz08PDgcTnJyskgkGswPCzQwZsyYHTt2rFy5Uv6HM+Z4ULU6n883MDDgcDienp4CgSAkJIQQwtytWVlZCxcunDJlioGBwQcffKBJYNbW1klJSTwej9ma0jEMTxWVgiokokoLAWDEGyGp6dOQkpLC4/G4XG5ISEhLSwshpKenZ/ny5WZmZmZmZgo/wKuaCyc/T4nZIP1uZmamwtQjNX3V1dXt3bv3yJEjnp6eHA7H399/7dq1P/30E/WuwtQ7pRvCnDKndBId5sINxGONH/X7VGHyG3NnyQ8k+YlqCisyg8RYAnlGRkYpKSmFhYXNzc2zZ88ODAy8efMmIcTLy4uqoKOj+JXR19cn/7KpqWnChAnUMn2FYVNTk52dHbVsb2/f1NQ0bdq069ev37x5U1dXVygUnj179uzZsy+99BJVx8vLi8ViEUJ0dXWVxuni4mJgYFBWVpadnR0VFUW3TFdwdHRsbGysq6vLzc319PT09PRctGjR+PHjFaKFITBz5syAgAD5BIM5HlTtl+bm5ocPH8pksqKiopycnFOnThFCmLu1oaGBHnW2trbMdpjt09WYrSkdw/BUrV+/nlqgxwm9QL8FAKMEUlPlzp49m5GRUVZW1tjYqKuru2/fPkJIdnb2hQsXqquri4qKtm7dWl1dTddXNReOnqd048YNZoP0uyYmJgoBqOnr+PHjM2bMkJ/4tHLlym3btlHLClPvlG4IUTZlTqEEc+EG4nHHj5p9ypz8Rhg7S34g0RPVlK6oAGMJaEeOHAkLC6OWuVxucnKyn58flQwwM9Le3l5qQeE+SZaWllQ2Swihrwy0sLCor6+nC/l8vr6+/u9///stW7ZMnz592rRpRUVFp0+fplNTZndMQqEwLy/v6NGjkZGRCt1RyxYWFnw+Pzw8vLy8vLy8/Ny5c3v37qUyXhhimzdvPnDgwIULF6iXzPHQ737x8fEJCgqiBhtzt5qZmdGjrqioiF5L1Sglcr96MFtTOobhaZPPTpGXAoxmSE2Jqamp3q/efvttqtDLy6u8vNzKyqqtrU1fX5+aw8bj8VpbWysqKuzs7CQSiYuLi3w7qubCqWlQDTV93blzx9LSUtWKClPvVPXLnDKnUIK5cBoalPGjZp8qnfymZsYjPVFNk1lzGEtA8/f3Lyoq2r17t1Qqlclkx48fLysr8/f3Z9Y0Njamzqy2t7dnZmbS5TKZLDIyMj09vaKioquri55aGRERQV3UJ5PJ3n//fSqZDA4O3rNnz4wZM4yMjGxtbXNycgIDAzWJk7rkWygUbtu2zdiD7J2IAAAgAElEQVTY2NXVlSqvra3du3dvb2/vrl27uru7vb29IyMjc3Jyrl+/3tHRkZiYuH379oF9QvCE+Hz++vXr161bR71UOh7Ir3tWFTMzM+p2WczdGh4evm/fPmrU7dy5k6qvapQqYLamdAzDEFBIRJGXAoxOSE1JS0tL9682b95MFXZ1dSUlJTk7O7/xxhv0PRUEAsGSJUsSEhJ4PF5iYmJXV5d8O6rmwqlpUClq6pGavszMzO7cuSO/yr1797766itqWWHqnap+mVPmFEowF05DgzJ+1OxTpZPf1Mx4pCeqaTJrDmMJaDwe7/jx41lZWTY2NjY2Nh9//HFOTg518aeCadOmxcbGent729jYUDcuIoQIhUJfX19LS8sNGzYIhUIul9vX18fj8Qgh3t7e69atCw0Ntbe319XV3bBhAyEkODi4vb2detCln5/fhAkTzM3N+w2S6qW5udnf37+jo4OezUsImTFjxokTJ/h8/pdffikSifT09Ly9vTdu3BgaGmpnZ3f//v1PP/10UD4oeAJ//OMfJ0+eTC0rHQ/0nlXVgpOTE/WrFnO3Tp8+PS0tLTQ0dOLEib/73e+o+kpHKROzNS8vL+YYhqFBp6PISwFGrZHwXNOnYfPmzVKptKKiYsyYMWvWrKEKGxoaFi1alJqaWllZ+dprrx09ejQ6Opp668iRI3v27MnLyyO/zoXLzc09depUQkKCmgblKUw9UtPXyy+//N577zU1NVlYWFAlhw8fTk9PX7JkCWHMhVPVL3PKnEIJNc2J+gW6o6OjqqpKk9seAuVxx4+afap08puaGY90fqjJrDmMJZA3derU77//XqEwJCSEuv0MISQsLIya9Lt9+3aFk5D0BO+lS5cuXbpUoZHFixcvXrxYvmTKlCn0LxRbt25V2p38skIvhBATExP51JTL5R46dEih3zfeeOONN95QsbnwFD333HPyv0CxWKyzZ8/SL5njQX7PMlcnhCQnJycnJ1PLzN2amJiYmJhICOnp6aGmg+rq6jJHKTXdV2FcMVtTOoZhaCApBRjlcNZUOalUyufzORxOeXn5/v37qRNcBw8ejImJkclk1LVSDx48oOurnwsnk8mUNki/y5x6pKaviRMnxsbGzpkzp7y8/NGjR2fPnl27di31razhhmgCc+EG4nHHj5p9qmryG5PCdDhNVsRYguGou7v72LFjhoaGL7zwgrZjAQAAgEGD1FS5lStXXrp0ycrKKjk5ec2aNRkZGRcvXly2bJmJiYmlpaWbm5uPj8/8+fPp+mrmwlHzlObPn89skH7XwcFBYeqRmr4IIbt27QoPD1+8eLGJicnSpUvXrl0bGxur+YZo8glgLtxAPO74Iar3qdLJb0zUQGptbaVLNFwRYwmGnZ07dyYmJu7atYsumTx58qpVq7QYEjwjdHR0vvnmG21HAQAAT4j18OHDATZRWVlJzQak5wQOsc8/3zYz+CXqyZOqVF69+sN/fly4MGHs2LFDFhgMCxg/AABPLD8/XyAQaDsKGHUw8ABGmKamJjIyrjW1trK+eOkSIUSfM0ZphS5Z58VLl6ytrJFXABPGDwAAAACA1o2E1DRMKMzLzf3hPz+qqWNtZR0mFA5ZSDCMYPwAAAAAAGjdSEhNORxOpNx9GgEeC8YPAAAAAIDW4TZIAAAAAAAAoGUj4awpAAAAaAWXy83Pz9d2FDDqcLlcbYcAAIMPqSkAAAA8IS8vL22HAAAAIwQm9AIAAAAAAICWITUFAAAAAAAALUNqCgAAAAAAAFqG1BQAAAAAAAC0DKkpAAAAAAAAaBlSUwAAAAAAANAypKYAAAAAAACgZXiuKQAAADyhkpISiUSi7Shg1OFyuXimLsDIg9QUAAAAnpBEIhEIBNqOAkad/Px8bYcAAIMPE3oBAAAAAABAy5CaAgAAAAAAgJYhNQUAAAAAAAAtQ2oKAAAAAAAAWobUFAAACCHkypUrs2bN4vF4fD4/IiKitraWKo+JiZFKpZq0oHnNwVoRnk0dHR0sFuvjjz+mS/7zn//MmDFDVX2FAUCtzmaz9fT02Gy2qalpfHz8w4cPBxLS+fPnfX19H2uVnp4ePT29gXQKAACPBakpAACQ3t7esLCwmTNn1tTU1NXV+fj4REREUG+dPHmyu7tbk0Y0rzlYK8KzbOPGjTdv3tSkptIB0NLS0t3d/ejRo4KCguLi4u3btw8kGHd39y+++GIgLQAAwNOG1BQAAMidO3fq6uqWLl1qYmLC4XBSUlJcXFza29vj4+NbW1v9/Pyam5tTUlJ4PB6Xyw0JCWlpaSGEiMXiBQsWLF++XCgU0jUzMzNfffVVqlmxWDxr1iyxWBweHh4cHMzlcn19fUtLS+W7plf08/PLycmhChMSEj777DNVK2ZnZ7u7u5ubm8fGxra1tQ3h5wSPYcWKFW+++SazPD093dnZ2dzcPC4uTiqVyo8xpe24u7sLBIK6ujrqJXPv/+tf/3JycrK1tV29erWVlRUhRCwWKwzCmpoaKhj5Qau0td27dzs4ONjb23/22WeD/6EAAIBqSE0BAIBYW1tPmjQpLCxMJBJJJBIdHZ2srCwjI6OMjAwTE5OCgoIbN25kZGSUlZU1Njbq6uru27ePWvHYsWOurq7p6el0TRMTE2b733777bx581paWhYuXBgVFdXT00O/Ra8YGRn53XffEUIePXqUm5tLnbZlrlhTU7N06VKRSFRfX9/b25uWljYknxA8ttTU1KqqqsOHD8sXlpSUrFq16tixY7du3eru7l69ejU9APh8vtJ2KioqxGIxlUky9/7Vq1eTkpIOHz5cXV1dWVl59+7dfgOjBy2zteLi4pSUlJycnMrKynPnzg3K5wD9Sk1N1bAQAEY2pKYAhBAik8kaGxuU/sElcDBKFBYWzpo1a9OmTXw+39/fv6CgQP5dLy+v8vJyKyurtrY2fX19iURClVtbWyclJfF4PPWNT5gwYdmyZWw2e8WKFb29vZcvX2bWEQqFVGp6+vRpBwcHBwcHpStmZmZGRkZ6eHhwOJzk5GSRSDQomw+DbsyYMTt27Fi5cqX8UVQkEiUkJHh4eBgYGKxdu1bN7uPz+QYGBhwOx9PTUyAQhISEEEKYez8rK2vhwoVTpkwxMDD44IMPNAmMHrTM1rKzsxMSEry8vAwMDD788MMBfwbQPyoFVUhElRYCwIjH1nYAg0Amk+Xl5jbeblRTx9rKOkwo5HA4QxYVDBcYPwAUIyOjlJSUlJQUiUTy1VdfBQYG1tTUUPkhIaSrqyspKenMmTPOzs7yc2htbW3VtNnX10ct2Nvb04WOjo6NjY0+Pj4KlV1cXAwMDMrKyrKzs6OiolStWFdXl5eX5+npSRWOHz++r6+PxWI92VbDUzVz5syAgIDU1NQ5c+ZQJU1NTVOmTKGW7e3tm5qa6EGioLm5mcvlEkIuXrwYEhISFxcXEBDA3PsNDQ1eXl7US6Wjkdk+XY3ZWlNTE90aPfjhqVq/fj2diK5fv57IZaTUSwAYPUZCapqXm/vgwYOZwS/pc8YordAl67x46VJebm7kr//XAaDR48fNw0NphcqrVzF+YMQ7cuTInj178vLyCCFcLjc5OTk3N/fUqVMJCQlUhc2bN0ul0oqKijFjxqxZs4ZeUVdXl9lab28vtUBfHUpfKEgtW1hYKA1DKBTm5eUdPXr0+++/V7Uin88PDw/fuXMnIaSjo6Oqqgp56bNs8+bNkyZNoi4BJYRYWFjU19dTy3V1dXw+v9/d5+PjExQUVFpaGhAQwNz7hw8fpm+2VFRURK/FHIQ0etAyW8vJyaFbkx978FTJZ6fyhdqLCAC0YyRM6G283egzdaqbh4ejkyPzj6npeDcPD5+pUxtvN8pkMoV1B/1hCRrenl5pv/K3bdC8R4Ib3A8MPX5UVXjc8YP9CMORv79/UVHR7t27pVKpTCY7fvx4WVmZv78/9a5MJpNKpXw+n8PhlJeX79+/v6urS2k7MpnM2Ni4sLCwubm5vb09MzOTKq+trd27d29vb++uXbu6u7u9vb2ZKxJChELhtm3bjI2NXV1dVa0YGRmZk5Nz/fr1jo6OxMTEAd64FZ42Pp+/fv36devWUS8jIiKoizxlMtn7778fGRlJlTMPsPLMzMza29sJIcy9Hx4evm/fvoqKiq6uLirJJIQoHYRMzNYiIyPT09Op1jScHgyDQiERRV4KMDqNhNSUEKLqfGl5aelbb72Vc/iwg6MjIeTevd/cHeFpPCxBk9vTq+n3CXqEgVM1fmhU4qr5+NEE9iM8U3g83vHjx7OysmxsbGxsbD7++OOcnBxHR0dCiFAo9PX1nT9//qVLl6ysrJKTk9esWZORkXHx4kWFRqiaDg4OsbGx3t7eNjY2wcHB1FszZsw4ceIEn8//8ssvRSKRwq8w1IrNzc3+/v4dHR1RcjMUmCt6e3tv3LgxNDTUzs7u/v37n3766VP+bGCg/vjHP06ePJla9vb2XrduXWhoqL29va6u7oYNG4jcAFDVgpOTE3VVKnPvT58+PS0tLTQ0dOLEib/73e+o+tOmTWMOQiZma15eXhs2bBAKhVwut6+vr9+LqGEQ0eko8lKA0evhgF2+fPnOnTt37tzp05Jt27beuH6DWV5WUhK3YEH0vHlxCxbcb23dtm1rQ0O9fIWGhgYWiyWVSqmXPT09c+fObWtri4uL09XVdXNza2pqWrVqlamp6dixY19++eV79+719fWdOHFi/vz5y5YtCwsLk69JNXLx4kUfHx+q2rx58+bMmcPn84OCgi5fvtxvvydOnJg5c+aiRYtsbGyCgoJKSkpOnDghFAqpaidOnAgNDZXv8csvv7S3t7ezs/vkk0/YbDZVbd++fU5OTmZmZgsWLJBIJH5+focOHerr69uxY4eurm5bW1tfX98rr7zy5ZdfqolwVFE1fpjVNBw/z9R+VGhHfeUjR464ubmZmZm9/vrrUqlUfqjLLyttVv5dAAXUsNewsp2dXWlp6ROsCFpx6tQpbYfw/z169Ig+isLI9kwNPAAYOCqdHCFnTZnKS0s/2bSps6uLEBI5ezZ33DhmnUF8WILSW96LRKKFCxc2NDQ4Ozt/9NFH/fZLCPnhhx8iIiJu3br1wgsvfPLJJ8w26R4bGxuZN7hn3pQ/ODiYus3muXPnDA0Ni4qK+vr6CgsLqV+RVUUImnj29yOzHTWVlT6Qgx7q8stKm5WvCfBkuru7jx07Zmho+MILL2g7FgAAABhqIyc1zTl8OD4urry0lPw2L42Njp4zd66qtZ7qwxJMTU1nz57NZrNnz559//59Tfq1srISCoU6OjpBQUF0d0opvcE986b88inN4sWLz549e/XqVS6XS83TUxMhaOIZ349KH9KgqrLSB3LID3V6WWmzGv6jgNFp8uTJq1at6rfazp07ExMTd+3a9bgrAlB0dHS++eYbbUcBAABPaISkpj83N/07K6uzq+uTTZtyDh/WMC8lvz4sgbpZwuzZswMDA+lb85FfH5bg7Oz8xhtvyD/FW/3DEmheXl7UjQeZd7BU1S99z3odHcVd0/fb2983NTVNmDCBWqZvcN/U1GRnZ0ctUzflnzZt2vXr12/evKmrqysUCs+ePXv27NmXXnqp3whBE8/4fmS209fXp6pyXV1dbm6up6enp6fnokWLqAdyyA91ellpsxr+o4DRycLCQiAQ9FvtrbfeunnzJn3vJc1XBKCwWKx58+ZpOwoAAHhCIyQ1NedbxEZHE0I6u7qoHJVokJceOXIkLCyMWqYeluDn53fq1Cm6Av2whBMnTgQFBdHlGiZyzLSk336Zq6i6/b2lpSXzBvfMm/Lr6+v//ve/37Jly/Tp06dNm1ZUVHT69Gk6pVEVIWji2d+PSh/SoKoy9RCF8vLy8vLyc+fO7d27l8ViyQ91ellps/h1AwAAAAAGYuRkJnPmzqWyU0q/eSkZ1IclPFao6vuVp+r29zKZTOkN7pXelD84OHjPnj0zZswwMjKytbXNyckJDAx8rIBBqWd/P6p6SINSmj+Q47GaBQAAAADQxMhJTYlcdqpJXkoG9WEJam55/1j9KlB6+3uqR0tLS+YN7pXelD84OLi9vX3GjBmEED8/vwkTJpibm2seLajy7O9Hpe2oqazhAzkeq1kAAAAAAE2wHj58OMAmKisrLSwsCCHU30Pv88+3zQx+iXryJCGk7tYtO3t7hTqVV6/+8J8fFy5MGDt27JAHCM80hfGjFMYPAIBS+fn5uB4Yhh4GHsAI09TURAhhazuMQWBtZX3x0iVCCJVdKOSlnZ2dN2trL166ZG1ljbwCmOjxo88Zo7RCl6wT4wcAQCkul5ufn6/tKGDU4XK52g4BAAbfSDhrKpPJ8nJzG283qqljbWUdJhRyOJwhiwqGC4wfAAAAAAAtos6ajoTUlCKVStvapErf4vHMkFQAAAAAAAA8g0bOhF7K2LFjMd8SAAAAAABgOBpRd+gFAAAAAACA4QipKQAAAAAAAGgZUlMAAAAAAADQMqSmAAAAAAAAoGVITQEAAAAAAEDLRs4degEAAGCIlZSUSCQSbUcBow6Xy/Xy8tJ2FAAwyJCaAgAAwBOSSCQCgUDbUcCok5+fr+0QAGDwYUIvAAAAAAAAaBlSUwAAAAAAANAypKYAAAAAAACgZUhNAQAAAAAAQMuQmgIAAOno6GCxWGw2W09Pj81mm5qaxsfHP3z4cCBtxsTESKVS9SUwsk2YMMHa2rq3t1dNHWpUnD9/3tfX93Hbp8at/C2Ct27dGhERQQhR36BYLH711VcftzsAAHiqkJoCAMD/aWlp6e7ufvToUUFBQXFx8fbt2wfS2smTJ7u7u9WXwAhWWFjY19eno6NTUFCgpho1Ktzd3b/44otB7H3QGwQAgKcNqSkAAChyd3cXCAR1dXXUy+zsbHd3d3Nz89jY2La2tp6enuXLl5uZmZmZmaWlpSmtEx8f39ra6ufn19zcTFWgS/z8/HJycqjChISEzz77TCwWh4eHBwcHc7lcX1/f0tJSpW0O7WcAA3XgwIG4uLiYmJiDBw/KF06cONHU1HTx4sWPHj2iR8X58+fffPNNQshLL72Unp5OVf7HP/4RGxtLnmgk1NTUUA0SQr7++usJEyZMmDAhLS1twoQJVKFMJlu8eLGtrW1wcDA95AAAQIuQmgIAgKKKigqxWCwUCgkhNTU1S5cuFYlE9fX1vb29aWlp2dnZFy5cqK6uLioq2rp1a3V1NbNORkaGiYlJQUEBn8+n2qRLIiMjv/vuO0LIo0ePcnNzqemX33777bx581paWhYuXBgVFdXT08NsU4sfCDyunp6erKys+Pj4119//fDhwz09PYSQa9euJScn5+XlXb16tby8fO/evfSoGD9+PLViREREbm4utXz06NHXXnttgCPh2rVr77333okTJ8rKyk6fPk2X//DDDxEREbdu3XrhhRc++eSTQdpueBKpqakaFgLAyIbUFAAA/g+fzzcwMOBwOJ6engKBICQkhBCSmZkZGRnp4eHB4XCSk5NFIhGPx2ttba2oqLCzs5NIJC4uLsw6anoRCoVUanr69GkHBwcHBwdCyIQJE5YtW8Zms1esWNHb23v58uXHahOeNT/99JOjo+PEiROnTp3K5XJPnTpFCDl06FBcXJyLiwufz9+7d+/kyZOZK86ZM+eHH37o6upqamqqrq4ODQ3tdySYmprq/ertt99WePfgwYPx8fGurq7GxsbvvPMOXW5lZSUUCnV0dIKCguSvVoUhRqWgComo0kIAGPHY2g4AAACeFc3NzVwulxBy8eLFkJCQuLi4gICAurq6vLw8T09Pqs748eP9/f2XLFmSkJDQ2tq6YMGCTZs2Mev09fWp6sXFxcXAwKCsrCw7OzsqKooqtLe3pys4Ojo2NjYqbZPFYj2NDYdBd+DAgeLiYjMzM0KIVCo9ePBgcHBwQ0PDlClTqArPP/+80hWtra1dXV3/+9//1tbWzpkzR19fv9+R0NLSQo1bQsjWrVupNJjW2NhId2pjY0OXe3l5UQs6OviZXpvWr19PJ6Lr168nchkp9RIARg+kpgAAoMjHxycoKKi0tDQgIIDP54eHh+/cuZMQ0tHRUVVV1djYuGjRotTU1MrKytdee+3o0aPMOupzSKFQmJeXd/To0e+//54qoa9rpZYtLCwet014dnR1dR05cuTatWvUKfHi4uKXX375n//8J5/Pv337NlWnqKiovr4+MjKSuTo1p7empiYpKYkQMsCRYGFhUV9fTy3TvRNkpM8S+exUvlB7EQGAduC4DAAASpiZmbW3txNCIiMjc3Jyrl+/3tHRkZiYuH379oMHD8bExMhkMj6fr6+v/+DBA2YdqhGZTKbQLFUiFAq3bdtmbGzs6upKldfW1u7du7e3t3fXrl3d3d3e3t6q2oRn3/Hjx+3s7Ki8lBAyZcoUDofz448/RkZGpqen19bWtrS0JCUl0RmjwjiZM2fOkSNHKioqAgMDibIR+FjBREREZGRk1NbWPnjwYMuWLfiB49mkkIgiLwUYnUZOaiqTyRobG5T+wWP0AAAel5OTE3VRn7e398aNG0NDQ+3s7O7fv//pp58uW7bMxMTE0tLSzc3Nx8dn/vz5zDqEEKFQ6OvrS9+hV77E39+/o6ODns1LCJkxY8aJEyf4fP6XX34pEon09PSUtgnDQmZm5uzZs+mXLBYrLCzs4MGD3t7ea9eunTlzpqurq4uLy5///Gfy66j45Zdf6Pru7u6Ghobh4eG6urpE2Qh8rGC8vb3XrFnj7+/v6+vr7+8/bty4QdpKGGR0Ooq8FGDUYg3wieqEkMrKSgsLC0II9ffQk8lkebm5jbcb1dSxtrIOEwo5HM6QRQUAAGrY29t/++23L7zwAiFELBZv2bLl+PHj2g4KHlt+fr5AINB2FOpcuHDh4MGDGzdu1NfXT01N/eWXX3bs2KHtoGCgnv2BBwCPpampiYyMa03zcnMfPHgwM/glNw8PpRUqr169eOlSXm5upNwv9AAAoBXd3d3Hjx83NDSk8lKAp8rLy+vgwYOBgYHt7e0ODg67d+/WdkQAAKDcSJjQ23i70WfqVFV5KSHEzcPDZ+rUxtuNzKuerly5MmvWLB6Px+fzIyIiamtrCSFisfjVV1+Vr3b+/HlfX99+I+no6GCxWGw2W09Pj81mm5qaxsfHU+elqbdiYmLk67/33nssFuvKlSvqm42JidFwTrLmNTWxYcMGOzu75ubmwW1WE0PfIwAMmZ07dyYmJu7atYsumTx58qpVq7QYEoxg+vr6n3766ZkzZ0pLS48ePWpubq7tiAAAQLmRkJoSQvQ5Y9RXoBLXe/fuyhf29vaGhYXNnDmzpqamrq7Ox8eHevI7k7u7+xdffKFhMC0tLd3d3Y8ePSooKCguLpa/YUN+fr78DOrs7GxDQ8N+Gzx58mR3d7cmXWteUxPbtm0rKiri8/mD26wmhr5HABgyb7311s2bN/39/ekSCwsLzM0DAAAY5UZIavpk7ty5U1dXt3TpUhMTEw6Hk5KS4uLiQt2RklJVVWVra1tQUFBTU/Pmm28SQsRicXh4eHBwMJfL9fX1LS0tVdO+u7u7QCCQfyKCQCCgL6YqKyszMTFR+Pm2p6dn+fLlZmZmZmZmaWlphJD4+PjW1lY/P7/m5uaUlBQej8flckNCQlpaWqh4FixYsHz5cqFQSNfMzMykz/qKxeJZs2b1Gzaz5fj4+Hv37gUGBs6bN48OIDs7293d3dzcPDY2tq2tTb53uimFQoVVmBvIrCO/yY+zPwEAAAAAYLga1amptbX1pEmTwsLCRCKRRCLR0dHJysoyMjKi3r1z505YWNjnn3/u5+cnv9a33347b968lpaWhQsXRkVF9fT0qGq/oqJCLBbLp23R0dFZWVnUskgkmjt3rsIq2dnZFy5cqK6uLioq2rp1a3V1dUZGhomJSUFBwY0bNzIyMsrKyhobG3V1dfft20etcuzYMVdX1/T0dLqmiYkJMxg1YZ89e5bZMtVaYWHhoUOHqGalUunSpUtFIlF9fX1vby+VWNK9y/dFF9bU1CiswtxAZh16Q/h8vvo9CAAAAAAAI8OoTk0JIYWFhbNmzdq0aROfz/f39y8oKKDKJRLJrFmzpk+fPmfOHIVVJkyYsGzZMjabvWLFit7e3suXLytU4PP5BgYGHA7H09NTIBCEhITQb73yyisnT57s7OwkhIhEIuajxnk8Xmtra0VFhZ2dnUQicXFxod/y8vIqLy+3srJqa2vT19eXSCRUubW1dVJSEo/HU7+lasJW1bKCzMzMyMhIDw8PDoeTnJxMPVVCae90IXMV5gYqbRYAAAAAAEaV0Z6aGhkZpaSkFBYWNjc3z549OzAw8ObNm4SQ06dPBwQEHD16tKGhQWEVe3t7etnR0bGxUfGhNc3NzQ8fPpTJZEVFRTk5OadOnaLfMjQ09Pf3P3HiRHV1tZ6enpOTk8K6AoFgyZIlCQkJPB4vMTGxq6uLfqurqyspKcnZ2fmNN964e/f/XzRra2urZgP7+vr6DVtVywrq6upyc3M9PT09PT0XLVo0fvz4vr4+pb3ThcxV/P39FTZQabNqtggAAAAAAEaekfDwmCd25MiRPXv25OXlEUK4XG5ycnJubu6pU6csLS2DgoK2bNnS0dGRmpq6f/9++bXkrx2tq6tT8zRXHx+foKCg0tLSgIAAunDu3LlZWVnPP/88czYvIaShoWHRokWpqamVlZWvvfba0aNHo6Ojqbc2b94slUorKirGjBmzZs0aehXqieQKent7qQX6slI1YatqWQGfzw8PD9+5cychpKOjo6qq6u7du0p7pwuZqzQ2NipsILMOi8VSFQMAADxTuFxufn6+tqOAUYfL5Wo7BAAYfKM6NfX391++fPnu3btjYmI4HM7JkyfLysr8/f1ramqoG+f+/e9/d3V1LS4ull+rtl4ukjYAACAASURBVLZ27969CQkJu3fv7u7u9vb2VtOFmZmZ/H2VCCFhYWGJiYnl5eWHDh1i1j948OCxY8d++OEHPp+vr6//4MEDqlwmk0mlUj6fz+FwysvL9+/f//rrryvtUSaTGRsbU+eBn3vuuczMTCoLVRO2Ji3LZLLIyMhXXnnlnXfesbS0TExM7OvrU3gWDhNzFQ8PD4UNZNbZu3cv1aP6xgEAQOu8vLy0HQIAAIwQo3pCL4/HO378eFZWlo2NjY2Nzccff5yTk+Po6EhXsLCwePfdd5OTk+XXmjFjxokTJ/h8/pdffikSifT09NR04eTkpHDxpJGR0YsvvtjT0+Pm5sasv2zZMhMTE0tLSzc3Nx8fn/nz5xNChEKhr6/v/PnzL126ZGVllZycvGbNmoyMjIsXLyqsTtV0cHCIjY319va2sbEJDg7uN+yVK1eqb5lq1traeuPGjaGhoXZ2dvfv3//000/VbDjF29tbYRXmBjLr0D3iDr0AAAAAAKMES/4xm0+msrKSOi+nZmrrU/X559tmBr9EPblUlcqrV3/4z48LFyaMHTt2IH2JxeItW7bQD4AZLoZp2AAAAAAAMOI1NTWRkTGh19rK+uKlS4QQfc4YpRW6ZJ0XL12ytrIeYF4KAAAAAAAAT8NIOGsqk8nycnMbbyveKVeetZV1mFDI4XAG2FdTU1NVVZVAIBhgO0NsmIYNAAAAAAAjHnXWdCSkpgAAAAAAADBMUanpqL4NEgAAAAAAADwLkJoCAAAAAACAlo2E2yABAACAVpSUlEgkEm1HAaMOl8vFM3UBRh6kpgAAAPCEJBIJ7rEHQy8/P1/bIQDA4MOEXgAAAAAAANAypKYAAAAAAACgZUhNAQAAAAAAQMuQmgIAAAAAAICWITUFAADS0dHBYrHYbLaenp6xsXFgYGBJSckTtxYTEyOVSs+fP+/r6zso4W3YsMHOzq65uZkZLZvNNjU1jY+Pf/jw4UC6oGIejGBHu/Dw8KqqKm1HAcPbfWn7lWtVheeKTv7038JzRVevVXV2dj5WC/X19evXr9+2bRtdcuDAgZaWFg1Xr6ys/Pzzzzdu3Jienn737l2qMD09/cNfHThwgCr85Zdf9u/f/49//GPPnj2tra2EEJFI9I9//OP06dOPFTAAEKSmAABAa2lp6e7urq+vj4qKEggE9fX1T9bOyZMnu7u73d3dv/jii0EJbNu2bUVFRXw+X76QivbRo0cFBQXFxcXbt28fSBdUzAMLc7STSCT79+//7rvvtB0IDG+3m+6Wl5U0N/8s6+zQYfXKOjt+bm46c+7yvZZfHqsdGxubxMREQohMJistLa2pqdFwxY6OjpycnFdffTU5Odna2vrQoUNUeWtra2Ji4t/+9re//e1v0dHRVKFIJPL19X333Xfd3NzEYjEhJCoqatq0aY8VKgBQkJoCAMBvjBs3bsWKFREREZs3bxaLxa+++ipVLhaLZ82aJRaLFyxYsHz5cqFQSAhJSUnh8XhcLjckJIQ6IxEfH9/a2urn53f+/Pk333yTWjc9Pd3Z2dnc3DwuLk4qlYrF4piYmIiICAsLi+DgYIUztAqV4+Pj7927FxgYSJ81VeDu7i4QCOrq6qiX2dnZ7u7u5ubmsbGxbW1tPT09y5cvNzMzMzMzS0tLU1qHjllVF6CJd99996uvvtLRwX8t4MlJpO03rleZjDd74XkPwtKlCk1MzZ93dyqrqH7cc6eUH374obi4mMViaVj/9u3bPB7PwcFBX1/f39//3r17nZ2djx496uzsNDEx0dPTo+ZrEEJu3brFYrE8PDx0dHRefPHF11577QnCAwAavj8AAECJkJCQ4uJipW8dO3bM1dU1PT397NmzGRkZZWVljY2Nurq6+/btI4RkZGSYmJgUFBSMHz+eql9SUrJq1apjx47dunWru7t79erVhBCRSLRw4cKGhgZnZ+ePPvqIbpxZmWqwsLBQ4awpraKiQiwWU6lyTU3N0qVLRSJRfX19b29vWlpadnb2hQsXqquri4qKtm7dWl1dzaxDx6yqC9DErl27Tp8+bWpqqu1AYBhraGjsefToUXengeFzLi4uLJaOqZnlZE/3to5OnT5Z7f9uPUGbQqHwjTfeMDQ01LC+g4PD/PnzqeU7d+6YmJiMGTPm/v37Ojo6X3755UcfffT1119Tc3d//vnn55577siRI1u3bs3MzJRIJE8QHgDQkJoCAIAS5ubmt2/fVvqWtbV1UlISj8fz8vIqLy+3srJqa2vT19dX9d8ykUiUkJDg4eFhYGCwdu1akUhECDE1NZ09ezabzZ49e/b9+/fVV1aKz+cbGBhwOBxPT0+BQBASEkIIyczMjIyM9PDw4HA4ycnJIpGIx+O1trZWVFTY2dlJJBIXFxdmnQF9UgAweFrv3yeE3G9traqqMjMzdfN43nOS6/Xauoa6WkL6Wlvv99vCwOnp6RkYGBBCqqqqRCLRyy+/TAiRyWS2trbR0dF//etfLSwsDh8+TAjp6uqqrq52d3f/05/+ZGpqShUCwBNjazsAAAB4Fv38889WVlbyJX19fdSCra0ttdDV1ZWUlHTmzBlnZ+e2tjZVTTU1NU2ZMoVatre3b2pq6uvr8/LyoubX6erq9ltZabPNzc1cLpcQcvHixZCQkLi4uICAgLq6ury8PE9PT6rO+PHj/f39lyxZkpCQ0NraumDBgk2bNjHrqOoCAIZYz6NH1IJU0lrfcMfRwfZuy/2Guv9RhY9+fXewXL58uaCggBDyhz/8wcvLiy7v7Oz89ttvf/7553nz5lFHPGtr69jYWOrdwMDADRs2PHz4kMPhWFpauru7E0KmT59+9uzZzs7OMWPGDG6QAKMHUlMAAFDi+++/9/b2JoT09vZSJaWlpdQCnUxu3rxZKpVWVFSMGTNmzZo1qpqysLCg76hUV1fH5/NZLJaqKxKVVlYfqo+PT1BQUGlpaUBAAJ/PDw8P37lzJyGko6OjqqqqsbFx0aJFqamplZWVr7322tGjR5l1NL8IDQCeKj09dpesmxBibmHj6GB7q/62tSXfyXni9evXWaRXlz3I/3GdMmUK/VsYrbe391//+pe1tXVUVBR9pGpoaOjt7bWzsyOEUJe8stls+R+2WCyWmiMbAGgC/34AAOA32tvbd+7ceeTIkbffftvY2LiwsLC5ubm9vT0zM1OhplQq5fP5HA6nvLx8//79XV1d9FsymYxejoiISE9Pr6mpkclk77//fmRkpJreH6syzczMrL29nRASGRmZk5Nz/fr1jo6OxMTE7du3Hzx4MCYmRiaT8fl8fX39Bw8eMOswYwYArRg3zoQQwre0dXd1rqyu/d+N6qvXKk1NTV0mOvcSXZNx44YghsrKyr6+vpdffrmvr6+np6enp4cQ8uDBg0OHDt27d6+vr+/cuXNOTk56enoODg5tbW03btygCu3t7fX19YcgQoCRCmdNYZQqKSnB7QqeZVwuV35uFQwN6hSlnp7e1KlTT506ZWtra2VlFRsb6+3t3dHRsWTJkitXrsjXX7ly5bx586ysrDw9PdesWZOWlhYdHe3j4yMUCn19fdPT06lq3t7e69atCw0N7ejomDlz5oYNGwoLC1XFwKysSeROTk7ffPNNamqqt7f3xo0bQ0NDW1tbAwICvvrqKzabffr0aUtLSz09vaioqPnz57PZbIU6hBAq5uLiYtwJCUCLrKytWlp+7ul+eK3q+s9NDYSQX1ru3tTVYeuP0WOzbGyshyCGO3fu3L59e926dXTJqlWrXFxcfv/732dmZnZ2dtrZ2c2ZM4cQoqOjExsbm5eXd+TIEWtr64iIiCEID2AEYw3wGeWEkMrKSgsLC0II9TfAsJCfny8QCLQdBaiEHQQwLOCfKgy62013b1yv6vntZaW6bLaTs6uVhRn1st+BV19ff/LkyYULFz7FQFX76aef2Gz2H/7wB630DjAcNTU1EZw1BQAAAIBnh5WF2XOGBo2NtyUSycOHDw0MDMZyx1pbW48ba6Tt0ADg6UJqCgAAAADPEO5YI+5Yl4G0oKure//+/W3btiUmJg5WVBoSiUQNDQ0zZswY4n4BRgCkpgAAAAAwolhZWa1cuVIrXUdFRWmlX4ARYCSkpjKZLC83t/F2o5o61lbWYUIhh8MZsqgAAAAAAABAQyMhNc3LzX3w4MHM4Jf0Ocqfcdwl67x46VJebm4kfseCIRETE7N79+6xY8cqlIvF4u3bt3/77bdaiQoAAAAA4Jk1Ep5r2ni70WfqVDcPD0cnR+YfU9Pxbh4ePlOnNt5uVHhmXUdHB4vFkn+CyNatW5/sxt9UU2w2W09PT19f38PD49ixY/3WZLPZpqam8fHxCvdJVlOHeismJka+/nvvvcdisRQe6gBadPLkye7ubm1HAQAAAAAwbIyEs6aEEFXnS8tLSz/ZtCly9uxQoZD8h9y7d9fa2ubphdHS0sLlctva2r744ovXX3+9vr5+/PjxamoSQq5duxYdHb19+/a//vWvmtfJz8+n7llHvczOzjY0NHxaWzWaiMXir7/+2sjIqKGh4a233tq2bVtbW9uVK1dmzJjxpz/9afXq1b/88ktaWtrixYvpVXp6et58802RSEQI+dOf/rR27dr4+PjW1lY/P7/333//m2++oc6RisXiLVu2/OUvf+ns7IyLizt+/Lidnd2uXbt8fX21trUAAAPG5XLz8/O1HQWMOtR/kABghBkhqalSVF7a2dV15OjRwJdeetzVU1JSdu/e3d3dPX369H//+9+mpqbMJETpisbGxklJSWlpadXV1dOnT09PT1+3bp1UKg0JCfniiy90dXXlK7u7uwsEgrq6OjWRMOsIBILjx49HRkYSQsrKykxMTHCObrAcO3bsww8/XLdu3aVLl7777ruLFy86OTlNmTJlzZo1Z86c+emnn5YvXy6fmmZnZ1+4cKG6uloikUyePHnBggUZGRnHjx8vKCi4ePEis/0ff/zxq6++2rdv386dO6Oioq5fv66vrz+E26cdqamp69ev16QQAIYXLy8vbYcAAAAjxEiY0KsUnZcSQiJnz+aOG/dYq589ezYjI6OsrKyxsVFXV3ffvn1ELgkpKiraunVrdXW10nUfPHiwfft2XV1dZ2fnkpKSVatWHTt27NatW93d3atXr1aoXFFRIRaLhUKhmmCYdaKjo7OysqhlkUg0d+7cx9o6UMPa2jopKYnH4xFCpk6dOnXq1HHjxs2YMSM+Pt7Q0HDWrFkNDQ09PT10fR6P19raWlFRYWdnJ5FIXFz6udn9xIkTFy9ezGazV6xYwWazi4uLn+72PANSU1Ppv9UXAgAAAMCoNXJS05zDh+Pj4spLS8lv89LY6Og5ajM3U1NTvV+9/fbbVKGXl1d5ebmVlVVbW5u+vj51PWq/SQifzzcwMOByudu3b8/IyODxeCKRKCEhwcPDw8DAYO3atdQZV7omh8Px9PQUCAQhISHMwNTUeeWVV06ePNnZ2UkIEYlE1OlTGBS2trb0spmZGbWgq6tLLevoKP6TEQgES5YsSUhI4PF4iYmJXV1dSpvt6+ujFuzt7elCR0fH5ubmQQz+2USfGqUTUXoBZ00BAAAAgDJCUtOfm5v+nZXV2dX1yaZNOYcPa56XEkJaWlq6f7V582aqsKurKykpydnZ+Y033rh79y5V2G8S0tzc/PDhw+7u7v/973/R0dGEkKamJjs7O+pde3v7pqYmKkWhaspksqKiopycnFOnTjEDU1PH0NDQ39//xIkT1dXVenp6Tk5Oj/2RgQoKM6771dDQsGjRohs3bpw9e/a///3v0aNH5d/t7e2lFkpLS6kF+YnZt27dks+ERzD57BR5KQAAAAAwjZDU1JxvERsdTQjp7OqiclSiWV6qyubNm6VSaUVFxYkTJ4KCgqhC9UmIUhYWFvX19dRyXV0dn89nsVjyFXx8fIKCgui8RSmldebOnZuVlYXZvFp38ODBmJgYmUzG5/P19fUfPHhAlctkMmNj48LCwubm5vb29szMTKq8uro6IyOjt7d3x44durq6o+cyLYVEFHkpAAAAAMgbIakpIWTO3LlUdkoZSF5KCJFKpXw+n8PhlJeX79+/nzpBqioJUSMiIiI9Pb2mpkYmk73//vtKZ96amZm1t7erb4dZJyws7Mcffzxw4EAUHtaqVcuWLTMxMbG0tHRzc/Px8Zk/fz4hRCgU+vr6Ojg4xMbGent729jYBAcHU/VDQ0MzMzP5fP7+/ftFIhFzhvAIRqejyEsBAAAAQMGIukMvlYv+OytrgHkpIWTlypXz5s2zsrLy9PRcs2ZNWlpadHT0smXLTp8+bWlpqaenFxUVRSUh6nl7e69bty40NLSjo2PmzJkbNmxg1nFycvrmm2/U3w+GWcfIyOjFF1+sqqpyc3N7gg0EpUJCQuhreuWXv/76a7oOfdUoxdjYmHn+nLpvFiFk+/bt27dvV+hicGMeXpCUAgAAAIBSrIcPHw6wicrKSgsLC/L/2LvzuCbu/H/gn5AQCArhDodAQARF0Yj3BWi3ihXZClvdUrTUo7pfLS6L3YqIWtej7XphW7V1q4htBdv8AC1WthWLJwVFBazhVCFgQCAkECBAkt8f051lOSJYbSS8nn/w+OTzmXnPe2Ys9J2Z+Qwh1M/f38cfH3z5pT+M9PKiPpY/fOjcaaYZiuiXX3648OObb4abmZn97gnCiygzM9PPz0/XWUCvcIIAAAAABgmJREL046qpo4PjjZs3CSFUddqlLm1tbX1QVnbj5k1HB0fUpQAAAM/Q7du3qUnsAX5PXC538EzWADB46ENpuiAwMO2773648OMPF37sbRlHB8cFWt8dCgAAAP0lk8lwgwP8/jIzM3WdAgA8e/pQmhoZGQWHhMjl8sZGeY8LWFvbGBkZ/c5ZAQAAAAAAQB/pQ2lKMTMzw/26AAAAAAAAA9EgenEFAAAAAAAAvJj056opAAAAAAx0v5TW5ojqa1s0hBAbDmPiSEuv4da6TgoAfg8oTWGQ4nK5mEThRcblcnWdwuCiUCiGDh3KZDIZDAaTyfTy8oqLi5s1a9bPP/+8bt26nJwcQsiSJUuOHj3a46MTWoaelezs7JUrV1ZXVy9cuPDIkSMsVj/+fqlUKmNj4/b29id2wm/Rx3P0W04l6DeVSn0yrfAuw2LIcPe2DpVGrWlksfLzq0ffFS1d4MFk4l4/AD2nD+81BQCA34gqTRsaGrhcbkNDw9GjR/fv319ZWdnY2CgSiSZPnkwIsbGxEYlEVlZW3VfXMvRMdHR0jBw58qOPPpo/f/7rr7/u4+OzZcuWvq+O0vT5oV9B3Mdz9BtPJei3+DOiEitnto1JS5VijqViCJvxnYxjbD+07YHCvaEiPGgkvSTefQ2gZ6j3muL7JwAA+B/m5uarVq2qrq5uaWkpLi5eu3YtIWTZsmVSqXTmzJlVVVVr1qyxsbGxsbGhigp6KDExMSwsbM2aNYGBgYSQ5OTkUaNG2drahoaGNjY2EkKio6Otra25XO68efPq6uoIIenp6QsWLPD19bWysgoMDExLSxs/fryLi8sXX3zROaWMjAwOhxMcHMzhcDZs2JCYmNgl5+6RCSFHjx7l8/kuLi779++nl+zemZ6eriVtlUrVZX+79wDp5Rx99NFHixcvJoS0tLS4u7tnZ2c/8VTCoCUqq7urNmebmqhLlZqaNh6H6TCExShXqsQd7CEmd+Vmovt1us4RAJ4vlKYAAPA/6urqjhw5MnfuXBMTE7ozISHBwsLiypUr165dy87OLioqysnJiYuLKyoqoocsLCzOnDnj6ekZHx9fXFy8atUqoVBYUVGhVqu3bNly7dq1hISEvLy8yspKJpN5/PhxKvK5c+f2799fWlp69+7d2NjYq1evHjp0aNu2bZ1TEolEo0ePptqjR48uKirSaDT0aI+Rc3Nzo6OjU1JSRCJRVlYWtWSPnYQQLWknJyd32d/uPc/lNAw0PZ6jyMjIu3fvZmRkfPjhhwEBAZMnT9Z+KmEwy/qldoidtfqRkqg1xqZDEm6oPr3cxhoylFHfoalu45hbXst/rOscAeD5wgMeAADwKysrKwaDQZUKP/zwQ4/LWFtbS6XSgoKCGTNmyGSyLqOOjo6RkZGEkMOHDwcHB3t5eRFCoqKiQkJCdu7cmZ+fb2lp+ejRIzabTa87YcKECRMmEEKmTZs2efJkExOT+fPni8VilUrFZDKpZVpaWkxNTam2qampSqVqbGykH20VCATdIycnJ4eHhwsEAkLI+++/n5qa2lun9rT/+Mc/dtnfqqoqLUdg0OrtHB06dGjVqlUdHR23bt3SspjO8oYXRl2zxkDJUHdoiAGjvaXZz1VtYGBwvUrJMjIiRKNhMKvl+BYDQM+hNAUAgF/V1dVxuVyNRnPp0qWgoKBr1651X8bPz2/lypXh4eFSqTQsLGzPnj1sNpsedXJyohrl5eVpaWne3t7UR0tLS6VSGRkZefXqVXd3d+r+XoqNjQ3VYDKZVNvAoOsdPZaWlk1NTVS7sbGRxWLR5Q0hpK2trXtkiURClaCEED6fr6VTe9q+vr5d9lf7ERi0ejtHfn5+bDb7lVdeoeY2034qYTDTaAhRagiDaAjDQN320lhzQhg/VzRqiDGDaNraNSZPjgEAAxtu6AUAgP/BYDD8/PymTJly+fLl7qNisXj58uWlpaXXrl27dOkSfeGRQl/n5PF4QUFB+fn5+fn5WVlZx44d279/v1wuLygoOH/+/Jw5c/qVkpubW2FhIdUWiUR8Pp/BYNCj+/bt6x7Z3t7+wYMHVLu8vFxLp/a0Kysru+yv9iMwaPV2jr755htTU9PExMSKigotiwFYckibssPAgMEgRMNgNivVsmaVijANiEatIS3N7Twz/FMB0HMoTQEAoCuRSJSTk0NfPKQplcqkpKQlS5YolUoej8dms5ubm+mhzksGBwenpKSUlJQoFIqIiIhPPvlELpfzeDwjI6P8/PwTJ060tbX1PR9/f/+ampqLFy+qVKq4uLiwsLDOoz1GDg4Ojo+PLygoaGtro59c7bFTe9rd97e3IzDI9XiO5HL5hg0bvvjii8jIyL/97W+9LQZACJnubVP36HGHmmnA0HQQZlOrWtbcoWIwCSGNCkZLQ910bxtd5wgAzxdKUwAA+BWPx+NwOMbGxnPmzImJiZkxY0bn0cDAwEmTJi1atMjCwsLe3n7kyJETJ05844036CGpVEov7OPjs3v37oCAAGdn54aGhr17965fv/7mzZsODg5RUVGxsbEJCQk3btzoY2JMJjM1NTUqKsrNzY3D4URHR3ce7TGyQCDYtWtXYGAgdYuytbU1IaTHzs66p7169eou+9u95ykOtf7p8Rxt2rRp8eLFXl5ekZGReXl5//73v7WfShjMRrpaTbJrqnvcqGg1aNewqupaK+vaWtsN6mWa5kbF9GHNI12f1+upAOAFgfeaAgAAwFPC6yXhGVKp1CfSCq+Lh7JMrbhEpiYMmcZU3VQ/fVjTsgWeTOZ/L6jgHx6AnqHea4ppkAAAAABA95hMg+VBo6aW1mbfq6iSqgkhXpayyTOsvIY76To1APg9oDSFQer27dt468OLjMvl0jOpAgDA4OE13NpreNeb7QFgMEBpCoOUTCbDvUAvsszMTF2nAAAAAAC/H0yDBAAAAAAAADqG0hQAAAAAAAB0DKUpAAAAAAAA6BieNQUAAICnxOVy8WQ4/P64XK6uUwCAZ28Al6YKhWLo0KEffvjh3//+d6rnwoULmzdvvn79en9Dpaenf/LJJ2fPnn1Wue3atevIkSM5OTk8Ho9OlclkMhgMjUbD5XIXLFjw2WefcTgcamjx4sVJSUn06u+9995HH31UUFAwevTo/u7IgQMHvv/+e7rxW/ZiyZIlR48eNTMz07KMSqUyNjZub2//LRvSuZSUlHfffbe6unr8+PGHDh3q72GHp9Agb6qsrJTL5C0tLRwOh8s1c3N1MTY27nuEioqKhIQEU1PTiIgIkUj0ww8/NDU12dvbL1iwwMbGpo9BTp06NXfuXCurX1/j3mMcqlOhULi4uAQFBQ0ZMkQoFBYXF8+YMWPWrFn93XEAPYOZtAEA4FkZ8Df07t69+8GDB7rOoquDBw/SdSmtrq6uvb29o6PjypUrubm5n3zyCT2UmZnZ0tJCf0xOTjYxMfn90u1FRkbGQK85+6KmpiY8PPzo0aNVVVWTJ0/+05/+pOuM9F+V5HF+3u3q6hplq8KAoVa2KmqqJVezbtXW1fcrzrBhwyIiIhQKRUpKysKFC6OiohwdHU+fPt2XdZVK5Z07d4qLi+meHuO0tLQIhcK5c+f+9a9/ZbFYP/74IyEkJCRkypQp/UoVAAAAALQb8KXpunXr1q5d26UzPT194cKFdHv+/Pnp6ekLFizw9fW1srIKDAxMS0sbP368i4vLF198QS3W2tq6dOlSa2trHx+fnJwcqjM5OXnUqFG2trahoaGNjY3p6elhYWFr1qwJDAzsvLn4+Hh3d3dbW9ulS5fK5fJly5bV1tbOnj27urq6x5xHjRrl5+dXXl5O9/j5+dFXOPPy8iwsLGxtbQkhKpVqzZo1NjY2NjY2W7Zs6RInOjra2tqay+XOmzevrq6ut0PUJT1CyKlTp0aMGGFlZbVixYqOjo4eQy1btkwqlc6cObO6urrLcSCEHD16lM/nu7i47N+/v9dzM0Dk5OSMHDnS399/6NChmzdvLiwsbGho0HVS+kwmbyotKbSwtBk7xoswmFSnhZXtmFHD8wqKWltb+xuwqqrK2tqaz+ez2WxfX9/a2tq+BPnhhx9yc3MZDIb2OPX19cbGxp6ensbGxmPGjKmpqelvegAAAADQFwO+NI2JiSksLPz222+fuOS5c+f2799fWlp69+7d2NjYq1evHjp0aNu2bdTojz/+6O/vL5FIli9fHhIS0tbWVlxcvGrVn0SYrQAAIABJREFUKqFQWFFRoVarqcrwzJkznp6e8fHxdNjbt29v3LjxzJkzDx8+bG9v37x5c0JCgoWFxfXr17tcNaUVFBSkp6d3rm9fe+21b775hmoLhUL6wl1ycnJ2dnZRUVFOTk5cXFxRURG9yrVr1xISEvLy8iorK5lM5vHjx3vcVvf07t27FxUVlZaW9ssvv+Tn5x87dqzHUNReXLlyRS6XdzkOubm50dHRKSkpIpEoKyvriUf+Befv73/u3DmqnZub6+rqam5urtuU9JtYXKnq6Ohob+WYDPHw8GAwDKxs7Md5j2pUtBpolGX3H/Y3IJ/Pf+ONN6j2o0ePLCws+nJjcGBg4FtvvdX59oQe49ja2mo0mvz8fLlcfvv2bT6f39/0AAAAAKAvBnxpamxsfPjw4fXr11PXA7WYMGHChAkTzM3Np02btmzZMhMTk/nz54vFYpVKRQgZMWLEihUrWCzWunXrWCxWbm5uYmJicHCwl5eXkZFRVFSUUCgkhDg6OkZGRlpbW9NhhUJheHi4l5cXh8PZvn07tViPeDweh8MxMjLy9vb28/ObN28ePfTKK69kZGRQl3qEQmFwcDDVb21tLZVKCwoKnJ2dZTKZh4cHvYpAIMjPz3dwcGhsbGSz2TKZrMeNdk/v9OnTS5cu9fDw4PF4x44dGzdunPZQ3Y9DcnJyeHi4QCDgcDjvv/++9sP+4hsyZIilpSUhJDU1NTQ0dM+ePbrOSM9JGxoIIQ1SaWFhoY2N1UivMd6jPUvKysXlZYRopNJ+X7I2NDTkcDiEkMLCQurm26dLrMc4hoaGfn5+/+///b+PP/5YLBbPmDHj6YIDAAAAgHYDeBok2ssvv+zv7x8TE/Pqq692H9VoNFSDnhmFyWRSbQOD/1bmLi4udNvNza26urq8vDwtLc3b25vqtLS01Gg0Tk5OXeJLJJLx48fTQSQSCb3FLqqrq6kJ5W7cuDFv3rylS5f6+/tTQyYmJr6+vufPn/fy8jI0NBw+fDjV7+fnt3LlyvDwcKlUGhYWtmfPHjabTQ21tbVFRkZevXrV3d2dusm2R93TE4vFdM+YMWMIIQ0NDVpCdT8OEomEnvdCPy4iSaXSt99+u6Cg4Ntvv0Xt8bypOjqohlwmrRA/cuM7Pa5rEJffpzo7/jPaL62trWfPnq2pqVm8eHGX/0hv3bp15coVQsisWbOeOF9L9zjl5eWXLl1au3athYVFVlbWyZMnV69e/RQZAgAAAIB2+lCaEkL27ds3evRoBwcHuketVlONO3fu9CVC5yc/Hz586OTkxOPxgoKCjhw5QghRKBSFhYWPHz9mMpldVrSzs6uoqKCD8Hi8zk+v9WjixIlz5sy5c+cOXZoSQv70pz998803Y8aM6TwNj1gsXr58eUxMjEgk+vOf/5yamvraa6/RuyyXywsKCoyNjWNjY3vbVvf0eDxeVVUV1ZOTk1NRUXH79m0tobofh5SUFHrqqc7HbYBqb28PCAiYPHny119/bWhoqOt09J+hIatN2U4IsbUb5sZ3elhR5WjPG+4+oqSkhEHUTFa/fymp1eovv/zS0dExJCSk8/dNlPHjx9PfxTxFnLKyMnd3d+pGiUmTJl24cIGaUri/SQIAAACAdgP+hl4Kj8fbuXPnjh07qI+mpqbXr1+vrq5uampKTEzsS4SioqKEhAS1Wn348GEmkykQCIKDg1NSUkpKShQKRUREROcJdTtbtGhRfHx8cXGxUqncunUrfS+udjY2Nk1NTZ17FixY8OOPP546dSokJITuTEpKWrJkiVKp5PF4bDa7ubmZHpLL5Twez8jIKD8//8SJE21tbX1MLzg4OD4+vqysrK6uLjIysqKiQksopVLZ/ThQEQoKCtra2uiHdQeu1NRUtVq9Z88etVqtVCqVSqWuM9Jz5uYWhBCevdMoT3dRUdn90qJf7omsrKw8RrirCdOi/w/6ikQijUYzd+5cjUajUqmoW/SfQo9xnJycioqKJBJJe3v79evXLSwsUJcCAAAAPA96ctWUEPL222+fOHGCupl2ypQpoaGhPj4+CoVi5cqVd+/efeLqAQEBiYmJUVFRw4cPFwqFBgYGPj4+u3fvDggIkEql/v7+//rXv7Kzs7uv6OPjs2PHjoCAAIVC8fLLL+/atasv2Q4fPvyrr76KiYmhe4YOHTpjxozCwsKRI0fSnatXr758+bK9vb2hoWFISAg9RwshZP369YsXL3ZwcPD29o6Njd2yZQt9QVV7emZmZtu3b3/55ZdlMllQUND//d//icXi7qEmTpwYGBg4adKk3NzcLsfBwsJi165dgYGB1dXVCxcu7Pzk7UB08+bNGzdudJ44p6GhAe/yfn4cHB3q6mpU7S33CktqJGJCSH3d4wdMAxbb2JDFGDbMsb8BHz16VFVVRX8zRQjZuHGjkZHRM4kzfPhwf3//pKSk1tZWe3v7119/vb9hAfTb7du3e5vsAOD54XK5eKcugP5hdH6d5tMRiUR2dnaEEOonwICQmZnp5+en6ywGqSrJ49KSQtX/PlbKZLGGu3s62P36TPgTT1BFRUVGRsabb775HBPt3cWLF1ks1qxZs3SydYAXB36Xgk7gHx6AnpFIJESfrpoCwEDhYGczxIRTWVklk8moRzfNuGaOjo7mZkN1nRoAAAAA6AZKUwDQAa7ZUK6Zx5OX6x2TyWxoaDh48GBERMSzyqqPhEKhWCyeNm3a77xdAAAAAD2G0hQABiQHB4f169frZNOd5yoDAAAAgGdCT2boBQAAAAAAgIELpSkAABCFQsFgMFgslqGhobGxsY+Pz+XLlwkhP//886RJk6hllixZIpfLe1xdy9Czkp2dPXbsWB6Pt3Llyo7/nUOru85p99eBAwcyMjLS09MXLlzYl+X7vu/ffvttQkLC02U1IPTrHAFo0SBvunuv8HpWTsbFS9ezcn65V9ja2qrrpADguUNpCgAAv6qrq2tvb5dIJK+//vqSJUs0Gs2oUaM+/fRTajQjI6O9vb3HFbUMPRMdHR2hoaHbtm178OBBbW3tE1/T1TntfmlqakpLS5szZ07fV+n7vi9atOj48eO9vYZ6oOvvOQLoTZXkcX7e7erqGmWrwoChVrYqaqolV7Nu1dbV6zo1AHi+8KwpDFJcLjczM1PXWUCv8GpZHTI3N1+1atXGjRtbWlqKi4vXrl2bk5OzbNkyqVQ6c+bMCxcubN++XSgUEkL+8pe/bN++nR7aunXrd999N3ToULFY/N133yUnJ2/atKmuru4Pf/jDZ599ZmpqGh0dffTo0fb29qlTp3799ddWVlbp6ekHDx5sbGy8e/futGnT/vKXv2zevLm+vn7Lli0rVqygU8rIyOBwOMHBwYSQDRs2vP3221u2bKFHVSrV2rVrO6dEp33q1Km///3v1GKVlZXffffdK6+80j0xOlRcXBz99trW1talS5d+//33zs7On3322aRJk+bMmRMREfHqq68SQsLDw8eNG3fr1i1q33/66adr1651DmtiYtIlKyaTuWDBgi+++OIvf/nL8z6Jvz/t5wigj2TyptKSQgtLGztb64K7vxCNihBiYWVrZ2uVV1A0fYqg83vIAUDftPxmt27devTo0aNHjzQAADAwNTU1EUIaGho0Gk1tbe3u3bsDAgI0Gs2NGzcmTpxILWNtbV1bW/vNN9+MHz++vr7+/v37ZmZmhYWF9ND58+dNTU337dv3+PHjoqIiKyuru3fvtra2Llmy5K9//evVq1cdHBwqKysbGxvnz5//z3/+U6PRnD9/nhBy48YNqVTK5/PHjx+vUCi+++67YcOGdU4vLi6Ouoqr0Wjq6+uZTKZaraZHu6fUOW16mTFjxrS0tHRPrPNiAoFAJBLRif3rX/9qb2//+OOPnZyclErl3r17V61apdFo2tvbrays7t+/T+9797A9Hqhr167NmTPnWZ45Xfvpp5+ohvZzBNBHBXdFFy9evHX7dpOipbJK8tNPmXkFIo1GU1z68OLFn+7+IqIWo//hAYB+oMpJ3NALAAC/srKyMjQ05PF4mzdvpi82dmFtbS2VSgsKCpydnWUymYfH/7wEyNHRMTIy0traOjExMTg42MvLy8jIKCoqSigUCgSC/Px8BweHxsZGNpstk8moVSZMmDBhwgRzc/Np06YtW7bMxMRk/vz5YrFYpVLRYVtaWuhrm6ampiqVqrGxsY8pEUIqKioiIiK+/vprY2Pj7onRi7W1td29e9fNzY36OGLEiBUrVrBYrHXr1rFYrNzc3MDAwHPnzhFCLl++zOfz+Xw+vW73sD1m5eHhkZ2d3a+TMlBoP0cAfSRtaCCENEilhYWFNjZWI73GeI/2LCkrF5eXEaKRSht0nSAAPEe4oRcAAH5VV1fH5XI1Gs2lS5eCgoKuXbvWfRk/P7+VK1eGh4dLpdKwsLA9e/aw2Wx61MnJiWqUl5enpaV5e3tTHy0tLZVKZWRk5NWrV93d3TsXLTY2NlSDyWRSbQODrl+bWlpaUtd1CSGNjY0sFqvzXbjdU+q8rlqtDgsL27hxI5VM98Q0Gg2DwaB2397e3tDQkBpycXGhg7i5uVVXV0+dOpXD4eTl5SUnJ3d5h1D3sL6+vt0PlJWVFYPBaGlp4XA4PZ+DAUv7OQLoI9V/JtCSy6QV4kdufKfHdQ3i8vtUJ6bXAtBvuGoKAAD/g8Fg+Pn5TZkyhZqktwuxWLx8+fLS0tJr165dunQpNTW18yiTyaQaPB4vKCgoPz8/Pz8/Kyvr2LFj+/fvl8vlBQUF58+f79c8Q4QQNze3wsJCqi0Sifh8PlVM9iWl3bt3m5iYvPPOO70lRocyNTV9/PixRqOhPpaXl9NBHj58SFXdgYGBaWlpqamp1EOVtO5hKysru2fV0tLS1tamlw/LaT9HAH1kaPjrVRNbu2FufKeHFVUWXNPh7iM0xIAQwmThmgqAPkNpCgAAXYlEopycHPoaIE2pVCYlJS1ZskSpVPJ4PDab3dzcTA91XjI4ODglJaWkpEShUERERHzyySdyuZzH4xkZGeXn5584caJfE9X6+/vX1NRcvHhRpVLFxcWFhYV1Hu0tJUJIVlbWoUOH4uPj6TKpe2L0wkOHDrWysqqsrKQ+FhUVJSQkqNXqw4cPM5lMgUBACAkMDDx48KCpqamnp2fnw9I9bI9ZlZSUeHh46GXNpv0cAfSRubkFIYRn7zTK011UVHa/tOiXeyIrKyuPEe5qwrQwN9d1ggDwHKE0BQCAX/F4PA6HY2xsPGfOnJiYmBkzZnQeDQwMnDRp0qJFiywsLOzt7UeOHDlx4sQ33niDHpJKpfTCPj4+1FxKzs7ODQ0Ne/fuXb9+/c2bNx0cHKKiomJjYxMSEm7cuNHHxJhMZmpqalRUlJubG4fDiY6O7jy6evXq7ilRDh06JJfLp06d6urq6urqeuTIke6JdQ41f/78/Px8qh0QEJCYmMjj8U6cOCEUCqnbjH19fRUKRee7eal9d3R07BK2x6zy8vLmz5/fx70eWLSfI4A+cnB0YLJYqvaWe4UlkqpyQkh93eMH98sULUpDFmPYMEddJwgAzxGjpaXlN4YQiUR2dnaEEOonAADAAFVSUrJp06bTp09rWcbFxeXs2bNjx459ivjz588/fvy4Pv25zMzM9PPz03UWoFeqJI9LSwpV//tYKZPFGu7u6WD366Pp+IcHoGckEgnBNEgAAAA0d3d3a2vr0tLS4cOHdx9tb2///vvvTUxMnq4uzc3NFQgE+lSXAjwPDnY2Q0w4lZVVMpmMmjPMjGvm6OhobjZU16kBwPOF0hQAAOC//vGPf9AzzXZx5MiRvXv3JiQkPF1kMzMz3OYK0Bdcs6Fcs65vgQIAvYfSFAAA4L+srKysrKx6HHrnnXfomX6fgru7+1OvCwAAoPcwDRIAAAAAAADoGEpTAAAAAAAA0DGUpgAAAAAAAKBjeNYUAAAAnhKXy83MzNR1FjDocLlcXacAAM8eSlMAAAB4SgKBQNcpAACAnsANvQAAAAAAAKBjKE0BAAAAAABAx1CaAgAAAAAAgI6hNAUAAAAAAAAdQ2kKAAAAAAAAOobSFAAAAAAAAHQMpSkAAAAAAADoGEpTAAAAAAAA0DGUpgAAAAAAAKBjKE0BAAAAAABAx1CaAgAAAAAAgI6hNAUAAAAAAAAdQ2kKAAAAAAAAOobSFAAAAAAAAHQMpSkAAAAAAADoGEpTAAAAAAAA0DGUpgAAAAAAAKBjKE0BAAAAAABAx1CaAgAAAAAAgI6hNAUAAAAAAAAdQ2kKAAAAAAAAOobSFAAAAAAAAHQMpSkAAAAAAADoGEpTAAAAAAAA0DGUpgAAAAAAAKBjKE0BAAAAAABAx3RTmi5dupTRzVdffdVlsbt37zIYjNjY2OeaTGJi4qxZs7hc7ujRo6Oiopqbm7UsHBISsmHDht8tNwAAAAAAgMGApZOtBgcHu7u7E0K2bdvm4ODw9ttvE0LGjh3bZTFbW9tt27b5+vo+v0x27ty5efNmFxeXxYsXFxcX79u378KFCzk5OYaGhvQyHR0dLNavB+rSpUv19fW/T24AAAAAAACDhG6umi5atGjr1q1bt24lhDg4OFBtb2/vq1evMhiMbdu2zZ8//8CBAzU1Ndu2bcvIyCCEXL58ecyYMfb29gcOHGAwGO+++25vndeuXZs0adLQoUOnT59+48YNQkiXsHQa5eXl//jHP0aOHJmXl3f06NGffvrpvffeu3Pnzqeffkqt8s4770yePHnIkCGvv/56a2vr7Nmza2trf/rpp0WLFnXO7caNG7NmzTI1NfX09Pz444/pLUZERMycOdPU1DQoKIi6GLtjx45hw4YNGTJkxowZOTk5Ojj0AAAAAAAAL54X8VnT/fv3i8ViZ2dnuqehoWHhwoUymeydd9759NNPtXRKpdJXXnmlo6Pjn//8Z11d3R//+EeZTNZb2MzMTKVSuXbtWjMzM6rnvffeI4T8+9//pj4ePnzY399/wYIFiYmJe/fuTUxMtLCwmDp16ueff04Hqa+vnzdvXllZ2c6dO93c3CIiIpKSkqihY8eO+fj4CASCs2fPxsfHX7hwITY2dvr06Xv37n348OHixYufx9EDAAAAAAAYcF7E0tTf3z8/Pz84OJjuSU1NlclkmzZt2rRp0759+57YuXbt2qCgoBUrVlRVVV26dKm3sA8ePCCE8Pl8usfCwsLMzKy0tJT6OG/evI8++igxMdHExOT06dM8Ho/JZBobG9vY2HTOrb6+fuPGjRERESdPnmQwGMePH6eGli9ffvDgwUOHDhFCSktLa2pqCCG1tbVWVlYpKSlffvmlWq1+pkcOAAAAAABgQNLNs6bazZgxo0vPw4cPCSE+Pj6EkKlTp2rpLC8vJ4SsWrWKXlckEk2fPr3HsC4uLnQcikwmk8vlkydPpj6OHz+eEMJms8eMGXP//v0es62oqCCETJw4kRBibW3t6upK5UDHt7S0JISo1epXX311+fLlp06dunjxIovFWr9+ffeUAAAAAAAABqEX8aopk8ns0mNra0sIKSgoIITk5uY+sfPChQsajUapVEokknXr1vUW1tfXl81mf/rpp42NjVTPhx9+SAiZO3cu9fHOnTuEkLa2trt37w4bNozq1Gg0nYNQ/VQCdXV1Dx48cHJy6nG/6uvr//a3v9XU1Hz77bfe3t579+6lL88CAAAAAAAMZi/iVdPuFixYwGazd+zYIZVK6dtle+vkcDgffPBBbW3t559/funSpby8vN7C8vn8mJiYrVu3jhs3bt68eSUlJT/++KO3t3dERAQ1f9L58+c3b95cWFioUCjCwsIIIUOHDi0rK7tx4waHw6GCBAUFmZubf/DBBwwG49y5c2q1+s033+xxcydPnoyOjo6KihIIBIaGhmw229TU9BkeJQAAAAAAgAHqRbxq2p2Tk9PXX39tYGDw4Ycfvvbaa9o7U1JSqqur33rrLalUmpaWNnLkSC2Rt2zZ8tVXX9nZ2X311VdisXj9+vXXr183MjKiRletWvX9999nZGSsX78+IiKCEBIZGdna2kpNw0uxtrZOT093cXF57733CgsL4+LiQkNDe9xWZGTkmjVrvvrqq1WrVrW0tJw6dYq6xgsAAAAAADDIMVpaWn5jCJFIZGdnRwihfj4PtbW1paWlrq6utra2N2/enDhx4ocffrh8+fLunX//+9+fyRavXr06c+bMPXv2REVFPZOAAAAAAAAA0J1EIiED5appSUnJ1KlTw8LCqMuSDAbDz8+vx05dZwoAAAAAAAD9NjBK06lTp+7du7eoqGjcuHHXr1//7LPPpkyZ0mOnrjMFAAAAAACAfhsYN/QCAAAAAACAXhpIN/QCAAAAAACAHtPNy2Nu376tk+0CAAAAAADAsyIQCJ5VKN2Ups9wBwAAAAAAAGCgww29AAAAAAAAoGMoTQEAAAAAAEDHUJoCAAAAAACAjqE0BQAAAAAAAB1DaQoAAAAAAAA6ppsZegEA9M/t27dlMpmus4BecblczA8PAADwwkJpCgDwbMhkMj8/P11nAb3KzMzUdQoAAADQK9zQCwAAAAAAADqG0hQAAAAAAAB0DKUpAAAAAAAA6BhKUwAAAAAAANCxgV2aKhQKBoPx0Ucf0T0XLlyYNm3aU4RKT09fuHDhs0uN7Nq1y9nZubq6mvpIpdp59s64uLhFixb1N6xKpTI0NHxmWXbz5ptvGhoaGhoaMhgMJpNJtX/++efOy/z888+TJk16fjkA6IHs7OyxY8fyeLyVK1d2dHToOp1BoUHedPde4fWsnIyLl65n5fxyr7C1tbVfESoqKnbu3Hnw4EFCSGVl5eHDh/fs2XPmzBm1Wt2X1ePj49//j1OnTnUeOnXqVF1dHf1RJBJ9/PHHu3fvjo+Pf/z4MSFEKBR+8MEHly9f7lfCAAAA+mRgl6aU3bt3P3jwQNdZdHXw4MGcnBwej6frRPrnxIkT7e3t7e3tM2fO/Prrr6n2lClTOi8zatSoTz/9VFcZArz4Ojo6QkNDt23b9uDBg9ra2l27duk6I/1XJXmcn3e7urpG2aowYKiVrYqaasnVrFu1dfX9ijNs2LCIiAi1Wi0UCv39/f/61782Nzf3sWKUSqURERGbNm3atGnTa6+9RnUqlco7d+4UFxfTiykUipSUlIULF0ZFRTk6Op4+fZoQEhIS0uU3LQAAwGCjD6XpunXr1q5d26Wz81XQ9PT0+fPnp6enL1iwwNfX18rKKjAwMC0tbfz48S4uLl988QW1WGtr69KlS62trX18fHJycqjO5OTkUaNG2drahoaGNjY2pqenh4WFrVmzJjAwsPPm4uPj3d3dbW1tly5dKpfLly1bVltbO3v2bPqqqXbR0dHW1tZcLnfevHnUN+tdNnT06FE+n+/i4rJ//35qlVmzZn3zzTeEkCNHjrBYrKamJkLIggULjh492peAXfbriRl2Xr24uJg+4CdPnnR1dXV1dd2yZYurq6uWTi1HUqVSrVmzxsbGxsbGZsuWLX05YgAvsoyMDA6HExwczOFwNmzYkJiYqOuM9JxM3lRaUmhhaTN2jBdhMKlOCyvbMaOG5xUU9ffaKSHk/v37hoaGo0aNYrFY06dPLygoeOIqHR0dra2tFhYW1M0mLNav72b74YcfcnNzGQwGvWRVVZW1tTWfz2ez2b6+vrW1tU+RIQAAgP7Rh9I0JiamsLDw22+/feKS586d279/f2lp6d27d2NjY69evXro0KFt27ZRoz/++KO/v79EIlm+fHlISEhbW1txcfGqVauEQmFFRYVaraaqpjNnznh6esbHx9Nhb9++vXHjxjNnzjx8+LC9vX3z5s0JCQkWFhbXr1/vy1XTa9euJSQk5OXlVVZWMpnM48ePU/30hnJzc6Ojo1NSUkQiUVZWFjX60ksvXblyhRCSlZVlYmKSk5Oj0WiuX7/+0ksvPTFgj/v1RN13/N69e++999758+fz8vLoqwo9dmo/ksnJydnZ2UVFRTk5OXFxcUVFRX3JB+CFJRKJRo8eTbVHjx5dVFSk0Wh0m5J+E4srVR0dHe2tHJMhHh4eDIaBlY39OO9RjYpWA42y7P7D/gasra21sbGh2ra2tp3vxe1NQ0ODgYHB559//uGHH548eVIqlVL9gYGBb731lomJCb0kn89/4403qPajR48sLCyMjY37myEAAID+0YfS1NjY+PDhw+vXr5fL5dqXnDBhwoQJE8zNzadNm7Zs2TITE5P58+eLxWKVSkUIGTFixIoVK1gs1rp161gsVm5ubmJiYnBwsJeXl5GRUVRUlFAoJIQ4OjpGRkZaW1vTYYVCYXh4uJeXF4fD2b59O7VYj6ysrAz/429/+xvVKRAI8vPzHRwcGhsb2Ww2/TwqvaHk5OTw8HCBQMDhcN5//31qtHNpumLFimvXrv3yyy9cLtfNze2JAXvcryfqvuNJSUnLli3z9PQ0NTXdsGGDlk7tR9La2loqlRYUFDg7O8tkMg8Pj77kA/DCamlpMTU1pdqmpqYqlaov9ybAU5M2NBBCGqTSwsJCGxurkV5jvEd7lpSVi8vLCNFIpQ39DdjR0WFkZES12Wy2RqNRKpXaV1EqlU5OTq+99tq7775rZ2en5dtSQ0NDDodDCCksLBQKhXPnzu1vegAAAHqJpesEno2XX37Z398/Jibm1Vdf7T5KX6+gvwVnMplU28Dgv8W5i4sL3XZzc6uuri4vL09LS/P29qY6LS0tNRqNk5NTl/gSiWT8+PF0EIlE0tsVkrq6Oi6XS7Xj4uJ++uknQkhbW1tkZOTVq1fd3d07//8rvSGJRCIQCKg2n8+nGlOnTi0pKXnw4AGTyQwMDNy3b5+tre0f/vCHvgTscb8632/Wo+47XllZSe/4sGHDtHRqP5J+fn4rV64MDw+XSqVhYWF79uxhs9nakwF4kVlaWlL32BNCGhsbWSwWXanC86Durs1/AAAgAElEQVT6z0RTcpm0QvzIje/0uK5BXH6f6nyKaag4HE5bWxvVbmtrMzAwoCtVQsitW7eobwZnzZpF/3J2dHQMDQ2l2rNnz961a1dLSwtVgnbX2tp69uzZmpqaxYsXd//VCgAAMDjpSWlKCNm3b9/o0aMdHBzoHnpOxTt37vQlQnl5Od1++PChk5MTj8cLCgo6cuQIIUShUBQWFj5+/JjJZHZZ0c7OrqKigg7C4/GeWOZ1yVwulxcUFBgbG8fGxtL99Ibs7e3peZ7oJA0NDadPn37gwIGpU6dOmTIlJyfHyspqwYIFfQnYfb/6krD2Ha+qqtLSqf1IisXi5cuXx8TEiESiP//5z6mpqfQMIgADkZub2+HDh6m2SCTi8/n9+p0A/WVoyGpTthNCbO2GufGdHlZUOdrzhruPKCkpYRA1k9Xvv3QWFhb0jAO1tbXm5uadR8ePH09/AUcTi8VqtdrZ2ZkQQj07yuplu2q1+ssvv3R0dAwJCen89SgAAMAgpz9/FHk83s6dO3fs2EF9NDU1vX79enV1dVNTUx/nICkqKkpISFCr1YcPH2YymQKBIDg4OCUlpaSkRKFQREREfPLJJz2uuGjRIuoBTqVSuXXr1uDg4H5lLpfLeTyekZFRfn7+iRMn6K/qacHBwfHx8QUFBW1tbfSTsYSQl1566Ysvvpg2bdrQoUOdnJxSUlJmz57dx4B92a8nWrRoUUJCQllZWXNz84EDB6j/+e6xU/sWk5KSlixZolQqeTwem81ubm5+unwAXhD+/v41NTUXL15UqVRxcXFhYWG6zkjPmZtbEEJ49k6jPN1FRWX3S4t+uSeysrLyGOGuJkyL/y0s+4LP5ysUigcPHmg0mqysrLFjxz5xlebm5tOnT9fW1lKrDB8+vLcXfYlEIo1GM3fuXI1Go1KpqCdKAAAAQH9KU0LI22+/PW7cOKo9ZcqU0NBQHx+fYcOGvfTSS31ZPSAgIDExkcfjnThxQigUGhgY+Pj47N69OyAgwNnZuaGhYe/evT2u6OPjs2PHjoCAABcXFyaT2d8XRaxfv/7mzZsODg5RUVGxsbEJCQk3btzovIBAINi1a1dgYCCXy9VoNPTTni+99FJTUxP1HteZM2e6urra2tr2JWAf9+uJfHx8YmNjfX19J02a5OvrS11Y6K1TyxZXr15tYWFhb28/cuTIiRMn0hOEAAxQTCYzNTU1KirKzc2Nw+FER0frOiM95+DowGSxVO0t9wpLJFXlhJD6uscP7pcpWpSGLMawYY79DchgMF5//fX09PS4uDhDQ8OZM2c+cRUPD4/p06cnJibu3bu3vr6+x6dLKI8ePaqqqtrRyRMfZAUAABgMGC0tLb8xhEgksrOzI4RQP2HwyM7OTkpK2r17N5vNjomJqa+vP3z4cI+dus4U4PeQmZnp5+en6ywGqSrJ49KSQtX/PlbKZLGGu3s62P06y8ATT1BFRUVGRsabb775HBPt3cWLF1ks1qxZs3SydQAAAB2SSCREn541hd+fQCBISkqaPXt2U1MTn8+nXqnaYycAwHPlYGczxIRTWVklk8mo+YfMuGaOjo7mZkN1nRoAAAD0CUpTeHpsNrv7zcA9dgIAPG9cs6Fcs9/06ikmk9nQ0HDw4MGIiIhnlVUfCYVCsVhMPaABAAAwOKE0BQAAIIQQBweH9evX62TTISEhOtkuAADAi0OvpkECAAAAAACAgQilKQAAAAAAAOgYSlMAAAAAAADQMTxrCgDwbHC53MzMTF1nAb3icrm6TgEAAAB6hdIUAODZEAgEuk4BAAAAYKDCDb0AAAAAAACgYyhNAQAAAAAAQMdQmgIAAAAAAICOoTQFAAAAAAAAHUNpCgAAAAAAADqG0hQAAAAAAAB0DKUpAAAAAAAA6BjeawoA8Gzcvn1bJpPpOgvoFZfLxbtnAQAAXlgoTQEAng2ZTObn56frLKBXmZmZuk4BAAAAeoUbegEAAAAAAEDHUJoCAAAAAACAjqE0BQAAAAAAAB1DaQoAAAAAAAA6NrBLU4VCwWAwPvroI7rnwoUL06ZNe4pQ6enpCxcufHapkV27djk7O1dXV1Mf33zzTUNDQ0NDQwaDwWQyqfbPP//ceZWff/550qRJzzCH/kpPT58/f37nxm+xZMkSuVyufRmVSmVoaPgbNwTwAkpJSRkxYoSZmZmfn9/du3d1nc6g0CBvunuv8HpWTsbFS9ezcn65V9ja2tqvCBUVFTt37jx48CAhRCQSffzxx7t3746Pj3/8+HFfVo+Pj3//P06dOtV56NSpU3V1dfTH7sGFQuEHH3xw+fLlfiUMAACgTwZ2aUrZvXv3gwcPdJ1FVwcPHszJyeHxeNTHEydOtLe3t7e3z5w58+uvv6baU6ZM6bzKqFGjPv30U10k+1xkZGS0t7frOgsAHaipqQkPDz969GhVVdXkyZP/9Kc/6Toj/VcleZyfd7u6ukbZqjBgqJWtippqydWsW7V19f2KM2zYsIiICIVCkZKSsnDhwqioKEdHx9OnT/dlXalUGhERsWnTpk2bNr322mtUp1KpvHPnTnFxMb1Yj8FDQkK6/EUAAAAYbPShNF23bt3atWu7dHa+CkpdA0xPT1+wYIGvr6+VlVVgYGBaWtr48eNdXFy++OILarHW1talS5daW1v7+Pjk5ORQncnJyaNGjbK1tQ0NDW1sbExPTw8LC1uzZk1gYGDnzcXHx7u7u9va2i5dulQuly9btqy2tnb27Nn0VdPedA5YXFxM78jJkyddXV1dXV23bNni6uqqpVNLhiqVas2aNTY2NjY2Nlu2bOmy6ejoaGtray6XO2/evM5f53fRZdcIIadOnRoxYoSVldWKFSs6Ojp6DLVs2TKpVDpz5szq6uouGRJCjh49yufzXVxc9u/fr/34AAxEOTk5I0eO9Pf3Hzp06ObNmwsLCxsaGnSdlD6TyZtKSwotLG3GjvEiDCbVaWFlO2bU8LyCov5eOyWEVFVVWVtb8/l8Npvt6+tbW1v7xCAdHR2tra0WFhbUTTEs1q/vZvvhhx9yc3MZDMZvCQ4AADAY6ENpGhMTU1hY+O233z5xyXPnzu3fv7+0tPTu3buxsbFXr149dOjQtm3bqNEff/zR399fIpEsX748JCSkra2tuLh41apVQqGwoqJCrVZT1d2ZM2c8PT3j4+PpsLdv3964ceOZM2cePnzY3t6+efPmhIQECwuL69ev01dNtege8N69e++999758+fz8vLo+7t67NSeYXJycnZ2dlFRUU5OTlxcXFFREb2Ja9euJSQk5OXlVVZWMpnM48eP95hb9127d+9eVFRUWlraL7/8kp+ff+zYsR5DUUfgypUrcrm8S4a5ubnR0dEpKSkikSgrK+uJxwdgwPH39z937hzVzs3NdXV1NTc3121K+k0srlR1dHS0t3JMhnh4eDAYBlY29uO8RzUqWg00yrL7D/sbkM/nv/HGG1T70aNHFhYWxsbG2ldpaGgwMDD4/PPPP/zww5MnT0qlUqo/MDDwrbfeMjEx+S3BAQAABgN9KE2NjY0PHz68fv36Jz7ZOGHChAkTJpibm0+bNm3ZsmUmJibz588Xi8UqlYoQMmLEiBUrVrBYrHXr1rFYrNzc3MTExODgYC8vLyMjo6ioKKFQSAhxdHSMjIy0tramwwqFwvDwcC8vLw6Hs337dmqxvuseMCkpadmyZZ6enqamphs2bNDSqT1Da2trqVRaUFDg7Owsk8k8PDzoTQgEgvz8fAcHh8bGRjabLZPJesyt+66dPn166dKlHh4ePB7v2LFj48aN0x6qe4bJycnh4eECgYDD4bz//vv9OlYAA8KQIUMsLS0JIampqaGhoXv27NF1RnpO2tBACGmQSgsLC21srEZ6jfEe7VlSVi4uLyNEI5X2+5K1oaEhh8MhhBQWFgqFwrlz5z5xFaVS6eTk9Nprr7377rt2dnZavi19iuAAAACDAUvXCTwbL7/8sr+/f0xMzKuvvtp9VKPRUA0bGxuqwWQyqbaBwX+LcxcXF7rt5uZWXV1dXl6elpbm7e1NdVpaWmo0Gicnpy7xJRLJ+PHj6SASiYTeYl90D1hZWUkHHDZsmJZO7Rn6+fmtXLkyPDxcKpWGhYXt2bOHzWZTQ21tbZGRkVevXnV3d6dusu1R910Ti8V0z5gxYwghDQ0NWkJ1z1AikQgEAuojn8/vyyECGHCkUunbb79dUFDw7bffzpgxQ9fp6DlVRwfVkMukFeJHbnynx3UN4vL7VGfHf0b7pbW19ezZszU1NYsXL+7yW/rWrVtXrlwhhMyaNYv+bebo6BgaGkq1Z8+evWvXrpaWFqoE7VdwAACAQUtPSlNCyL59+0aPHu3g4ED3qNVqqnHnzp2+RCgvL6fbDx8+dHJy4vF4QUFBR44cIYQoFIrCwsLHjx8zmcwuK9rZ2VVUVNBBeDxe58eKnkh7wKqqKi2d2jMUi8XLly+PiYkRiUR//vOfU1NT6Zk59u3bJ5fLCwoKjI2NY2Nje8ut+67xeDx66zk5ORUVFbdv39YSqnuGKSkp9LRVnY85gN5ob28PCAiYPHny119/jTmofweGhqw2ZTshxNZumBvf6WFFlaM9b7j7iJKSEgZRM1n9/kunVqu//PJLR0fHkJCQzt9gUsaPH09/Q0cTi8VqtdrZ2ZkQQj07yuplu9qDAwAADFr680eRx+Pt3Llzx44d1EdTU9Pr169XV1c3NTUlJib2JUJRUVFCQoJarT58+DCTyRQIBMHBwSkpKSUlJQqFIiIi4pNPPulxxUWLFsXHxxcXFyuVyq1btwYHB//GfVm0aFFCQkJZWVlzc/OBAweoQrfHTu0ZJiUlLVmyRKlU8ng8Npvd3NxMD8nlch6PZ2RklJ+ff+LEiba2tj7uWnBwcHx8fFlZWV1dXWRkZEVFhZZQSqWye4ZUhIKCgra2NvpBXwB9kpqaqlar9+zZo1arlUqlUqnUdUZ6ztzcghDCs3ca5ekuKiq7X1r0yz2RlZWVxwh3NWFa9P9BX5FIpNFo5s6dq9FoVCoV9dCHds3NzadPn66trdVoNFlZWcOHD+/tW4mnCA4AADAY6M9VU0LI22+/feLECepm2ilTpoSGhvr4+CgUipUrV/blvYIBAQGJiYlRUVHDhw8XCoUGBgY+Pj67d+8OCAiQSqX+/v7/+te/srOzu6/o4+OzY8eOgIAAhULx8ssv79q16zfuiI+PT2xsrK+vL5fLDQ0Npd5611unlgxXr159+fJle3t7Q0PDkJAQeuINQsj69esXL17s4ODg7e0dGxu7ZcsW+oKq9l0zMzPbvn37yy+/LJPJgoKC/u///k8sFncPNXHixMDAwEmTJuXm5nbJ0MLCYteuXYGBgdXV1QsXLuz8kC2Afrh58+aNGzc6z23T0NDA5XJ1mJJ+c3B0qKurUbW33CssqZGICSH1dY8fMA1YbGNDFmPYMMf+Bnz06FFVVRX9XSchZOPGjUZGRlpW8fDwmD59emJiYmtrq7Ozc49Plzx1cAAAgMGA0dLS8htDiEQiOzs7Qgj1E3677OzspKSk3bt3s9nsmJiY+vr6w4cP99ip60wB4L8yMzP9/Px0ncUgVSV5XFpSqPrfx0qZLNZwd08Hu19nGXjiCaqoqMjIyHjzzTefY6K9u3jxIovFmjVrlk62DgAAoEMSiYTo2VVTvSEQCJKSkmbPnt3U1MTn848ePdpbJwAAEEIc7GyGmHAqK6tkMhk1/5AZ18zR0dHcbKiuUwMAAIA+QWn6ImKz2Xv37u1LJwAAULhmQ7lmHk9erndMJrOhoeHgwYMRERHPKqs+EgqFYrF42rRpv/N2AQAAXhwoTQEAAAghxMHBYf369TrZdEhIiE62CwAA8OLQnxl6AQAAAAAAYIBCaQoAAAAAAAA6htIUAAAAAAAAdAzPmgIAPBtcLjczM1PXWUCv8GpZAACAFxlKUwCAZ0MgEOg6BQAAAICBCjf0AgAAAAAAgI6hNAUAAAAAAAAdQ2kKAAAAAAAAOobSFAAAAAAAAHQMpSkAAAAAAADoGEpTAAAAAAAA0DGUpgAAAAAAAKBjeK8pAMCzcfv2bZlMpussoFdcLhfvngUAAHhhoTQFAHg2ZDKZn5+frrOAXmVmZuo6BQAAAOgVbugFAAAAAAAAHUNpCgAAAAAAADqG0hQAAAAAAAB0DKUpAAAAAAAA6NjALk0VCgWDwWCxWIb/MXHixJ9//nnSpEl9WX3JkiVyuVx7T9+jPYXum9NCpVIZGho+RUrp6enz589/mvwA4FnIzs4eO3Ysj8dbuXJlR0eHrtMBAAAAeBEN7NKUUldX1/4fN27cGDVq1KefftqXFTMyMtrb27X39D3aU+i+ub54rikBwLPV0dERGhq6bdu2Bw8e1NbW7tq1S9cZAQAAALyI9KE07aK4uHjt2rWEkPT09LCwsDVr1gQGBqpUqjVr1tjY2NjY2GzZsoUQsmzZMqlUOnPmzOrqampFuicxMZFekY5GCDl58qSrq6urq+uWLVtcXV21dCYnJ48aNcrW1jY0NLSxsbFzJnSenROIj493d3e3tbVdunRpl+uoR48e5fP5Li4u+/fv77KD3XcqPT09KCjopZde4nK5kyZNunPnTpeDEx0dbW1tzeVy582bV1dXRwiZM2dOSkoKNRoeHk5vBQCeiYyMDA6HExwczOFwNmzYkJiYqOuMAAAAAF5EeliadnbmzBlPT8/4+Pjk5OTs7OyioqKcnJy4uLiioqKEhAQLC4srV67weDxqYbrHwsKCXpEOde/evffee+/8+fN5eXmXL1/W0llcXLxq1SqhUFhRUaFWq6misXtAenOPHj3auHHjmTNnHj582N7evnnzZnqZ3Nzc6OjolJQUkUiUlZXVZe+67xQh5OzZs4sXL66rq3vzzTdDQkJUKhW9/LVr1xISEvLy8iorK5lM5vHjxwkhgYGB586dI4R0dHR89913ixYtekbHHgAIIUQkEo0ePZpqjx49uqioSKPR6DYl/RATE9PHTgAAABgQ9KE0tbKyop81vXr1auchR0fHyMhIa2tra2trqVRaUFDg7Owsk8k8PDy0x6RXpHuSkpKWLVvm6elpamq6YcMGLZ2JiYnBwcFeXl5GRkZRUVFCobDHgDShUBgeHu7l5cXhcLZv304tT0lOTg4PDxcIBBwO5/333++yYo875erqunr1ahaLtW7dOrVafevWLXp5gUCQn5/v4ODQ2NjIZrNlMhnpVJpevnyZz+fz+XztRwYA+qWlpcXU1JRqm5qaqlSqxsZG3aakB6gStEsh2mMnAAAADBT6UJp2ftZ0xowZnYecnJyohp+f38qVK8PDw62trSMiItra2rTHpFekVVZWOjs7U+1hw4Zp6SwvL//uu++8vb29vb2XL19uaWmp0Wi6B6RJJBI6iIuLi0QioS+qSCQS+ibh7kVjjzvl4uJCL+Dm5lZZWUl/bGtri4yMdHd3f+uttx4/fkx1enh4cDicvLy85OTkkJAQ7YcFAPrL0tKyqamJajc2NrJYLLpShae2c+dOqkEXonSDHgIAAICBRR9KUy2YTCbVEIvFy5cvLy0tvXbt2qVLl1JTU/u4Is3Ozq6iooJqV1VVaenk8XhBQUH5+fn5+flZWVnHjh1jMBjdA/YYuby8nMfjMRgM6qO9vf2DBw/ooS4r9rhTnRcrLy+3s7OjP+7bt08ulxcUFJw/f37OnDl0f2BgYFpaWmpqanBwsPbDAgD95ebmVlhYSLVFIhGfz6f/A4ffonN1iroUAABAD+h5aUpLSkpasmSJUqnk8XhsNru5uZnqVyqVXZbs3kNZtGhRQkJCWVlZc3PzgQMHqP+57LEzODg4JSWlpKREoVBERER88sknWhJTKpWLFi2Kj48vLi5WKpVbt27tXB8GBwfHx8cXFBS0tbVt27atLztVVlZ27NgxtVr92Weftbe3+/j40MvL5XIej2dkZJSfn3/ixAn60nFgYODBgwdNTU09PT2ffCgBoD/8/f1ramouXryoUqni4uLCwsJ0nZH+6FKIoi4FAAAY0AZLabp69WoLCwt7e/uRI0dOnDjxjTfeIIQEBgZOmjSJnqGX7pFKpd0j+Pj4xMbG+vr6Tpo0ydfX19zcXEvn7t27AwICnJ2dGxoa9u7d21tW1OYcHR137NgREBDg4uLCZDI7v1tCIBDs2rUrMDCQy+VqNJouj6r2uFPTpk07f/48j8f7/PPPhUIh9SpUyvr162/evOng4BAVFRUbG5uQkHDjxg1CiK+vr0KhwN28AM8Dk8lMTU2Niopyc3PjcDjR0dG6zkiv0OUo6lIAAICBjtHS0vIbQ4hEIuqu0c73juqf7OzspKSk3bt3s9nsmJiY+vr6w4cP99ipwyTT09MPHDjw/fff93dFFxeXs2fPjh079nlkBTBIZGZm+vn56ToL6BVOEAAAwItJIpGQwXPV9LcTCASEkNmzZ48bN66goICaL7fHzoGlvb39zJkzJiYmqEsBAAAAAEBXWLpOYMBgs9ndb83tsVOHxo0bt3Hjxn6tcuTIkb179yYkJDynlAAAAAAAAJ4IpalesbOz6+9t1e+8884777zznPIBAAAAAADoC9zQCwAA/7+9e4+Rqrz7AH5wV3ZBrio7MIrIRcSlKXJRiQpbgqLsRtwFTbMNCkuiTbU2BGmiJSoajbE2RolUTYoKmFQuctF0UVpK0W2LClJEQFZLFJAFb4iA7CAs7x+Td959d4YFdJkHls/nD3L2meec53dOch7Od86ZGQCAwERTAAAAAhNNAQAACEw0BQAAIDBfgwTQNNq3b79ixYrQVXBE7du3D10CAHBEoilA00j+0DEAAD+AB3oBAAAITDQFAAAgMNEUAACAwERTAAAAAhNNAQAACEw0BQAAILBT+Mdj/H4gAABAFhQVFZ3oIU7haBpF0dVXXx26BCAbqqqqnO8Ax860CTShqqqqLIzigV4AAAACE00BAAAIrJlE04qKivz8/Pz8/Nzc3JYtWyaX33nnnfp93nnnnSuuuOIEFTBw4MBXX3113759ubm5eXl5+fn5HTp0GD58+Nq1a0/QiHA6q3+u5eXlFRQUjB8/fv/+/U07yqOPPtq9e/fXX3+9aaeOpUuX3njjjemNJSUlja+Y3Ovy8vL6jffee29ubu6GDRsaX/fQoUP5+flHqueoQ0dRVF5e/u233x61vN27dx91U41rpFTgB/vBZ2jGKSslOTM03qeB4NdswEmrmUTTF154oba2tra29qqrrnrppZeSy5dffnn9Pn369Hn66aezUMznn39eW1v7ySefjB49etiwYVu3bs3CoHAaSp5riURixYoV77333vTp05t2+08//fTKlSuvvPLK7Ewdx+jNN9+sH8IXLVrUunXrLIy7fPny77//PgsDAaeQHzAznFTXbMBJpZlE0yNZunTprbfeescdd4waNerjjz/+9a9/nWx/6aWXevXq1atXr6lTp/bq1auRxkWLFv3kJz/p0qXL2LFj9+zZU3+DjQ/doUOHO++8s7S09MknnzxxOwhEUXTJJZcUFRWl3gZqcNpGUfTyyy/36dOnoKDgtttuO3jwYBRFM2fOvPjii7t06TJu3LjkW/7l5eVjxow577zzrr322rVr144fP/7LL7+85ppr3n777Uamjvr3CpK3HxvMElOmTInFYmefffbIkSO/+uqrZM/a2tpx48bFYrFBgwatWrWqwe6k11/f0KFDX3/99eTyunXrOnToUFBQkPyzwU5FUfSnP/2pZ8+ePXr0SE1E6QUfy9Djx4/ftWtXUVHRzp0700dpXHr/jMckvVQgC9LP0PQJM2nTpk0XXnjhP//5z1RLambYtWtXIpG47bbbLrzwwmuvvfb999+PjjaVpQt4zQacJJp5NI2i6LXXXuvdu/fzzz+fatm4ceO99977l7/8Zc2aNW+99VYjjR999NEvf/nLuXPnfvLJJ3V1dVOnTs24wUaMGDHivffea+JdAv6/9evXp1JW+mm7cePG3/72t6+++uq6devWrVv3wgsvrF279ne/+93ChQs3b978/fff33///VEULViw4NZbb/3000979er1+9///sUXX+zYsWNVVdU555yTHCXjLJFRapb497//PXv27DVr1mzZsiUnJ+fFF19Mdli2bFlRUdFnn31WUVFx8803HzhwILVuxmmnvptuumn+/PnJ5QULFowZMya5nL5Ta9asmTJlyoIFC9avX//2228f9TA2MnTyaKxYsWLHjh3ph64R6VVlPCbHWyrQJNLP0PQJM9mzpqZm1KhRTz311FVXXZVaPTUzdOzY8W9/+1tpaenmzZt/+tOf/uEPfzjqVJZR2Gs2ILjmH03PO++8iRMnnnvuuamWefPm3XLLLRdffHHbtm3vvvvuRhrnzJlTVlZWWFiYl5c3adKkBQsWZNxgIwoKCmpqapp6n4AoiqJ4PN6mTZvWrVv369dv6NChI0aMiDKdtvPmzRs7dmzv3r1jsdiMGTP69eu3YMGCcePGFRYWtmrVaurUqclT+5xzzhk1alRubu6oUaO++eab9OEyzhIZpWaJfv36/ec//4nH43v27GnZsmXqHuNFF100YcKE3NzcO++8Mzc3d82aNal1M0479Y0cOXL58uW1tbVRFL3yyitlZWXJ9vSdWrRo0bhx4/r165dsOerxPOrQGUdpfJvp/TMek+MtFWgS6Wdo+oQZRdHu3btLSkquuOKKRj5QGo/HS0pKzjjjjGHDhu3evftY5pN0Ya/ZgOBO7d81PRbnn39+g5bPPvvs0ksvbfBqxsatW7dWVlYm5+Uoijp27Hj48OH0DTbi888/79Klyw8uHmjE9u3b27dvH0XR6tWrR44cOXbs2ORjvQ1O223btvXv3z/5Z9++faMomjFjRup879at244dOw4fPtyvX78WLVpEUZSTk5NxuIyzRH2HDx9u8OqBA5MeH2wAABAISURBVAfuvvvuf/3rXz179qz/PNsFF1yQWu7evfvOnTtTX/yTcdpJFpbUunXrIUOGvPHGG5dccsmZZ57Zs2fPZPuOHTsa7FRNTU39lkYKPsahM46S3qfx/olEIv2Y7NixIzVuxlKBEyH9DE2fMJcuXVpVVfWb3/zm+eef37Zt25GuglKn8BlnnBEd23ySLuw1GxBc84+m6VeZnTt33rZtW3J5+/btjTTGYrEbbrjhj3/8YxRF+/btq66u/uKLL4502ZrRX//61wEDBvyY+oGjGjhw4LBhw9auXVtUVJR+2i5cuDD18MKqVau2bt1a/3zfsmVLLBZr0aJF8nKqERlniSiK6urqkgupb+ROzRJPPvnkt99+u3bt2vz8/AceeCC1Sv1vR9uyZUvXrl2/+OKL5J/p9adfzI0ZM2b+/Pl9+/ZNPc3boLzkTsXj8U8//TTV0kjBxz50xkOX8XAdqf9TTz2Vfky6dOmSsVTghEo/Qzt37txgwjzrrLOGDRv2xBNP7Nu377777ks94ttAgyn0WOaTdGGv2YDgmv8DvelKS0tnz569efPm77777qmnnkrOlRkby8rKFi9e/PHHH+/bt2/ixInH9f2fe/fufe655xYuXDhx4sQTtSfA/+rUqdPevXujTKdtWVnZzJkzN2/e/NVXX02aNGnr1q2lpaUzZ8786KOPEonEgw8+mHomtnEZZ4m2bduuXLly586de/funTNnToNVvv3221gslpeX98EHH8yaNSv1mdLq6urZs2fX1dU9++yzOTk5qbf5M9afXklxcfGyZctefvnl0aNH1y+vwU4ld3z9+vUHDhx46KGHkt0aKfioQycSieM9dOn9Mx6TjKUCJ9qR5o36E2YURcmvAX/wwQcXL15c/wMISYlEIn3LP+YKqkGFWbhmA04Sp2M07d+//5QpU4YNGzZ48OAhQ4YkHwg8UuMjjzxSUlLSvXv3b7755vHHHz+W7Sc//9a1a9e5c+f+/e9/79q164ndHyCKevTokfxkUfpp279//6lTp15//fWFhYW9e/f+1a9+1b9//4ceeqikpKRHjx45OTkPP/zwsQyRcZa4/PLLy8vLL7vssm7dug0fPrzBKnfdddfq1au7du06efLkKVOmzJ49e/Xq1VEUXXfddXPmzInH47NmzZo3b179uw3HMu20adPmyiuvrKur69OnT/0VG+xUv379Hn744VGjRp199tmHDx9OftqqkYIbH7qkpGTw4MHxeLzxQ5ecAJNmzpyZXlXGY5KxVKDJHfUMTZ8wU+t27tx58uTJkydPrr/B5Mywa9euBgP9sCuodCf6mg04qbT48T9S/+GHH3bu3DmKouS/WbNixYqrr776B6z47rvvzp0795FHHmnZsuV999339ddfT58+PWNjk9cM/DBVVVU/7HxvQmYJ4BRyMkybP55rNjhJVFVVFRUVnbjt79ixIzo975omn50bPnx4//79P/jgg+SHnTI2AqSYJQCyzDUbnFZOx7umwCmnebz9D5A1pk2gCWXnrump/Q29VVVVoUsAssT5DnBcTJvAqeXUjqbeDoTThLf/AY6LaRNoQtl5q+t0/KwpAAAAJxXRFAAAgMBEUwAAAAITTQEAAAhMNAUAACAw0RQAAIDATu0fjwEAAI5FIpH46qsvM77Upk3bdu3aZbkeaEA0BYjKy8ufe+659P+Vly5dOn369MWLFwepCgCaRCKRWFJZub1meyN94l3iI4uL8/LyslYVNCCaAkTLly///vvvQ1cBACfEksrK/fv3Xzv8mj6FhRk7fLhhw6rVq5dUVpaWlWW5NkhpPp81fffddy+99NJ4PH777bcfPHgwdDlANixduvTWW2+94447Ro0atXTp0htuuOFnP/tZQUHBqFGjKisrBw4c2KNHj+eff77+KocOHbrjjjs6d+7cuXPnqVOnRlE0fvz4Xbt2FRUVzZkz58Ybb0xtuaSkJIqi2tracePGxWKxQYMGrVq1Kuu7CAA/1vaa7YMGDjxSLo2iqE9h4aCBA7fXbE8kEtksDOprJtH04MGDY8eOfeCBB/773/9++eWXjz76aOiKgCx57bXXevfuncyfS5YseeKJJ6qrqzds2HD//fe/9dZbTz/99EMPPVS//6JFi955552NGzeuXLly2rRp1dXVL774YseOHVesWNGxY8f07S9btqyoqOizzz6rqKi4+eabDxw4kKUdA4Cm0zIvv/EOyeB6pA+jQhY0k2i6fPny/Pz8srKyVq1a3X333XPnzg1dEZAl55133sSJE88999woigYMGDBgwIAOHToMHjz4lltuad269fXXX79t27ZDhw6l+p977rnffPPN+vXrL7jggq+//rp3796Nb/+iiy6aMGFCbm7unXfemZubu2bNmhO7PwD/X25ubm5ubp8+fW644YZJkyY988wzy5YtC10UQNNrJtH0ww8/7Nu3b3K5sLCwurr68OHDYUsCsuP8889PLXfq1Cm5kJOTk1w+44yGs9zQoUMnTJgwYcKEWCw2ceLEI90FTc0hF1xwQaqxe/fuO3fubMLiAY7q4MGDnTp1isViBQUFBQUFsVhs+PDhoYsCaHrNJJru37+/bdu2yeW2bdseOnRoz549YUsCsiMnJ+e4+m/btq2ioqK6uvqtt9568803X3311fqv1tXVJRfWrl2bXNi6dWvq1S1btnTt2vXH1Qtw3GpqapLpNBaLjR49OnQ5ACdEM4mmZ5999t69e5PLe/bsyc3NTSVVgPrmzp1bXl6eSCRisVjLli2/++67ZHsikWjbtu3KlSt37ty5d+/eOXPmJNurq6tnz55dV1f37LPP5uTk9OvXL1ztwOlr/vz5BQUFFRUVoQsBOFGaSTTt0aPHpk2bksubNm268MILW7RoEbYk4OR0++23d+zY8fzzz+/bt++gQYN+8YtfRFFUUlIyePDgbt26lZeXX3bZZd26dUs9L3fdddfNmTMnHo/PmjVr3rx56U8IA2THxIkTQ5cAcAI1k981LSoq+uKLL/7xj38MGTJk2rRpyWtNoNkbMWLEiBEj0pdnzpyZ6tPg16Tatm27cOHCBtuZMWNGcmHatGnTpk1rMETT1gwAQLpm8vZ/Tk7OwoULJ0+efNFFF7Vq1eqee+4JXREAAADHqpncNY2iaMCAAatWrQpdBQAAnHQOJGob7/Dhhg1RFLVp4+taCKb5RFMAACBdvEt81erVURS1zMvP2OFAonbV6tXxLvF27dpltzT4P6IpAAA0ZyOLi5dUVv512d8a6RPvEh9ZXJy1kiCdaAoAAM1ZXl5eaVlZ6CrgKJrJ1yABAABw6hJNAQAACEw0BQAAIDDRFAAAgMBEUwAAAAITTQEAAAjs1P7xmKqqqtAlAFnifAc4LqZN4NRyakfTq6++OnQJQDZUVVU53wGOnWkTaELZeavLA70AAAAEJpoCAAAQmGgKAABAYKIpAAAAgYmmAAAABCaaAgAAENip/eMxAADAsUgkEl999WXGl9q0aduuXbss1wMNiKbAKWzfvn3t27fPyclp0aLF4cOH27dvX1xc/Mwzz7Rq1Sr50s033/znP/851f/ee+99/PHH33///cLCwgabKi0tfeyxxy6++OLs7gEAnHCJRGJJZeX2mu2N9Il3iY8sLs7Ly8taVdCAaAqc8j7//PP27dtHUbRx48af//zn06dPnzx5cvKlN998c//+/a1atUr+uWjRotatWzdYfffu3YsXL16yZMljjz2WzbIBIDuWVFbu37//2uHX9El7Zzbpww0bVq1evaSysrSsLMu1QUpz+6xpaWnppk2bQlcBhHHJJZcUFRVt3bo11TJ06NDXX389ubxu3boOHToUFBQ0WOuee+6ZMWPGGWc0t/kQAJK212wfNHDgkXJpFEV9CgsHDRy4vWZ7IpHIZmFQX/O5FNu9e/esWbOWLFkSuhAgmPXr1y9durSkpCTVctNNN82fPz+5vGDBgjFjxqSv9cwzz6xYseKcc87JUpUAkHUt8/Ib75AMrkf6MCpkQfN5oPeee+7ZsGGD+x5wGorH4y1atKirqztw4EBFRcWIESNSL40cOfKuu+6qra3Nz89/5ZVXFi5c+OyzzwYsFeB45ebmRlHUq1evi/5X7969hw8fHrougCbWfIKc+x5w2tq+ffvevXu/++67t99+e/HixStWrEi91Lp16yFDhrzxxhvV1dVnnnlmz549A9YJ8AMcPHiwU6dOsVisoKCgoKAgFovJpUCz1HyiKcDAgQOHDRu2du3a+o1jxoyZP3/+kZ7mBTj51dTUJNNpLBYbPXp06HIATgjRFGhWOnXqtHfv3votxcXFy5Yte/nll13PAaeu+fPnFxQUVFRUhC4E4EQRTYFmpUePHgsWLKjf0qZNmyuvvLKurq5Pnz6hqgL48SZOnBi6BIATqPl8DRJwGjrrrLMOHjxYv2XSpEmTJk1q8FLqS3qjKPr4448zbmrbtm0nrEwAAI7CXVMAAAACa253Td33AACABg4kahvv8OGGDVEUtWnTNivlQAbNLZoCAAD1xbvEV61eHUVRy7z8jB0OJGpXrV4d7xJv165ddkuD/yOaAgBAczayuHhJZeVfl/2tkT7xLvGRxcVZKwnSiaYAANCc5eXllZaVha4CjsLXIAEAABCYaAoAAEBgoikAAACBiaYAAAAEJpoCAAAQmGgKAABAYKf2j8dUVVWFLgHIEuc7wHExbQKnllM4mhYVFYUuAQAAgCbggV4AAAACE00BAAAITDQFAAAgMNEUAACAwERTAAAAAhNNAQAACEw0BQAAIDDRFAAAgMBEUwAAAAITTQEAAAhMNAUAACAw0RQAAIDARFMAAAACE00BAAAITDQFAAAgMNEUAACAwERTAAAAAhNNAQAACEw0BQAAIDDRFAAAgMBEUwAAAAITTQEAAAhMNAUAACAw0RQAAIDARFMAAAACE00BAAAITDQFAAAgMNEUAACAwERTAAAAAhNNAQAACEw0BQAAIDDRFAAAgMBEUwAAAAITTQEAAAhMNAUAACAw0RQAAIDARFMAAAACE00BAAAITDQFAAAgMNEUAACAwERTAAAAAhNNAQAACEw0BQAAIDDRFAAAgMBEUwAAAAITTQEAAAhMNAUAACAw0RQAAIDARFMAAAACE00BAAAITDQFAAAgMNEUAACAwERTAAAAAhNNAQAACEw0BQAAIDDRFAAAgMBEUwAAAAITTQEAAAhMNAUAACAw0RQAAIDARFMAAAACE00BAAAITDQFAAAgMNEUAACAwERTAAAAAhNNAQAACEw0BQAAIDDRFAAAgMBEUwAAAAITTQEAAAhMNAUAACAw0RQAAIDARFMAAAACE00BAAAITDQFAAAgMNEUAACAwERTAAAAAhNNAQAACEw0BQAAIDDRFAAAgMBEUwAAAAITTQEAAAhMNAUAACAw0RQAAIDARFMAAAACE00BAAAITDQFAAAgMNEUAACAwERTAAAAAvsfz0o+LRxMtQgAAAAASUVORK5CYII=;" vertex="1" parent="1">
          <mxGeometry x="83.5" y="770" width="1246" height="748" as="geometry" />
        </mxCell>
      </root>
    </mxGraphModel>
  </diagram>
</mxfile>
